<?xml version="1.0" encoding="UTF-8" standalone="no"?>
<!DOCTYPE svg PUBLIC "-//W3C//DTD SVG 1.1//EN" "http://www.w3.org/Graphics/SVG/1.1/DTD/svg11.dtd">
<svg width="100%" height="100%" viewBox="0 0 1459 218" version="1.1" xmlns="http://www.w3.org/2000/svg" xmlns:xlink="http://www.w3.org/1999/xlink" xml:space="preserve" xmlns:serif="http://www.serif.com/" style="fill-rule:evenodd;clip-rule:evenodd;stroke-miterlimit:10;">
    <g id="Artboard1" transform="matrix(0.981971,0,0,1,0,0)">
        <rect x="0" y="0" width="1485" height="217.165" style="fill:none;"/>
        <g transform="matrix(4.24317,0,0,4.16667,3.28609,14.5279)">
            <g transform="matrix(18,0,0,18,148.981,15.3716)">
                <path d="M0.553,-0L0.498,-0.139L0.224,-0.139L0.172,-0L-0.014,-0L0.283,-0.708L0.449,-0.708L0.743,-0L0.553,-0ZM0.363,-0.519L0.273,-0.276L0.451,-0.276L0.363,-0.519Z" style="fill-rule:nonzero;"/>
            </g>
            <g transform="matrix(18,0,0,18,162.103,15.3716)">
                <path d="M0.734,-0.356C0.734,-0.294 0.723,-0.241 0.7,-0.196C0.677,-0.151 0.646,-0.114 0.609,-0.085C0.571,-0.056 0.528,-0.034 0.481,-0.021C0.434,-0.007 0.386,-0 0.337,-0L0.073,-0L0.073,-0.708L0.329,-0.708C0.379,-0.708 0.428,-0.702 0.477,-0.691C0.526,-0.679 0.569,-0.66 0.607,-0.633C0.645,-0.606 0.676,-0.569 0.699,-0.524C0.722,-0.479 0.734,-0.423 0.734,-0.356ZM0.556,-0.356C0.556,-0.396 0.55,-0.429 0.537,-0.456C0.524,-0.482 0.506,-0.503 0.485,-0.519C0.463,-0.534 0.438,-0.545 0.411,-0.552C0.383,-0.559 0.354,-0.562 0.325,-0.562L0.24,-0.562L0.24,-0.148L0.321,-0.148C0.352,-0.148 0.381,-0.152 0.41,-0.159C0.438,-0.166 0.463,-0.177 0.485,-0.193C0.506,-0.209 0.524,-0.23 0.537,-0.257C0.55,-0.284 0.556,-0.317 0.556,-0.356Z" style="fill-rule:nonzero;"/>
            </g>
            <g transform="matrix(18,0,0,18,175.819,15.3716)">
                <path d="M0.424,-0L0.253,-0L-0.015,-0.708L0.177,-0.708L0.341,-0.206L0.345,-0.206L0.508,-0.708L0.697,-0.708L0.424,-0Z" style="fill-rule:nonzero;"/>
            </g>
            <g transform="matrix(18,0,0,18,187.555,15.3716)">
                <path d="M0.553,-0L0.498,-0.139L0.224,-0.139L0.172,-0L-0.014,-0L0.283,-0.708L0.449,-0.708L0.743,-0L0.553,-0ZM0.363,-0.519L0.273,-0.276L0.451,-0.276L0.363,-0.519Z" style="fill-rule:nonzero;"/>
            </g>
            <g transform="matrix(18,0,0,18,200.677,15.3716)">
                <path d="M0.523,-0L0.238,-0.463L0.235,-0.463L0.239,-0L0.073,-0L0.073,-0.708L0.268,-0.708L0.552,-0.246L0.555,-0.246L0.551,-0.708L0.717,-0.708L0.717,-0L0.523,-0Z" style="fill-rule:nonzero;"/>
            </g>
            <g transform="matrix(18,0,0,18,214.897,15.3716)">
                <path d="M0.376,-0.562L0.376,-0L0.205,-0L0.205,-0.562L0.005,-0.562L0.005,-0.708L0.576,-0.708L0.576,-0.562L0.376,-0.562Z" style="fill-rule:nonzero;"/>
            </g>
            <g transform="matrix(18,0,0,18,224.275,15.3716)">
                <path d="M0.553,-0L0.498,-0.139L0.224,-0.139L0.172,-0L-0.014,-0L0.283,-0.708L0.449,-0.708L0.743,-0L0.553,-0ZM0.363,-0.519L0.273,-0.276L0.451,-0.276L0.363,-0.519Z" style="fill-rule:nonzero;"/>
            </g>
            <g transform="matrix(18,0,0,18,237.073,15.3716)">
                <path d="M0.702,-0.043C0.667,-0.025 0.627,-0.01 0.581,0.001C0.534,0.012 0.484,0.018 0.429,0.018C0.372,0.018 0.32,0.009 0.273,-0.009C0.225,-0.027 0.184,-0.052 0.15,-0.085C0.115,-0.118 0.088,-0.157 0.069,-0.203C0.05,-0.248 0.04,-0.299 0.04,-0.355C0.04,-0.412 0.05,-0.463 0.07,-0.509C0.089,-0.555 0.116,-0.594 0.151,-0.627C0.186,-0.659 0.226,-0.684 0.273,-0.701C0.32,-0.718 0.37,-0.727 0.424,-0.727C0.48,-0.727 0.532,-0.719 0.58,-0.702C0.628,-0.685 0.667,-0.662 0.697,-0.633L0.589,-0.51C0.572,-0.529 0.55,-0.545 0.523,-0.558C0.496,-0.57 0.465,-0.576 0.43,-0.576C0.4,-0.576 0.372,-0.571 0.347,-0.56C0.322,-0.549 0.3,-0.533 0.281,-0.514C0.262,-0.494 0.248,-0.47 0.238,-0.444C0.227,-0.417 0.222,-0.387 0.222,-0.355C0.222,-0.322 0.227,-0.292 0.236,-0.265C0.245,-0.238 0.259,-0.214 0.278,-0.195C0.296,-0.175 0.319,-0.16 0.346,-0.149C0.373,-0.137 0.403,-0.132 0.438,-0.132C0.458,-0.132 0.477,-0.134 0.495,-0.137C0.513,-0.14 0.53,-0.144 0.545,-0.151L0.545,-0.28L0.41,-0.28L0.41,-0.418L0.702,-0.418L0.702,-0.043Z" style="fill-rule:nonzero;"/>
            </g>
            <g transform="matrix(18,0,0,18,250.915,15.3716)">
                <path d="M0.073,-0L0.073,-0.708L0.549,-0.708L0.549,-0.563L0.238,-0.563L0.238,-0.43L0.532,-0.43L0.532,-0.293L0.238,-0.293L0.238,-0.146L0.567,-0.146L0.567,-0L0.073,-0Z" style="fill-rule:nonzero;"/>
            </g>
            <g transform="matrix(18,0,0,18,133.843,43.3816)">
                <path d="M0.734,-0.356C0.734,-0.294 0.723,-0.241 0.7,-0.196C0.677,-0.151 0.646,-0.114 0.609,-0.085C0.571,-0.056 0.528,-0.034 0.481,-0.021C0.434,-0.007 0.386,-0 0.337,-0L0.073,-0L0.073,-0.708L0.329,-0.708C0.379,-0.708 0.428,-0.702 0.477,-0.691C0.526,-0.679 0.569,-0.66 0.607,-0.633C0.645,-0.606 0.676,-0.569 0.699,-0.524C0.722,-0.479 0.734,-0.423 0.734,-0.356ZM0.556,-0.356C0.556,-0.396 0.55,-0.429 0.537,-0.456C0.524,-0.482 0.506,-0.503 0.485,-0.519C0.463,-0.534 0.438,-0.545 0.411,-0.552C0.383,-0.559 0.354,-0.562 0.325,-0.562L0.24,-0.562L0.24,-0.148L0.321,-0.148C0.352,-0.148 0.381,-0.152 0.41,-0.159C0.438,-0.166 0.463,-0.177 0.485,-0.193C0.506,-0.209 0.524,-0.23 0.537,-0.257C0.55,-0.284 0.556,-0.317 0.556,-0.356Z" style="fill-rule:nonzero;"/>
            </g>
            <g transform="matrix(18,0,0,18,147.775,43.3816)">
                <rect x="0.073" y="-0.708" width="0.172" height="0.708" style="fill-rule:nonzero;"/>
            </g>
            <g transform="matrix(18,0,0,18,153.499,43.3816)">
                <path d="M0.447,-0.524C0.432,-0.543 0.413,-0.558 0.39,-0.569C0.366,-0.58 0.343,-0.585 0.321,-0.585C0.31,-0.585 0.298,-0.584 0.287,-0.582C0.275,-0.58 0.264,-0.576 0.255,-0.571C0.246,-0.565 0.238,-0.558 0.232,-0.549C0.225,-0.54 0.222,-0.528 0.222,-0.514C0.222,-0.502 0.225,-0.492 0.23,-0.484C0.235,-0.476 0.242,-0.469 0.252,-0.463C0.261,-0.457 0.273,-0.452 0.286,-0.447C0.299,-0.442 0.314,-0.436 0.331,-0.431C0.355,-0.423 0.38,-0.414 0.406,-0.405C0.432,-0.395 0.456,-0.382 0.477,-0.366C0.498,-0.35 0.516,-0.33 0.53,-0.307C0.544,-0.283 0.551,-0.253 0.551,-0.218C0.551,-0.177 0.544,-0.142 0.529,-0.113C0.514,-0.083 0.493,-0.058 0.468,-0.039C0.443,-0.02 0.414,-0.005 0.381,0.004C0.348,0.013 0.315,0.018 0.28,0.018C0.229,0.018 0.18,0.009 0.133,-0.009C0.086,-0.026 0.046,-0.051 0.015,-0.084L0.127,-0.198C0.144,-0.177 0.167,-0.159 0.196,-0.145C0.224,-0.13 0.252,-0.123 0.28,-0.123C0.293,-0.123 0.305,-0.124 0.317,-0.127C0.329,-0.13 0.339,-0.134 0.349,-0.14C0.358,-0.146 0.365,-0.154 0.37,-0.164C0.375,-0.174 0.378,-0.186 0.378,-0.2C0.378,-0.213 0.375,-0.225 0.368,-0.234C0.361,-0.243 0.352,-0.252 0.34,-0.26C0.327,-0.267 0.312,-0.274 0.294,-0.281C0.275,-0.287 0.254,-0.294 0.231,-0.301C0.208,-0.308 0.186,-0.317 0.165,-0.327C0.143,-0.337 0.124,-0.35 0.107,-0.366C0.09,-0.381 0.076,-0.4 0.066,-0.423C0.055,-0.445 0.05,-0.472 0.05,-0.504C0.05,-0.543 0.058,-0.577 0.074,-0.605C0.09,-0.633 0.111,-0.656 0.137,-0.674C0.163,-0.692 0.192,-0.705 0.225,-0.714C0.258,-0.722 0.291,-0.726 0.324,-0.726C0.364,-0.726 0.405,-0.719 0.447,-0.704C0.488,-0.689 0.525,-0.668 0.556,-0.639L0.447,-0.524Z" style="fill-rule:nonzero;"/>
            </g>
            <g transform="matrix(18,0,0,18,164.137,43.3816)">
                <path d="M0.553,-0L0.498,-0.139L0.224,-0.139L0.172,-0L-0.014,-0L0.283,-0.708L0.449,-0.708L0.743,-0L0.553,-0ZM0.363,-0.519L0.273,-0.276L0.451,-0.276L0.363,-0.519Z" style="fill-rule:nonzero;"/>
            </g>
            <g transform="matrix(18,0,0,18,177.259,43.3816)">
                <path d="M0.734,-0.356C0.734,-0.294 0.723,-0.241 0.7,-0.196C0.677,-0.151 0.646,-0.114 0.609,-0.085C0.571,-0.056 0.528,-0.034 0.481,-0.021C0.434,-0.007 0.386,-0 0.337,-0L0.073,-0L0.073,-0.708L0.329,-0.708C0.379,-0.708 0.428,-0.702 0.477,-0.691C0.526,-0.679 0.569,-0.66 0.607,-0.633C0.645,-0.606 0.676,-0.569 0.699,-0.524C0.722,-0.479 0.734,-0.423 0.734,-0.356ZM0.556,-0.356C0.556,-0.396 0.55,-0.429 0.537,-0.456C0.524,-0.482 0.506,-0.503 0.485,-0.519C0.463,-0.534 0.438,-0.545 0.411,-0.552C0.383,-0.559 0.354,-0.562 0.325,-0.562L0.24,-0.562L0.24,-0.148L0.321,-0.148C0.352,-0.148 0.381,-0.152 0.41,-0.159C0.438,-0.166 0.463,-0.177 0.485,-0.193C0.506,-0.209 0.524,-0.23 0.537,-0.257C0.55,-0.284 0.556,-0.317 0.556,-0.356Z" style="fill-rule:nonzero;"/>
            </g>
            <g transform="matrix(18,0,0,18,190.975,43.3816)">
                <path d="M0.424,-0L0.253,-0L-0.015,-0.708L0.177,-0.708L0.341,-0.206L0.345,-0.206L0.508,-0.708L0.697,-0.708L0.424,-0Z" style="fill-rule:nonzero;"/>
            </g>
            <g transform="matrix(18,0,0,18,202.711,43.3816)">
                <path d="M0.553,-0L0.498,-0.139L0.224,-0.139L0.172,-0L-0.014,-0L0.283,-0.708L0.449,-0.708L0.743,-0L0.553,-0ZM0.363,-0.519L0.273,-0.276L0.451,-0.276L0.363,-0.519Z" style="fill-rule:nonzero;"/>
            </g>
            <g transform="matrix(18,0,0,18,215.833,43.3816)">
                <path d="M0.523,-0L0.238,-0.463L0.235,-0.463L0.239,-0L0.073,-0L0.073,-0.708L0.268,-0.708L0.552,-0.246L0.555,-0.246L0.551,-0.708L0.717,-0.708L0.717,-0L0.523,-0Z" style="fill-rule:nonzero;"/>
            </g>
            <g transform="matrix(18,0,0,18,230.053,43.3816)">
                <path d="M0.376,-0.562L0.376,-0L0.205,-0L0.205,-0.562L0.005,-0.562L0.005,-0.708L0.576,-0.708L0.576,-0.562L0.376,-0.562Z" style="fill-rule:nonzero;"/>
            </g>
            <g transform="matrix(18,0,0,18,239.431,43.3816)">
                <path d="M0.553,-0L0.498,-0.139L0.224,-0.139L0.172,-0L-0.014,-0L0.283,-0.708L0.449,-0.708L0.743,-0L0.553,-0ZM0.363,-0.519L0.273,-0.276L0.451,-0.276L0.363,-0.519Z" style="fill-rule:nonzero;"/>
            </g>
            <g transform="matrix(18,0,0,18,252.229,43.3816)">
                <path d="M0.702,-0.043C0.667,-0.025 0.627,-0.01 0.581,0.001C0.534,0.012 0.484,0.018 0.429,0.018C0.372,0.018 0.32,0.009 0.273,-0.009C0.225,-0.027 0.184,-0.052 0.15,-0.085C0.115,-0.118 0.088,-0.157 0.069,-0.203C0.05,-0.248 0.04,-0.299 0.04,-0.355C0.04,-0.412 0.05,-0.463 0.07,-0.509C0.089,-0.555 0.116,-0.594 0.151,-0.627C0.186,-0.659 0.226,-0.684 0.273,-0.701C0.32,-0.718 0.37,-0.727 0.424,-0.727C0.48,-0.727 0.532,-0.719 0.58,-0.702C0.628,-0.685 0.667,-0.662 0.697,-0.633L0.589,-0.51C0.572,-0.529 0.55,-0.545 0.523,-0.558C0.496,-0.57 0.465,-0.576 0.43,-0.576C0.4,-0.576 0.372,-0.571 0.347,-0.56C0.322,-0.549 0.3,-0.533 0.281,-0.514C0.262,-0.494 0.248,-0.47 0.238,-0.444C0.227,-0.417 0.222,-0.387 0.222,-0.355C0.222,-0.322 0.227,-0.292 0.236,-0.265C0.245,-0.238 0.259,-0.214 0.278,-0.195C0.296,-0.175 0.319,-0.16 0.346,-0.149C0.373,-0.137 0.403,-0.132 0.438,-0.132C0.458,-0.132 0.477,-0.134 0.495,-0.137C0.513,-0.14 0.53,-0.144 0.545,-0.151L0.545,-0.28L0.41,-0.28L0.41,-0.418L0.702,-0.418L0.702,-0.043Z" style="fill-rule:nonzero;"/>
            </g>
            <g transform="matrix(18,0,0,18,266.071,43.3816)">
                <path d="M0.073,-0L0.073,-0.708L0.549,-0.708L0.549,-0.563L0.238,-0.563L0.238,-0.43L0.532,-0.43L0.532,-0.293L0.238,-0.293L0.238,-0.146L0.567,-0.146L0.567,-0L0.073,-0Z" style="fill-rule:nonzero;"/>
            </g>
        </g>
        <g transform="matrix(1.01836,0,0,1,469.456,-91.8384)">
            <g transform="matrix(58.3333,0,0,58.3333,353.996,222.47)">
                <path d="M0.811,-0.357C0.811,-0.301 0.801,-0.25 0.782,-0.204C0.763,-0.157 0.736,-0.118 0.702,-0.085C0.667,-0.052 0.626,-0.026 0.579,-0.008C0.532,0.01 0.48,0.019 0.425,0.019C0.37,0.019 0.319,0.01 0.272,-0.008C0.225,-0.026 0.184,-0.052 0.15,-0.085C0.115,-0.118 0.088,-0.157 0.069,-0.204C0.05,-0.25 0.04,-0.301 0.04,-0.357C0.04,-0.414 0.05,-0.465 0.069,-0.511C0.088,-0.556 0.115,-0.595 0.15,-0.627C0.184,-0.659 0.225,-0.684 0.272,-0.701C0.319,-0.718 0.37,-0.727 0.425,-0.727C0.48,-0.727 0.532,-0.718 0.579,-0.701C0.626,-0.684 0.667,-0.659 0.702,-0.627C0.736,-0.595 0.763,-0.556 0.782,-0.511C0.801,-0.465 0.811,-0.414 0.811,-0.357ZM0.628,-0.357C0.628,-0.388 0.623,-0.416 0.613,-0.443C0.603,-0.47 0.589,-0.493 0.572,-0.512C0.554,-0.531 0.533,-0.546 0.508,-0.557C0.483,-0.568 0.455,-0.573 0.425,-0.573C0.395,-0.573 0.368,-0.568 0.343,-0.557C0.318,-0.546 0.297,-0.531 0.279,-0.512C0.261,-0.493 0.247,-0.47 0.238,-0.443C0.228,-0.416 0.223,-0.388 0.223,-0.357C0.223,-0.325 0.228,-0.296 0.238,-0.269C0.248,-0.242 0.262,-0.218 0.28,-0.199C0.297,-0.18 0.318,-0.165 0.343,-0.154C0.368,-0.142 0.395,-0.137 0.425,-0.137C0.455,-0.137 0.482,-0.142 0.507,-0.154C0.532,-0.165 0.553,-0.18 0.571,-0.199C0.589,-0.218 0.603,-0.242 0.613,-0.269C0.623,-0.296 0.628,-0.325 0.628,-0.357Z" style="fill-rule:nonzero;"/>
            </g>
            <g transform="matrix(58.3333,0,0,58.3333,403.637,222.47)">
                <path d="M0.452,-0L0.299,-0.281L0.241,-0.281L0.241,-0L0.073,-0L0.073,-0.708L0.343,-0.708C0.377,-0.708 0.41,-0.705 0.443,-0.698C0.475,-0.691 0.504,-0.679 0.53,-0.662C0.555,-0.645 0.576,-0.623 0.591,-0.596C0.606,-0.569 0.614,-0.535 0.614,-0.494C0.614,-0.446 0.601,-0.406 0.575,-0.373C0.549,-0.34 0.513,-0.317 0.467,-0.303L0.652,-0L0.452,-0ZM0.445,-0.491C0.445,-0.508 0.442,-0.521 0.435,-0.532C0.428,-0.542 0.419,-0.55 0.408,-0.556C0.397,-0.561 0.384,-0.565 0.371,-0.567C0.357,-0.569 0.344,-0.57 0.331,-0.57L0.24,-0.57L0.24,-0.405L0.321,-0.405C0.335,-0.405 0.349,-0.406 0.364,-0.409C0.379,-0.411 0.392,-0.415 0.404,-0.421C0.416,-0.427 0.426,-0.436 0.434,-0.447C0.441,-0.458 0.445,-0.473 0.445,-0.491Z" style="fill-rule:nonzero;"/>
            </g>
        </g>
        <g transform="matrix(1.01836,0,0,1,-197.484,209.971)">
            <g transform="matrix(75,0,0,75,193.924,-106.373)">
                <path d="M0.625,-0.206C0.625,-0.167 0.617,-0.135 0.602,-0.109C0.587,-0.082 0.566,-0.061 0.541,-0.045C0.516,-0.029 0.487,-0.018 0.455,-0.011C0.422,-0.004 0.389,-0 0.355,-0L0.073,-0L0.073,-0.708L0.355,-0.708C0.382,-0.708 0.41,-0.705 0.439,-0.7C0.468,-0.694 0.494,-0.684 0.517,-0.671C0.54,-0.657 0.559,-0.638 0.574,-0.615C0.589,-0.592 0.596,-0.562 0.596,-0.526C0.596,-0.487 0.585,-0.454 0.564,-0.429C0.543,-0.403 0.515,-0.384 0.48,-0.373L0.48,-0.371C0.5,-0.368 0.519,-0.362 0.537,-0.353C0.554,-0.343 0.57,-0.332 0.583,-0.318C0.596,-0.304 0.606,-0.288 0.614,-0.269C0.621,-0.25 0.625,-0.229 0.625,-0.206ZM0.431,-0.503C0.431,-0.527 0.422,-0.545 0.404,-0.556C0.385,-0.567 0.358,-0.572 0.322,-0.572L0.238,-0.572L0.238,-0.426L0.33,-0.426C0.362,-0.426 0.387,-0.432 0.405,-0.446C0.422,-0.459 0.431,-0.478 0.431,-0.503ZM0.454,-0.222C0.454,-0.251 0.443,-0.272 0.421,-0.283C0.399,-0.294 0.37,-0.3 0.333,-0.3L0.238,-0.3L0.238,-0.138L0.334,-0.138C0.347,-0.138 0.361,-0.139 0.376,-0.142C0.39,-0.144 0.403,-0.148 0.415,-0.154C0.426,-0.16 0.436,-0.169 0.443,-0.18C0.45,-0.191 0.454,-0.205 0.454,-0.222Z" style="fill-rule:nonzero;"/>
            </g>
            <g transform="matrix(75,0,0,75,243.799,-106.373)">
                <path d="M0.553,-0L0.498,-0.139L0.224,-0.139L0.172,-0L-0.014,-0L0.283,-0.708L0.449,-0.708L0.743,-0L0.553,-0ZM0.363,-0.519L0.273,-0.276L0.451,-0.276L0.363,-0.519Z" style="fill-rule:nonzero;"/>
            </g>
            <g transform="matrix(75,0,0,75,298.474,-106.373)">
                <path d="M0.447,-0.524C0.432,-0.543 0.413,-0.558 0.39,-0.569C0.366,-0.58 0.343,-0.585 0.321,-0.585C0.31,-0.585 0.298,-0.584 0.287,-0.582C0.275,-0.58 0.264,-0.576 0.255,-0.571C0.246,-0.565 0.238,-0.558 0.232,-0.549C0.225,-0.54 0.222,-0.528 0.222,-0.514C0.222,-0.502 0.225,-0.492 0.23,-0.484C0.235,-0.476 0.242,-0.469 0.252,-0.463C0.261,-0.457 0.273,-0.452 0.286,-0.447C0.299,-0.442 0.314,-0.436 0.331,-0.431C0.355,-0.423 0.38,-0.414 0.406,-0.405C0.432,-0.395 0.456,-0.382 0.477,-0.366C0.498,-0.35 0.516,-0.33 0.53,-0.307C0.544,-0.283 0.551,-0.253 0.551,-0.218C0.551,-0.177 0.544,-0.142 0.529,-0.113C0.514,-0.083 0.493,-0.058 0.468,-0.039C0.443,-0.02 0.414,-0.005 0.381,0.004C0.348,0.013 0.315,0.018 0.28,0.018C0.229,0.018 0.18,0.009 0.133,-0.009C0.086,-0.026 0.046,-0.051 0.015,-0.084L0.127,-0.198C0.144,-0.177 0.167,-0.159 0.196,-0.145C0.224,-0.13 0.252,-0.123 0.28,-0.123C0.293,-0.123 0.305,-0.124 0.317,-0.127C0.329,-0.13 0.339,-0.134 0.349,-0.14C0.358,-0.146 0.365,-0.154 0.37,-0.164C0.375,-0.174 0.378,-0.186 0.378,-0.2C0.378,-0.213 0.375,-0.225 0.368,-0.234C0.361,-0.243 0.352,-0.252 0.34,-0.26C0.327,-0.267 0.312,-0.274 0.294,-0.281C0.275,-0.287 0.254,-0.294 0.231,-0.301C0.208,-0.308 0.186,-0.317 0.165,-0.327C0.143,-0.337 0.124,-0.35 0.107,-0.366C0.09,-0.381 0.076,-0.4 0.066,-0.423C0.055,-0.445 0.05,-0.472 0.05,-0.504C0.05,-0.543 0.058,-0.577 0.074,-0.605C0.09,-0.633 0.111,-0.656 0.137,-0.674C0.163,-0.692 0.192,-0.705 0.225,-0.714C0.258,-0.722 0.291,-0.726 0.324,-0.726C0.364,-0.726 0.405,-0.719 0.447,-0.704C0.488,-0.689 0.525,-0.668 0.556,-0.639L0.447,-0.524Z" style="fill-rule:nonzero;"/>
            </g>
            <g transform="matrix(75,0,0,75,342.799,-106.373)">
                <path d="M0.073,-0L0.073,-0.708L0.549,-0.708L0.549,-0.563L0.238,-0.563L0.238,-0.43L0.532,-0.43L0.532,-0.293L0.238,-0.293L0.238,-0.146L0.567,-0.146L0.567,-0L0.073,-0Z" style="fill-rule:nonzero;"/>
            </g>
            <g transform="matrix(75,0,0,75,201.311,-39.7059)">
                <path d="M0.734,-0.356C0.734,-0.294 0.723,-0.241 0.7,-0.196C0.677,-0.151 0.646,-0.114 0.609,-0.085C0.571,-0.056 0.528,-0.034 0.481,-0.021C0.434,-0.007 0.386,-0 0.337,-0L0.073,-0L0.073,-0.708L0.329,-0.708C0.379,-0.708 0.428,-0.702 0.477,-0.691C0.526,-0.679 0.569,-0.66 0.607,-0.633C0.645,-0.606 0.676,-0.569 0.699,-0.524C0.722,-0.479 0.734,-0.423 0.734,-0.356ZM0.556,-0.356C0.556,-0.396 0.55,-0.429 0.537,-0.456C0.524,-0.482 0.506,-0.503 0.485,-0.519C0.463,-0.534 0.438,-0.545 0.411,-0.552C0.383,-0.559 0.354,-0.562 0.325,-0.562L0.24,-0.562L0.24,-0.148L0.321,-0.148C0.352,-0.148 0.381,-0.152 0.41,-0.159C0.438,-0.166 0.463,-0.177 0.485,-0.193C0.506,-0.209 0.524,-0.23 0.537,-0.257C0.55,-0.284 0.556,-0.317 0.556,-0.356Z" style="fill-rule:nonzero;"/>
            </g>
            <g transform="matrix(75,0,0,75,259.361,-39.7059)">
                <rect x="0.073" y="-0.708" width="0.172" height="0.708" style="fill-rule:nonzero;"/>
            </g>
            <g transform="matrix(75,0,0,75,283.211,-39.7059)">
                <path d="M0.696,-0.098C0.665,-0.062 0.626,-0.033 0.58,-0.013C0.534,0.008 0.481,0.019 0.421,0.019C0.366,0.019 0.316,0.01 0.27,-0.008C0.223,-0.026 0.183,-0.052 0.149,-0.085C0.115,-0.118 0.088,-0.157 0.069,-0.203C0.05,-0.249 0.04,-0.3 0.04,-0.355C0.04,-0.412 0.05,-0.463 0.07,-0.509C0.089,-0.555 0.116,-0.594 0.151,-0.627C0.186,-0.659 0.226,-0.684 0.273,-0.701C0.32,-0.718 0.37,-0.727 0.424,-0.727C0.474,-0.727 0.523,-0.718 0.572,-0.701C0.62,-0.683 0.659,-0.657 0.689,-0.623L0.573,-0.507C0.557,-0.529 0.536,-0.545 0.51,-0.556C0.484,-0.567 0.457,-0.572 0.43,-0.572C0.4,-0.572 0.373,-0.567 0.348,-0.556C0.323,-0.545 0.301,-0.529 0.283,-0.51C0.265,-0.491 0.251,-0.468 0.241,-0.442C0.231,-0.415 0.226,-0.386 0.226,-0.355C0.226,-0.323 0.231,-0.294 0.241,-0.267C0.251,-0.24 0.265,-0.218 0.283,-0.199C0.3,-0.18 0.321,-0.165 0.346,-0.154C0.371,-0.143 0.398,-0.138 0.427,-0.138C0.461,-0.138 0.491,-0.145 0.516,-0.158C0.541,-0.171 0.562,-0.189 0.577,-0.21L0.696,-0.098Z" style="fill-rule:nonzero;"/>
            </g>
            <g transform="matrix(75,0,0,75,335.411,-39.7059)">
                <path d="M0.073,-0L0.073,-0.708L0.549,-0.708L0.549,-0.563L0.238,-0.563L0.238,-0.43L0.532,-0.43L0.532,-0.293L0.238,-0.293L0.238,-0.146L0.567,-0.146L0.567,-0L0.073,-0Z" style="fill-rule:nonzero;"/>
            </g>
        </g>
        <g transform="matrix(1.01836,0,0,1,786.268,204.53)">
            <g transform="matrix(75,0,0,75,488.776,-100.932)">
                <path d="M0.734,-0.356C0.734,-0.294 0.723,-0.241 0.7,-0.196C0.677,-0.151 0.646,-0.114 0.609,-0.085C0.571,-0.056 0.528,-0.034 0.481,-0.021C0.434,-0.007 0.386,-0 0.337,-0L0.073,-0L0.073,-0.708L0.329,-0.708C0.379,-0.708 0.428,-0.702 0.477,-0.691C0.526,-0.679 0.569,-0.66 0.607,-0.633C0.645,-0.606 0.676,-0.569 0.699,-0.524C0.722,-0.479 0.734,-0.423 0.734,-0.356ZM0.556,-0.356C0.556,-0.396 0.55,-0.429 0.537,-0.456C0.524,-0.482 0.506,-0.503 0.485,-0.519C0.463,-0.534 0.438,-0.545 0.411,-0.552C0.383,-0.559 0.354,-0.562 0.325,-0.562L0.24,-0.562L0.24,-0.148L0.321,-0.148C0.352,-0.148 0.381,-0.152 0.41,-0.159C0.438,-0.166 0.463,-0.177 0.485,-0.193C0.506,-0.209 0.524,-0.23 0.537,-0.257C0.55,-0.284 0.556,-0.317 0.556,-0.356Z" style="fill-rule:nonzero;"/>
            </g>
            <g transform="matrix(75,0,0,75,546.826,-100.932)">
                <rect x="0.073" y="-0.708" width="0.172" height="0.708" style="fill-rule:nonzero;"/>
            </g>
            <g transform="matrix(75,0,0,75,570.676,-100.932)">
                <path d="M0.696,-0.098C0.665,-0.062 0.626,-0.033 0.58,-0.013C0.534,0.008 0.481,0.019 0.421,0.019C0.366,0.019 0.316,0.01 0.27,-0.008C0.223,-0.026 0.183,-0.052 0.149,-0.085C0.115,-0.118 0.088,-0.157 0.069,-0.203C0.05,-0.249 0.04,-0.3 0.04,-0.355C0.04,-0.412 0.05,-0.463 0.07,-0.509C0.089,-0.555 0.116,-0.594 0.151,-0.627C0.186,-0.659 0.226,-0.684 0.273,-0.701C0.32,-0.718 0.37,-0.727 0.424,-0.727C0.474,-0.727 0.523,-0.718 0.572,-0.701C0.62,-0.683 0.659,-0.657 0.689,-0.623L0.573,-0.507C0.557,-0.529 0.536,-0.545 0.51,-0.556C0.484,-0.567 0.457,-0.572 0.43,-0.572C0.4,-0.572 0.373,-0.567 0.348,-0.556C0.323,-0.545 0.301,-0.529 0.283,-0.51C0.265,-0.491 0.251,-0.468 0.241,-0.442C0.231,-0.415 0.226,-0.386 0.226,-0.355C0.226,-0.323 0.231,-0.294 0.241,-0.267C0.251,-0.24 0.265,-0.218 0.283,-0.199C0.3,-0.18 0.321,-0.165 0.346,-0.154C0.371,-0.143 0.398,-0.138 0.427,-0.138C0.461,-0.138 0.491,-0.145 0.516,-0.158C0.541,-0.171 0.562,-0.189 0.577,-0.21L0.696,-0.098Z" style="fill-rule:nonzero;"/>
            </g>
            <g transform="matrix(75,0,0,75,622.876,-100.932)">
                <path d="M0.073,-0L0.073,-0.708L0.549,-0.708L0.549,-0.563L0.238,-0.563L0.238,-0.43L0.532,-0.43L0.532,-0.293L0.238,-0.293L0.238,-0.146L0.567,-0.146L0.567,-0L0.073,-0Z" style="fill-rule:nonzero;"/>
            </g>
            <g transform="matrix(75,0,0,75,471.038,-34.2649)">
                <path d="M0.61,-0.49C0.61,-0.449 0.602,-0.414 0.587,-0.386C0.572,-0.357 0.551,-0.334 0.525,-0.317C0.499,-0.3 0.469,-0.287 0.435,-0.279C0.401,-0.271 0.366,-0.267 0.329,-0.267L0.244,-0.267L0.244,-0L0.073,-0L0.073,-0.708L0.333,-0.708C0.372,-0.708 0.408,-0.704 0.442,-0.697C0.475,-0.689 0.505,-0.677 0.53,-0.66C0.555,-0.643 0.574,-0.62 0.589,-0.593C0.603,-0.565 0.61,-0.531 0.61,-0.49ZM0.439,-0.489C0.439,-0.506 0.436,-0.519 0.429,-0.53C0.422,-0.541 0.413,-0.549 0.402,-0.555C0.391,-0.561 0.378,-0.565 0.364,-0.567C0.349,-0.569 0.334,-0.57 0.319,-0.57L0.244,-0.57L0.244,-0.403L0.316,-0.403C0.332,-0.403 0.347,-0.404 0.362,-0.407C0.377,-0.41 0.39,-0.414 0.402,-0.421C0.413,-0.428 0.422,-0.436 0.429,-0.448C0.436,-0.459 0.439,-0.472 0.439,-0.489Z" style="fill-rule:nonzero;"/>
            </g>
            <g transform="matrix(75,0,0,75,519.038,-34.2649)">
                <path d="M0.811,-0.357C0.811,-0.301 0.801,-0.25 0.782,-0.204C0.763,-0.157 0.736,-0.118 0.702,-0.085C0.667,-0.052 0.626,-0.026 0.579,-0.008C0.532,0.01 0.48,0.019 0.425,0.019C0.37,0.019 0.319,0.01 0.272,-0.008C0.225,-0.026 0.184,-0.052 0.15,-0.085C0.115,-0.118 0.088,-0.157 0.069,-0.204C0.05,-0.25 0.04,-0.301 0.04,-0.357C0.04,-0.414 0.05,-0.465 0.069,-0.511C0.088,-0.556 0.115,-0.595 0.15,-0.627C0.184,-0.659 0.225,-0.684 0.272,-0.701C0.319,-0.718 0.37,-0.727 0.425,-0.727C0.48,-0.727 0.532,-0.718 0.579,-0.701C0.626,-0.684 0.667,-0.659 0.702,-0.627C0.736,-0.595 0.763,-0.556 0.782,-0.511C0.801,-0.465 0.811,-0.414 0.811,-0.357ZM0.628,-0.357C0.628,-0.388 0.623,-0.416 0.613,-0.443C0.603,-0.47 0.589,-0.493 0.572,-0.512C0.554,-0.531 0.533,-0.546 0.508,-0.557C0.483,-0.568 0.455,-0.573 0.425,-0.573C0.395,-0.573 0.368,-0.568 0.343,-0.557C0.318,-0.546 0.297,-0.531 0.279,-0.512C0.261,-0.493 0.247,-0.47 0.238,-0.443C0.228,-0.416 0.223,-0.388 0.223,-0.357C0.223,-0.325 0.228,-0.296 0.238,-0.269C0.248,-0.242 0.262,-0.218 0.28,-0.199C0.297,-0.18 0.318,-0.165 0.343,-0.154C0.368,-0.142 0.395,-0.137 0.425,-0.137C0.455,-0.137 0.482,-0.142 0.507,-0.154C0.532,-0.165 0.553,-0.18 0.571,-0.199C0.589,-0.218 0.603,-0.242 0.613,-0.269C0.623,-0.296 0.628,-0.325 0.628,-0.357Z" style="fill-rule:nonzero;"/>
            </g>
            <g transform="matrix(75,0,0,75,582.863,-34.2649)">
                <path d="M0.811,-0.357C0.811,-0.301 0.801,-0.25 0.782,-0.204C0.763,-0.157 0.736,-0.118 0.702,-0.085C0.667,-0.052 0.626,-0.026 0.579,-0.008C0.532,0.01 0.48,0.019 0.425,0.019C0.37,0.019 0.319,0.01 0.272,-0.008C0.225,-0.026 0.184,-0.052 0.15,-0.085C0.115,-0.118 0.088,-0.157 0.069,-0.204C0.05,-0.25 0.04,-0.301 0.04,-0.357C0.04,-0.414 0.05,-0.465 0.069,-0.511C0.088,-0.556 0.115,-0.595 0.15,-0.627C0.184,-0.659 0.225,-0.684 0.272,-0.701C0.319,-0.718 0.37,-0.727 0.425,-0.727C0.48,-0.727 0.532,-0.718 0.579,-0.701C0.626,-0.684 0.667,-0.659 0.702,-0.627C0.736,-0.595 0.763,-0.556 0.782,-0.511C0.801,-0.465 0.811,-0.414 0.811,-0.357ZM0.628,-0.357C0.628,-0.388 0.623,-0.416 0.613,-0.443C0.603,-0.47 0.589,-0.493 0.572,-0.512C0.554,-0.531 0.533,-0.546 0.508,-0.557C0.483,-0.568 0.455,-0.573 0.425,-0.573C0.395,-0.573 0.368,-0.568 0.343,-0.557C0.318,-0.546 0.297,-0.531 0.279,-0.512C0.261,-0.493 0.247,-0.47 0.238,-0.443C0.228,-0.416 0.223,-0.388 0.223,-0.357C0.223,-0.325 0.228,-0.296 0.238,-0.269C0.248,-0.242 0.262,-0.218 0.28,-0.199C0.297,-0.18 0.318,-0.165 0.343,-0.154C0.368,-0.142 0.395,-0.137 0.425,-0.137C0.455,-0.137 0.482,-0.142 0.507,-0.154C0.532,-0.165 0.553,-0.18 0.571,-0.199C0.589,-0.218 0.603,-0.242 0.613,-0.269C0.623,-0.296 0.628,-0.325 0.628,-0.357Z" style="fill-rule:nonzero;"/>
            </g>
            <g transform="matrix(75,0,0,75,646.688,-34.2649)">
                <path d="M0.073,-0L0.073,-0.708L0.245,-0.708L0.245,-0.149L0.519,-0.149L0.519,-0L0.073,-0Z" style="fill-rule:nonzero;"/>
            </g>
        </g>
        <g transform="matrix(1.01836,0,0,1,-241.211,243.093)">
            <g transform="matrix(58.3333,0,0,58.3333,447.948,-112.462)">
                <path d="M0.399,-0.24L0.399,-0.031L0.269,-0.031L0.269,-0.24L0.056,-0.24L0.056,-0.366L0.268,-0.366L0.268,-0.575L0.398,-0.575L0.398,-0.366L0.611,-0.366L0.611,-0.24L0.399,-0.24Z" style="fill-rule:nonzero;"/>
            </g>
        </g>
        <g transform="matrix(1.01836,0,0,1,51.6906,243.093)">
            <g transform="matrix(58.3333,0,0,58.3333,447.948,-112.462)">
                <path d="M0.399,-0.24L0.399,-0.031L0.269,-0.031L0.269,-0.24L0.056,-0.24L0.056,-0.366L0.268,-0.366L0.268,-0.575L0.398,-0.575L0.398,-0.366L0.611,-0.366L0.611,-0.24L0.399,-0.24Z" style="fill-rule:nonzero;"/>
            </g>
        </g>
        <g transform="matrix(1.01836,0,0,1,753.227,243.093)">
            <g transform="matrix(58.3333,0,0,58.3333,447.948,-112.462)">
                <path d="M0.068,-0.335L0.068,-0.458L0.598,-0.458L0.598,-0.335L0.068,-0.335ZM0.068,-0.15L0.068,-0.273L0.598,-0.273L0.598,-0.15L0.068,-0.15Z" style="fill-rule:nonzero;"/>
            </g>
        </g>
        <g transform="matrix(1,0,0,1,0.043565,6.26457)">
            <g transform="matrix(4.24317,0,0,4.16667,986.942,102.318)">
                <path d="M0,0L48,0" style="fill:none;fill-rule:nonzero;stroke:black;stroke-width:1px;"/>
            </g>
            <g transform="matrix(4.24317,0,0,4.16667,559.141,102.318)">
                <path d="M0,0L48,0" style="fill:none;fill-rule:nonzero;stroke:black;stroke-width:1px;"/>
            </g>
        </g>
        <g transform="matrix(1.01836,0,0,1,-7.46876,229.635)">
            <g transform="matrix(75,0,0,75,273.955,-92.7028)">
                <path d="M0.376,-0.562L0.376,-0L0.205,-0L0.205,-0.562L0.005,-0.562L0.005,-0.708L0.576,-0.708L0.576,-0.562L0.376,-0.562Z" style="fill-rule:nonzero;"/>
            </g>
            <g transform="matrix(75,0,0,75,317.53,-92.7028)">
                <path d="M0.452,-0L0.299,-0.281L0.241,-0.281L0.241,-0L0.073,-0L0.073,-0.708L0.343,-0.708C0.377,-0.708 0.41,-0.705 0.443,-0.698C0.475,-0.691 0.504,-0.679 0.53,-0.662C0.555,-0.645 0.576,-0.623 0.591,-0.596C0.606,-0.569 0.614,-0.535 0.614,-0.494C0.614,-0.446 0.601,-0.406 0.575,-0.373C0.549,-0.34 0.513,-0.317 0.467,-0.303L0.652,-0L0.452,-0ZM0.445,-0.491C0.445,-0.508 0.442,-0.521 0.435,-0.532C0.428,-0.542 0.419,-0.55 0.408,-0.556C0.397,-0.561 0.384,-0.565 0.371,-0.567C0.357,-0.569 0.344,-0.57 0.331,-0.57L0.24,-0.57L0.24,-0.405L0.321,-0.405C0.335,-0.405 0.349,-0.406 0.364,-0.409C0.379,-0.411 0.392,-0.415 0.404,-0.421C0.416,-0.427 0.426,-0.436 0.434,-0.447C0.441,-0.458 0.445,-0.473 0.445,-0.491Z" style="fill-rule:nonzero;"/>
            </g>
            <g transform="matrix(75,0,0,75,367.255,-92.7028)">
                <path d="M0.553,-0L0.498,-0.139L0.224,-0.139L0.172,-0L-0.014,-0L0.283,-0.708L0.449,-0.708L0.743,-0L0.553,-0ZM0.363,-0.519L0.273,-0.276L0.451,-0.276L0.363,-0.519Z" style="fill-rule:nonzero;"/>
            </g>
            <g transform="matrix(75,0,0,75,421.93,-92.7028)">
                <rect x="0.073" y="-0.708" width="0.172" height="0.708" style="fill-rule:nonzero;"/>
            </g>
            <g transform="matrix(75,0,0,75,445.78,-92.7028)">
                <path d="M0.376,-0.562L0.376,-0L0.205,-0L0.205,-0.562L0.005,-0.562L0.005,-0.708L0.576,-0.708L0.576,-0.562L0.376,-0.562Z" style="fill-rule:nonzero;"/>
            </g>
        </g>
    </g>
</svg>
