<?xml version="1.0" encoding="UTF-8" standalone="no"?>
<!DOCTYPE svg PUBLIC "-//W3C//DTD SVG 1.1//EN" "http://www.w3.org/Graphics/SVG/1.1/DTD/svg11.dtd">
<svg width="100%" height="100%" viewBox="0 0 2951 666" version="1.1" xmlns="http://www.w3.org/2000/svg" xmlns:xlink="http://www.w3.org/1999/xlink" xml:space="preserve" xmlns:serif="http://www.serif.com/" style="fill-rule:evenodd;clip-rule:evenodd;stroke-linejoin:round;stroke-miterlimit:10;">
    <rect id="Artboard1" x="0" y="0" width="2950.74" height="665.875" style="fill:none;"/>
    <clipPath id="_clip1">
        <rect id="Artboard11" serif:id="Artboard1" x="0" y="0" width="2950.74" height="665.875"/>
    </clipPath>
    <g clip-path="url(#_clip1)">
        <g id="Layer-1" serif:id="Layer 1" transform="matrix(4.16667,0,0,4.16667,0,0)">
            <g transform="matrix(1,0,0,1,339.422,17.3703)">
                <path d="M0,92.32L-79.669,99.587C-85.169,100.088 -90.035,96.036 -90.536,90.536L-97.803,10.867C-98.305,5.367 -94.253,0.502 -88.753,0L-9.083,-7.267C-3.583,-7.768 1.282,-3.716 1.784,1.784L9.05,81.453C9.552,86.953 5.5,91.818 0,92.32Z" style="fill:white;fill-rule:nonzero;stroke:black;stroke-width:2px;"/>
            </g>
            <g transform="matrix(-0.768385,-0.639988,-0.639988,0.768385,317.079,86.8799)">
                <path d="M-3.2,-8.842C-5.961,-8.842 -8.2,-6.603 -8.2,-3.842C-8.2,-1.081 -5.961,1.158 -3.2,1.158C-0.439,1.158 1.8,-1.081 1.8,-3.842C1.8,-6.603 -0.439,-8.842 -3.2,-8.842" style="fill-rule:nonzero;"/>
            </g>
            <g transform="matrix(-0.768385,-0.639988,-0.639988,0.768385,317.079,86.8799)">
                <ellipse cx="-3.2" cy="-3.842" rx="5" ry="5" style="fill:none;stroke:black;stroke-width:2px;"/>
            </g>
            <g transform="matrix(-0.768385,-0.639988,-0.639988,0.768385,263.177,41.9889)">
                <path d="M-3.2,-8.842C-5.961,-8.842 -8.2,-6.603 -8.2,-3.842C-8.2,-1.081 -5.961,1.158 -3.2,1.158C-0.439,1.158 1.8,-1.081 1.8,-3.842C1.8,-6.603 -0.439,-8.842 -3.2,-8.842" style="fill-rule:nonzero;"/>
            </g>
            <g transform="matrix(-0.768385,-0.639988,-0.639988,0.768385,263.177,41.9889)">
                <ellipse cx="-3.2" cy="-3.842" rx="5" ry="5" style="fill:none;stroke:black;stroke-width:2px;"/>
            </g>
            <g transform="matrix(-0.768385,-0.639988,-0.639988,0.768385,290.128,64.4344)">
                <path d="M-3.2,-8.842C-5.961,-8.842 -8.2,-6.603 -8.2,-3.842C-8.2,-1.081 -5.961,1.158 -3.2,1.158C-0.439,1.158 1.8,-1.081 1.8,-3.842C1.8,-6.603 -0.439,-8.842 -3.2,-8.842" style="fill-rule:nonzero;"/>
            </g>
            <g transform="matrix(-0.768385,-0.639988,-0.639988,0.768385,290.128,64.4344)">
                <ellipse cx="-3.2" cy="-3.842" rx="5" ry="5" style="fill:none;stroke:black;stroke-width:2px;"/>
            </g>
            <g transform="matrix(1,0,0,1,215.574,8.1962)">
                <path d="M0,110.669L-79.132,98.914C-84.594,98.102 -88.365,93.016 -87.554,87.553L-75.798,8.421C-74.987,2.958 -69.9,-0.812 -64.437,-0.001L14.694,11.755C20.157,12.566 23.928,17.652 23.116,23.115L11.361,102.247C10.549,107.71 5.463,111.481 0,110.669Z" style="fill:white;fill-rule:nonzero;stroke:rgb(255,0,0);stroke-width:2px;"/>
            </g>
            <g transform="matrix(-0.595526,-0.803336,-0.803336,0.595526,199.459,90.2526)">
                <path d="M-4.017,-7.977C-6.778,-7.978 -9.016,-5.738 -9.016,-2.977C-9.017,-0.216 -6.778,2.023 -4.017,2.022C-1.255,2.023 0.984,-0.216 0.983,-2.977C0.984,-5.739 -1.255,-7.977 -4.017,-7.977" style="fill:rgb(255,0,0);fill-rule:nonzero;"/>
            </g>
            <g transform="matrix(-0.595526,-0.803336,-0.803336,0.595526,199.459,90.2526)">
                <circle cx="-4.016" cy="-2.977" r="5" style="fill:none;stroke:rgb(255,0,0);stroke-width:2px;"/>
            </g>
            <g transform="matrix(-0.595526,-0.803336,-0.803336,0.595526,157.684,33.9009)">
                <path d="M-4.017,-7.977C-6.778,-7.978 -9.016,-5.738 -9.016,-2.977C-9.017,-0.216 -6.778,2.023 -4.017,2.022C-1.255,2.023 0.984,-0.216 0.983,-2.977C0.984,-5.739 -1.255,-7.977 -4.017,-7.977" style="fill:rgb(255,0,0);fill-rule:nonzero;"/>
            </g>
            <g transform="matrix(-0.595526,-0.803336,-0.803336,0.595526,157.684,33.9009)">
                <circle cx="-4.016" cy="-2.977" r="5" style="fill:none;stroke:rgb(255,0,0);stroke-width:2px;"/>
            </g>
            <g transform="matrix(1,0,0,1,120,33.3443)">
                <path d="M0,60.372L-73.524,91.904C-78.599,94.081 -84.479,91.731 -86.656,86.655L-118.188,13.132C-120.365,8.056 -118.015,2.177 -112.939,0L-39.415,-31.532C-34.34,-33.709 -28.46,-31.359 -26.283,-26.284L5.249,47.24C7.426,52.316 5.076,58.195 0,60.372Z" style="fill:white;fill-rule:nonzero;stroke:rgb(255,0,0);stroke-width:2px;"/>
            </g>
            <g transform="matrix(-0.394209,-0.919021,-0.919021,0.394209,59.9077,60.0834)">
                <path d="M-4.596,-6.971C-7.358,-6.97 -9.596,-4.731 -9.596,-1.971C-9.595,0.791 -7.357,3.029 -4.596,3.029C-1.834,3.029 0.404,0.791 0.404,-1.971C0.404,-4.733 -1.835,-6.971 -4.596,-6.971" style="fill:rgb(255,0,0);fill-rule:nonzero;"/>
            </g>
            <g transform="matrix(-0.394209,-0.919021,-0.919021,0.394209,59.9077,60.0834)">
                <ellipse cx="-4.596" cy="-1.971" rx="5" ry="5" style="fill:none;stroke:rgb(255,0,0);stroke-width:2px;"/>
            </g>
            <g transform="matrix(1,0,0,1,570.229,8.5367)">
                <path d="M0,109.987L-79.251,99.064C-84.722,98.309 -88.546,93.263 -87.792,87.792L-76.868,8.541C-76.114,3.07 -71.068,-0.754 -65.596,0L13.654,10.924C19.125,11.678 22.949,16.724 22.195,22.195L11.272,101.446C10.518,106.917 5.471,110.741 0,109.987Z" style="fill:white;fill-rule:nonzero;stroke:rgb(57,181,74);stroke-width:2px;"/>
            </g>
            <g transform="matrix(-0.603929,-0.797038,-0.797038,0.603929,553.799,90.1332)">
                <path d="M-3.985,-8.02C-6.746,-8.02 -8.984,-5.781 -8.984,-3.02C-8.985,-0.259 -6.746,1.98 -3.985,1.979C-1.223,1.98 1.016,-0.259 1.015,-3.02C1.015,-5.781 -1.223,-8.02 -3.985,-8.02" style="fill:rgb(57,181,74);fill-rule:nonzero;"/>
            </g>
            <g transform="matrix(-0.603929,-0.797038,-0.797038,0.603929,553.799,90.1332)">
                <ellipse cx="-3.985" cy="-3.02" rx="5" ry="5" style="fill:none;stroke:rgb(57,181,74);stroke-width:2px;"/>
            </g>
            <g transform="matrix(-0.603929,-0.797038,-0.797038,0.603929,511.435,34.2235)">
                <path d="M-3.985,-8.02C-6.746,-8.02 -8.984,-5.781 -8.984,-3.02C-8.985,-0.259 -6.746,1.98 -3.985,1.979C-1.223,1.98 1.016,-0.259 1.016,-3.02C1.015,-5.781 -1.223,-8.02 -3.985,-8.02" style="fill:rgb(57,181,74);fill-rule:nonzero;"/>
            </g>
            <g transform="matrix(-0.603929,-0.797038,-0.797038,0.603929,511.435,34.2235)">
                <ellipse cx="-3.985" cy="-3.02" rx="5.001" ry="5" style="fill:none;stroke:rgb(57,181,74);stroke-width:2px;"/>
            </g>
            <g transform="matrix(-0.603929,-0.797038,-0.797038,0.603929,532.617,62.1783)">
                <path d="M-3.985,-8.02C-6.746,-8.02 -8.984,-5.781 -8.984,-3.02C-8.985,-0.258 -6.746,1.98 -3.985,1.979C-1.223,1.98 1.016,-0.259 1.015,-3.02C1.015,-5.781 -1.223,-8.02 -3.985,-8.02" style="fill:rgb(57,181,74);fill-rule:nonzero;"/>
            </g>
            <g transform="matrix(-0.603929,-0.797038,-0.797038,0.603929,532.617,62.1783)">
                <circle cx="-3.985" cy="-3.02" r="5" style="fill:none;stroke:rgb(57,181,74);stroke-width:2px;"/>
            </g>
            <g transform="matrix(-0.797038,0.603929,0.603929,0.797038,514.289,86.0645)">
                <path d="M3.02,-8.985C5.782,-8.985 8.02,-6.746 8.02,-3.985C8.021,-1.224 5.782,1.015 3.02,1.014C0.259,1.015 -1.98,-1.224 -1.979,-3.985C-1.979,-6.746 0.259,-8.985 3.02,-8.985" style="fill:rgb(57,181,74);fill-rule:nonzero;"/>
            </g>
            <g transform="matrix(-0.797038,0.603929,0.603929,0.797038,514.289,86.0645)">
                <ellipse cx="3.02" cy="-3.985" rx="5" ry="5" style="fill:none;stroke:rgb(57,181,74);stroke-width:2px;"/>
            </g>
            <g transform="matrix(-0.797038,0.603929,0.603929,0.797038,570.199,43.7003)">
                <path d="M3.02,-8.985C5.782,-8.985 8.02,-6.746 8.021,-3.985C8.021,-1.224 5.782,1.015 3.02,1.014C0.259,1.015 -1.98,-1.224 -1.979,-3.985C-1.979,-6.746 0.259,-8.985 3.02,-8.985" style="fill:rgb(57,181,74);fill-rule:nonzero;"/>
            </g>
            <g transform="matrix(-0.797038,0.603929,0.603929,0.797038,570.199,43.7003)">
                <ellipse cx="3.02" cy="-3.985" rx="5.001" ry="5" style="fill:none;stroke:rgb(57,181,74);stroke-width:2px;"/>
            </g>
            <g transform="matrix(1,0,0,1,474.127,33.3443)">
                <path d="M0,60.372L-73.524,91.904C-78.599,94.081 -84.479,91.731 -86.656,86.655L-118.188,13.132C-120.365,8.056 -118.015,2.177 -112.939,0L-39.415,-31.532C-34.34,-33.709 -28.46,-31.359 -26.283,-26.284L5.249,47.24C7.426,52.316 5.076,58.195 0,60.372Z" style="fill:white;fill-rule:nonzero;stroke:rgb(57,181,74);stroke-width:2px;"/>
            </g>
            <g transform="matrix(-0.928559,-0.371184,-0.371184,0.928559,446.779,80.1705)">
                <path d="M-1.856,-9.643C-4.617,-9.643 -6.856,-7.405 -6.856,-4.643C-6.856,-1.882 -4.618,0.357 -1.856,0.357C0.905,0.357 3.144,-1.882 3.144,-4.643C3.144,-7.404 0.905,-9.643 -1.856,-9.643" style="fill:rgb(57,181,74);fill-rule:nonzero;"/>
            </g>
            <g transform="matrix(-0.928559,-0.371184,-0.371184,0.928559,446.779,80.1705)">
                <circle cx="-1.856" cy="-4.643" r="5" style="fill:none;stroke:rgb(57,181,74);stroke-width:2px;"/>
            </g>
            <g transform="matrix(-0.928559,-0.371184,-0.371184,0.928559,381.642,54.1352)">
                <path d="M-1.856,-9.643C-4.617,-9.643 -6.856,-7.405 -6.856,-4.643C-6.856,-1.882 -4.618,0.357 -1.856,0.357C0.905,0.357 3.144,-1.882 3.144,-4.643C3.144,-7.404 0.905,-9.643 -1.856,-9.643" style="fill:rgb(57,181,74);fill-rule:nonzero;"/>
            </g>
            <g transform="matrix(-0.928559,-0.371184,-0.371184,0.928559,381.642,54.1352)">
                <circle cx="-1.856" cy="-4.643" r="5" style="fill:none;stroke:rgb(57,181,74);stroke-width:2px;"/>
            </g>
            <g transform="matrix(-0.371184,0.928559,0.928559,0.371184,408.087,92.4764)">
                <path d="M4.643,-6.856C7.404,-6.856 9.643,-4.617 9.643,-1.856C9.643,0.905 7.404,3.144 4.643,3.144C1.881,3.144 -0.357,0.905 -0.357,-1.856C-0.357,-4.618 1.882,-6.856 4.643,-6.856" style="fill:rgb(57,181,74);fill-rule:nonzero;"/>
            </g>
            <g transform="matrix(-0.371184,0.928559,0.928559,0.371184,408.087,92.4764)">
                <circle cx="4.643" cy="-1.856" r="5" style="fill:none;stroke:rgb(57,181,74);stroke-width:2px;"/>
            </g>
            <g transform="matrix(-0.371184,0.928559,0.928559,0.371184,434.122,27.3398)">
                <path d="M4.643,-6.856C7.404,-6.856 9.643,-4.617 9.643,-1.856C9.643,0.905 7.404,3.144 4.643,3.144C1.881,3.144 -0.357,0.905 -0.357,-1.856C-0.357,-4.618 1.882,-6.856 4.643,-6.856" style="fill:rgb(57,181,74);fill-rule:nonzero;"/>
            </g>
            <g transform="matrix(-0.371184,0.928559,0.928559,0.371184,434.122,27.3398)">
                <circle cx="4.643" cy="-1.856" r="5" style="fill:none;stroke:rgb(57,181,74);stroke-width:2px;"/>
            </g>
            <g transform="matrix(1,0,0,1,698.678,20.1009)">
                <path d="M0,86.859L-79.094,98.867C-84.554,99.696 -89.652,95.941 -90.481,90.481L-102.489,11.387C-103.318,5.927 -99.564,0.829 -94.103,0L-15.01,-12.008C-9.549,-12.837 -4.451,-9.083 -3.622,-3.622L8.386,75.471C9.215,80.932 5.46,86.03 0,86.859Z" style="fill:white;fill-rule:nonzero;stroke:rgb(57,181,74);stroke-width:2px;"/>
            </g>
            <g transform="matrix(-0.805202,-0.593001,-0.593001,0.805202,675.094,85.8121)">
                <path d="M-2.964,-9.027C-5.725,-9.027 -7.964,-6.789 -7.964,-4.027C-7.965,-1.265 -5.726,0.973 -2.964,0.973C-0.203,0.974 2.035,-1.265 2.036,-4.027C2.036,-6.787 -0.202,-9.026 -2.964,-9.027" style="fill:rgb(57,181,74);fill-rule:nonzero;"/>
            </g>
            <g transform="matrix(-0.805202,-0.593001,-0.593001,0.805202,675.094,85.8121)">
                <circle cx="-2.964" cy="-4.027" r="5" style="fill:none;stroke:rgb(57,181,74);stroke-width:2px;"/>
            </g>
            <g transform="matrix(-0.805202,-0.593001,-0.593001,0.805202,618.609,44.2176)">
                <path d="M-2.964,-9.027C-5.725,-9.027 -7.964,-6.789 -7.964,-4.027C-7.965,-1.265 -5.726,0.973 -2.964,0.973C-0.203,0.974 2.035,-1.265 2.036,-4.027C2.036,-6.787 -0.202,-9.026 -2.964,-9.027" style="fill:rgb(57,181,74);fill-rule:nonzero;"/>
            </g>
            <g transform="matrix(-0.805202,-0.593001,-0.593001,0.805202,618.609,44.2176)">
                <circle cx="-2.964" cy="-4.027" r="5" style="fill:none;stroke:rgb(57,181,74);stroke-width:2px;"/>
            </g>
            <g transform="matrix(-0.805202,-0.593001,-0.593001,0.805202,622.332,68.7373)">
                <path d="M-2.964,-9.027C-5.725,-9.027 -7.964,-6.789 -7.964,-4.027C-7.965,-1.265 -5.726,0.973 -2.964,0.973C-0.203,0.974 2.035,-1.265 2.036,-4.027C2.036,-6.787 -0.202,-9.026 -2.964,-9.027" style="fill:rgb(57,181,74);fill-rule:nonzero;"/>
            </g>
            <g transform="matrix(-0.805202,-0.593001,-0.593001,0.805202,622.332,68.7373)">
                <circle cx="-2.964" cy="-4.027" r="5" style="fill:none;stroke:rgb(57,181,74);stroke-width:2px;"/>
            </g>
            <g transform="matrix(-0.593001,0.805202,0.805202,0.593001,635.604,90.2881)">
                <path d="M4.027,-7.965C6.789,-7.964 9.027,-5.725 9.027,-2.965C9.026,-0.203 6.788,2.036 4.027,2.035C1.265,2.035 -0.974,-0.203 -0.973,-2.965C-0.973,-5.727 1.266,-7.965 4.027,-7.965" style="fill:rgb(57,181,74);fill-rule:nonzero;"/>
            </g>
            <g transform="matrix(-0.593001,0.805202,0.805202,0.593001,635.604,90.2881)">
                <circle cx="4.027" cy="-2.965" r="5" style="fill:none;stroke:rgb(57,181,74);stroke-width:2px;"/>
            </g>
            <g transform="matrix(-0.593001,0.805202,0.805202,0.593001,677.198,33.8035)">
                <path d="M4.027,-7.965C6.789,-7.964 9.027,-5.725 9.027,-2.965C9.026,-0.203 6.788,2.036 4.027,2.035C1.265,2.035 -0.974,-0.203 -0.973,-2.965C-0.973,-5.727 1.266,-7.965 4.027,-7.965" style="fill:rgb(57,181,74);fill-rule:nonzero;"/>
            </g>
            <g transform="matrix(-0.593001,0.805202,0.805202,0.593001,677.198,33.8035)">
                <circle cx="4.027" cy="-2.965" r="5" style="fill:none;stroke:rgb(57,181,74);stroke-width:2px;"/>
            </g>
            <g transform="matrix(-0.805202,-0.593001,-0.593001,0.805202,671.371,61.2923)">
                <path d="M-2.964,-9.027C-5.725,-9.027 -7.964,-6.789 -7.964,-4.027C-7.965,-1.265 -5.726,0.973 -2.964,0.973C-0.203,0.974 2.035,-1.265 2.036,-4.027C2.036,-6.787 -0.202,-9.026 -2.964,-9.027" style="fill:rgb(57,181,74);fill-rule:nonzero;"/>
            </g>
            <g transform="matrix(-0.805202,-0.593001,-0.593001,0.805202,671.371,61.2923)">
                <circle cx="-2.964" cy="-4.027" r="5" style="fill:none;stroke:rgb(57,181,74);stroke-width:2px;"/>
            </g>
            <g transform="matrix(14,0,0,14,88.8975,155.724)">
                <path d="M0.242,-0.562L0.242,-0.416L0.516,-0.416L0.516,-0.275L0.242,-0.275L0.242,-0L0.073,-0L0.073,-0.708L0.539,-0.708L0.539,-0.562L0.242,-0.562Z" style="fill-rule:nonzero;"/>
            </g>
            <g transform="matrix(14,0,0,14,96.9055,155.724)">
                <path d="M0.553,-0L0.498,-0.139L0.224,-0.139L0.172,-0L-0.014,-0L0.283,-0.708L0.449,-0.708L0.743,-0L0.553,-0ZM0.363,-0.519L0.273,-0.276L0.451,-0.276L0.363,-0.519Z" style="fill-rule:nonzero;"/>
            </g>
            <g transform="matrix(14,0,0,14,107.811,155.724)">
                <rect x="0.073" y="-0.708" width="0.172" height="0.708" style="fill-rule:nonzero;"/>
            </g>
            <g transform="matrix(14,0,0,14,112.963,155.724)">
                <path d="M0.073,-0L0.073,-0.708L0.245,-0.708L0.245,-0.149L0.519,-0.149L0.519,-0L0.073,-0Z" style="fill-rule:nonzero;"/>
            </g>
            <g transform="matrix(14,0,0,14,120.691,155.724)">
                <path d="M0.673,-0.267C0.673,-0.224 0.666,-0.186 0.652,-0.151C0.637,-0.116 0.617,-0.086 0.59,-0.061C0.563,-0.035 0.531,-0.016 0.494,-0.002C0.456,0.012 0.414,0.019 0.368,0.019C0.321,0.019 0.279,0.012 0.242,-0.002C0.205,-0.016 0.173,-0.035 0.147,-0.061C0.121,-0.086 0.101,-0.116 0.087,-0.151C0.073,-0.186 0.066,-0.224 0.066,-0.267L0.066,-0.708L0.236,-0.708L0.236,-0.281C0.236,-0.262 0.239,-0.243 0.244,-0.226C0.249,-0.209 0.256,-0.193 0.267,-0.18C0.277,-0.166 0.291,-0.155 0.308,-0.147C0.325,-0.139 0.345,-0.135 0.369,-0.135C0.393,-0.135 0.413,-0.139 0.431,-0.147C0.448,-0.155 0.461,-0.166 0.472,-0.18C0.483,-0.193 0.49,-0.209 0.495,-0.226C0.5,-0.243 0.502,-0.262 0.502,-0.281L0.502,-0.708L0.673,-0.708L0.673,-0.267Z" style="fill-rule:nonzero;"/>
            </g>
            <g transform="matrix(14,0,0,14,131.724,155.724)">
                <path d="M0.452,-0L0.299,-0.281L0.241,-0.281L0.241,-0L0.073,-0L0.073,-0.708L0.343,-0.708C0.377,-0.708 0.41,-0.705 0.443,-0.698C0.475,-0.691 0.504,-0.679 0.53,-0.662C0.555,-0.645 0.576,-0.623 0.591,-0.596C0.606,-0.569 0.614,-0.535 0.614,-0.494C0.614,-0.446 0.601,-0.406 0.575,-0.373C0.549,-0.34 0.513,-0.317 0.467,-0.303L0.652,-0L0.452,-0ZM0.445,-0.491C0.445,-0.508 0.442,-0.521 0.435,-0.532C0.428,-0.542 0.419,-0.55 0.408,-0.556C0.397,-0.561 0.384,-0.565 0.371,-0.567C0.357,-0.569 0.344,-0.57 0.331,-0.57L0.24,-0.57L0.24,-0.405L0.321,-0.405C0.335,-0.405 0.349,-0.406 0.364,-0.409C0.379,-0.411 0.392,-0.415 0.404,-0.421C0.416,-0.427 0.426,-0.436 0.434,-0.447C0.441,-0.458 0.445,-0.473 0.445,-0.491Z" style="fill-rule:nonzero;"/>
            </g>
            <g transform="matrix(14,0,0,14,141.706,155.724)">
                <path d="M0.073,-0L0.073,-0.708L0.549,-0.708L0.549,-0.563L0.238,-0.563L0.238,-0.43L0.532,-0.43L0.532,-0.293L0.238,-0.293L0.238,-0.146L0.567,-0.146L0.567,-0L0.073,-0Z" style="fill-rule:nonzero;"/>
            </g>
            <g transform="matrix(14,0,0,14,260.327,155.724)">
                <path d="M0.523,-0L0.238,-0.463L0.235,-0.463L0.239,-0L0.073,-0L0.073,-0.708L0.268,-0.708L0.552,-0.246L0.555,-0.246L0.551,-0.708L0.717,-0.708L0.717,-0L0.523,-0Z" style="fill-rule:nonzero;"/>
            </g>
            <g transform="matrix(14,0,0,14,272.087,155.724)">
                <path d="M0.073,-0L0.073,-0.708L0.549,-0.708L0.549,-0.563L0.238,-0.563L0.238,-0.43L0.532,-0.43L0.532,-0.293L0.238,-0.293L0.238,-0.146L0.567,-0.146L0.567,-0L0.073,-0Z" style="fill-rule:nonzero;"/>
            </g>
            <g transform="matrix(14,0,0,14,281.285,155.724)">
                <path d="M0.673,-0.267C0.673,-0.224 0.666,-0.186 0.652,-0.151C0.637,-0.116 0.617,-0.086 0.59,-0.061C0.563,-0.035 0.531,-0.016 0.494,-0.002C0.456,0.012 0.414,0.019 0.368,0.019C0.321,0.019 0.279,0.012 0.242,-0.002C0.205,-0.016 0.173,-0.035 0.147,-0.061C0.121,-0.086 0.101,-0.116 0.087,-0.151C0.073,-0.186 0.066,-0.224 0.066,-0.267L0.066,-0.708L0.236,-0.708L0.236,-0.281C0.236,-0.262 0.239,-0.243 0.244,-0.226C0.249,-0.209 0.256,-0.193 0.267,-0.18C0.277,-0.166 0.291,-0.155 0.308,-0.147C0.325,-0.139 0.345,-0.135 0.369,-0.135C0.393,-0.135 0.413,-0.139 0.431,-0.147C0.448,-0.155 0.461,-0.166 0.472,-0.18C0.483,-0.193 0.49,-0.209 0.495,-0.226C0.5,-0.243 0.502,-0.262 0.502,-0.281L0.502,-0.708L0.673,-0.708L0.673,-0.267Z" style="fill-rule:nonzero;"/>
            </g>
            <g transform="matrix(14,0,0,14,292.317,155.724)">
                <path d="M0.376,-0.562L0.376,-0L0.205,-0L0.205,-0.562L0.005,-0.562L0.005,-0.708L0.576,-0.708L0.576,-0.562L0.376,-0.562Z" style="fill-rule:nonzero;"/>
            </g>
            <g transform="matrix(14,0,0,14,301.151,155.724)">
                <path d="M0.452,-0L0.299,-0.281L0.241,-0.281L0.241,-0L0.073,-0L0.073,-0.708L0.343,-0.708C0.377,-0.708 0.41,-0.705 0.443,-0.698C0.475,-0.691 0.504,-0.679 0.53,-0.662C0.555,-0.645 0.576,-0.623 0.591,-0.596C0.606,-0.569 0.614,-0.535 0.614,-0.494C0.614,-0.446 0.601,-0.406 0.575,-0.373C0.549,-0.34 0.513,-0.317 0.467,-0.303L0.652,-0L0.452,-0ZM0.445,-0.491C0.445,-0.508 0.442,-0.521 0.435,-0.532C0.428,-0.542 0.419,-0.55 0.408,-0.556C0.397,-0.561 0.384,-0.565 0.371,-0.567C0.357,-0.569 0.344,-0.57 0.331,-0.57L0.24,-0.57L0.24,-0.405L0.321,-0.405C0.335,-0.405 0.349,-0.406 0.364,-0.409C0.379,-0.411 0.392,-0.415 0.404,-0.421C0.416,-0.427 0.426,-0.436 0.434,-0.447C0.441,-0.458 0.445,-0.473 0.445,-0.491Z" style="fill-rule:nonzero;"/>
            </g>
            <g transform="matrix(14,0,0,14,311.133,155.724)">
                <path d="M0.553,-0L0.498,-0.139L0.224,-0.139L0.172,-0L-0.014,-0L0.283,-0.708L0.449,-0.708L0.743,-0L0.553,-0ZM0.363,-0.519L0.273,-0.276L0.451,-0.276L0.363,-0.519Z" style="fill-rule:nonzero;"/>
            </g>
            <g transform="matrix(14,0,0,14,322.039,155.724)">
                <path d="M0.073,-0L0.073,-0.708L0.245,-0.708L0.245,-0.149L0.519,-0.149L0.519,-0L0.073,-0Z" style="fill-rule:nonzero;"/>
            </g>
            <g transform="matrix(14,0,0,14,497.221,155.724)">
                <path d="M0.447,-0.524C0.432,-0.543 0.413,-0.558 0.39,-0.569C0.366,-0.58 0.343,-0.585 0.321,-0.585C0.31,-0.585 0.298,-0.584 0.287,-0.582C0.275,-0.58 0.264,-0.576 0.255,-0.571C0.246,-0.565 0.238,-0.558 0.232,-0.549C0.225,-0.54 0.222,-0.528 0.222,-0.514C0.222,-0.502 0.225,-0.492 0.23,-0.484C0.235,-0.476 0.242,-0.469 0.252,-0.463C0.261,-0.457 0.273,-0.452 0.286,-0.447C0.299,-0.442 0.314,-0.436 0.331,-0.431C0.355,-0.423 0.38,-0.414 0.406,-0.405C0.432,-0.395 0.456,-0.382 0.477,-0.366C0.498,-0.35 0.516,-0.33 0.53,-0.307C0.544,-0.283 0.551,-0.253 0.551,-0.218C0.551,-0.177 0.544,-0.142 0.529,-0.113C0.514,-0.083 0.493,-0.058 0.468,-0.039C0.443,-0.02 0.414,-0.005 0.381,0.004C0.348,0.013 0.315,0.018 0.28,0.018C0.229,0.018 0.18,0.009 0.133,-0.009C0.086,-0.026 0.046,-0.051 0.015,-0.084L0.127,-0.198C0.144,-0.177 0.167,-0.159 0.196,-0.145C0.224,-0.13 0.252,-0.123 0.28,-0.123C0.293,-0.123 0.305,-0.124 0.317,-0.127C0.329,-0.13 0.339,-0.134 0.349,-0.14C0.358,-0.146 0.365,-0.154 0.37,-0.164C0.375,-0.174 0.378,-0.186 0.378,-0.2C0.378,-0.213 0.375,-0.225 0.368,-0.234C0.361,-0.243 0.352,-0.252 0.34,-0.26C0.327,-0.267 0.312,-0.274 0.294,-0.281C0.275,-0.287 0.254,-0.294 0.231,-0.301C0.208,-0.308 0.186,-0.317 0.165,-0.327C0.143,-0.337 0.124,-0.35 0.107,-0.366C0.09,-0.381 0.076,-0.4 0.066,-0.423C0.055,-0.445 0.05,-0.472 0.05,-0.504C0.05,-0.543 0.058,-0.577 0.074,-0.605C0.09,-0.633 0.111,-0.656 0.137,-0.674C0.163,-0.692 0.192,-0.705 0.225,-0.714C0.258,-0.722 0.291,-0.726 0.324,-0.726C0.364,-0.726 0.405,-0.719 0.447,-0.704C0.488,-0.689 0.525,-0.668 0.556,-0.639L0.447,-0.524Z" style="fill-rule:nonzero;"/>
            </g>
            <g transform="matrix(14,0,0,14,506.195,155.724)">
                <path d="M0.673,-0.267C0.673,-0.224 0.666,-0.186 0.652,-0.151C0.637,-0.116 0.617,-0.086 0.59,-0.061C0.563,-0.035 0.531,-0.016 0.494,-0.002C0.456,0.012 0.414,0.019 0.368,0.019C0.321,0.019 0.279,0.012 0.242,-0.002C0.205,-0.016 0.173,-0.035 0.147,-0.061C0.121,-0.086 0.101,-0.116 0.087,-0.151C0.073,-0.186 0.066,-0.224 0.066,-0.267L0.066,-0.708L0.236,-0.708L0.236,-0.281C0.236,-0.262 0.239,-0.243 0.244,-0.226C0.249,-0.209 0.256,-0.193 0.267,-0.18C0.277,-0.166 0.291,-0.155 0.308,-0.147C0.325,-0.139 0.345,-0.135 0.369,-0.135C0.393,-0.135 0.413,-0.139 0.431,-0.147C0.448,-0.155 0.461,-0.166 0.472,-0.18C0.483,-0.193 0.49,-0.209 0.495,-0.226C0.5,-0.243 0.502,-0.262 0.502,-0.281L0.502,-0.708L0.673,-0.708L0.673,-0.267Z" style="fill-rule:nonzero;"/>
            </g>
            <g transform="matrix(14,0,0,14,517.227,155.724)">
                <path d="M0.696,-0.098C0.665,-0.062 0.626,-0.033 0.58,-0.013C0.534,0.008 0.481,0.019 0.421,0.019C0.366,0.019 0.316,0.01 0.27,-0.008C0.223,-0.026 0.183,-0.052 0.149,-0.085C0.115,-0.118 0.088,-0.157 0.069,-0.203C0.05,-0.249 0.04,-0.3 0.04,-0.355C0.04,-0.412 0.05,-0.463 0.07,-0.509C0.089,-0.555 0.116,-0.594 0.151,-0.627C0.186,-0.659 0.226,-0.684 0.273,-0.701C0.32,-0.718 0.37,-0.727 0.424,-0.727C0.474,-0.727 0.523,-0.718 0.572,-0.701C0.62,-0.683 0.659,-0.657 0.689,-0.623L0.573,-0.507C0.557,-0.529 0.536,-0.545 0.51,-0.556C0.484,-0.567 0.457,-0.572 0.43,-0.572C0.4,-0.572 0.373,-0.567 0.348,-0.556C0.323,-0.545 0.301,-0.529 0.283,-0.51C0.265,-0.491 0.251,-0.468 0.241,-0.442C0.231,-0.415 0.226,-0.386 0.226,-0.355C0.226,-0.323 0.231,-0.294 0.241,-0.267C0.251,-0.24 0.265,-0.218 0.283,-0.199C0.3,-0.18 0.321,-0.165 0.346,-0.154C0.371,-0.143 0.398,-0.138 0.427,-0.138C0.461,-0.138 0.491,-0.145 0.516,-0.158C0.541,-0.171 0.562,-0.189 0.577,-0.21L0.696,-0.098Z" style="fill-rule:nonzero;"/>
            </g>
            <g transform="matrix(14,0,0,14,527.503,155.724)">
                <path d="M0.696,-0.098C0.665,-0.062 0.626,-0.033 0.58,-0.013C0.534,0.008 0.481,0.019 0.421,0.019C0.366,0.019 0.316,0.01 0.27,-0.008C0.223,-0.026 0.183,-0.052 0.149,-0.085C0.115,-0.118 0.088,-0.157 0.069,-0.203C0.05,-0.249 0.04,-0.3 0.04,-0.355C0.04,-0.412 0.05,-0.463 0.07,-0.509C0.089,-0.555 0.116,-0.594 0.151,-0.627C0.186,-0.659 0.226,-0.684 0.273,-0.701C0.32,-0.718 0.37,-0.727 0.424,-0.727C0.474,-0.727 0.523,-0.718 0.572,-0.701C0.62,-0.683 0.659,-0.657 0.689,-0.623L0.573,-0.507C0.557,-0.529 0.536,-0.545 0.51,-0.556C0.484,-0.567 0.457,-0.572 0.43,-0.572C0.4,-0.572 0.373,-0.567 0.348,-0.556C0.323,-0.545 0.301,-0.529 0.283,-0.51C0.265,-0.491 0.251,-0.468 0.241,-0.442C0.231,-0.415 0.226,-0.386 0.226,-0.355C0.226,-0.323 0.231,-0.294 0.241,-0.267C0.251,-0.24 0.265,-0.218 0.283,-0.199C0.3,-0.18 0.321,-0.165 0.346,-0.154C0.371,-0.143 0.398,-0.138 0.427,-0.138C0.461,-0.138 0.491,-0.145 0.516,-0.158C0.541,-0.171 0.562,-0.189 0.577,-0.21L0.696,-0.098Z" style="fill-rule:nonzero;"/>
            </g>
            <g transform="matrix(14,0,0,14,537.947,155.724)">
                <path d="M0.073,-0L0.073,-0.708L0.549,-0.708L0.549,-0.563L0.238,-0.563L0.238,-0.43L0.532,-0.43L0.532,-0.293L0.238,-0.293L0.238,-0.146L0.567,-0.146L0.567,-0L0.073,-0Z" style="fill-rule:nonzero;"/>
            </g>
            <g transform="matrix(14,0,0,14,547.144,155.724)">
                <path d="M0.447,-0.524C0.432,-0.543 0.413,-0.558 0.39,-0.569C0.366,-0.58 0.343,-0.585 0.321,-0.585C0.31,-0.585 0.298,-0.584 0.287,-0.582C0.275,-0.58 0.264,-0.576 0.255,-0.571C0.246,-0.565 0.238,-0.558 0.232,-0.549C0.225,-0.54 0.222,-0.528 0.222,-0.514C0.222,-0.502 0.225,-0.492 0.23,-0.484C0.235,-0.476 0.242,-0.469 0.252,-0.463C0.261,-0.457 0.273,-0.452 0.286,-0.447C0.299,-0.442 0.314,-0.436 0.331,-0.431C0.355,-0.423 0.38,-0.414 0.406,-0.405C0.432,-0.395 0.456,-0.382 0.477,-0.366C0.498,-0.35 0.516,-0.33 0.53,-0.307C0.544,-0.283 0.551,-0.253 0.551,-0.218C0.551,-0.177 0.544,-0.142 0.529,-0.113C0.514,-0.083 0.493,-0.058 0.468,-0.039C0.443,-0.02 0.414,-0.005 0.381,0.004C0.348,0.013 0.315,0.018 0.28,0.018C0.229,0.018 0.18,0.009 0.133,-0.009C0.086,-0.026 0.046,-0.051 0.015,-0.084L0.127,-0.198C0.144,-0.177 0.167,-0.159 0.196,-0.145C0.224,-0.13 0.252,-0.123 0.28,-0.123C0.293,-0.123 0.305,-0.124 0.317,-0.127C0.329,-0.13 0.339,-0.134 0.349,-0.14C0.358,-0.146 0.365,-0.154 0.37,-0.164C0.375,-0.174 0.378,-0.186 0.378,-0.2C0.378,-0.213 0.375,-0.225 0.368,-0.234C0.361,-0.243 0.352,-0.252 0.34,-0.26C0.327,-0.267 0.312,-0.274 0.294,-0.281C0.275,-0.287 0.254,-0.294 0.231,-0.301C0.208,-0.308 0.186,-0.317 0.165,-0.327C0.143,-0.337 0.124,-0.35 0.107,-0.366C0.09,-0.381 0.076,-0.4 0.066,-0.423C0.055,-0.445 0.05,-0.472 0.05,-0.504C0.05,-0.543 0.058,-0.577 0.074,-0.605C0.09,-0.633 0.111,-0.656 0.137,-0.674C0.163,-0.692 0.192,-0.705 0.225,-0.714C0.258,-0.722 0.291,-0.726 0.324,-0.726C0.364,-0.726 0.405,-0.719 0.447,-0.704C0.488,-0.689 0.525,-0.668 0.556,-0.639L0.447,-0.524Z" style="fill-rule:nonzero;"/>
            </g>
            <g transform="matrix(14,0,0,14,556.118,155.724)">
                <path d="M0.447,-0.524C0.432,-0.543 0.413,-0.558 0.39,-0.569C0.366,-0.58 0.343,-0.585 0.321,-0.585C0.31,-0.585 0.298,-0.584 0.287,-0.582C0.275,-0.58 0.264,-0.576 0.255,-0.571C0.246,-0.565 0.238,-0.558 0.232,-0.549C0.225,-0.54 0.222,-0.528 0.222,-0.514C0.222,-0.502 0.225,-0.492 0.23,-0.484C0.235,-0.476 0.242,-0.469 0.252,-0.463C0.261,-0.457 0.273,-0.452 0.286,-0.447C0.299,-0.442 0.314,-0.436 0.331,-0.431C0.355,-0.423 0.38,-0.414 0.406,-0.405C0.432,-0.395 0.456,-0.382 0.477,-0.366C0.498,-0.35 0.516,-0.33 0.53,-0.307C0.544,-0.283 0.551,-0.253 0.551,-0.218C0.551,-0.177 0.544,-0.142 0.529,-0.113C0.514,-0.083 0.493,-0.058 0.468,-0.039C0.443,-0.02 0.414,-0.005 0.381,0.004C0.348,0.013 0.315,0.018 0.28,0.018C0.229,0.018 0.18,0.009 0.133,-0.009C0.086,-0.026 0.046,-0.051 0.015,-0.084L0.127,-0.198C0.144,-0.177 0.167,-0.159 0.196,-0.145C0.224,-0.13 0.252,-0.123 0.28,-0.123C0.293,-0.123 0.305,-0.124 0.317,-0.127C0.329,-0.13 0.339,-0.134 0.349,-0.14C0.358,-0.146 0.365,-0.154 0.37,-0.164C0.375,-0.174 0.378,-0.186 0.378,-0.2C0.378,-0.213 0.375,-0.225 0.368,-0.234C0.361,-0.243 0.352,-0.252 0.34,-0.26C0.327,-0.267 0.312,-0.274 0.294,-0.281C0.275,-0.287 0.254,-0.294 0.231,-0.301C0.208,-0.308 0.186,-0.317 0.165,-0.327C0.143,-0.337 0.124,-0.35 0.107,-0.366C0.09,-0.381 0.076,-0.4 0.066,-0.423C0.055,-0.445 0.05,-0.472 0.05,-0.504C0.05,-0.543 0.058,-0.577 0.074,-0.605C0.09,-0.633 0.111,-0.656 0.137,-0.674C0.163,-0.692 0.192,-0.705 0.225,-0.714C0.258,-0.722 0.291,-0.726 0.324,-0.726C0.364,-0.726 0.405,-0.719 0.447,-0.704C0.488,-0.689 0.525,-0.668 0.556,-0.639L0.447,-0.524Z" style="fill-rule:nonzero;"/>
            </g>
            <g transform="matrix(1,0,0,1,7.4001,133.774)">
                <path d="M0,0L225,0" style="fill:none;fill-rule:nonzero;stroke:black;stroke-width:1px;stroke-linejoin:miter;"/>
            </g>
            <g transform="matrix(1,0,0,1,360.153,133.774)">
                <path d="M0,0L342,0" style="fill:none;fill-rule:nonzero;stroke:black;stroke-width:1px;stroke-linejoin:miter;"/>
            </g>
            <g transform="matrix(1,0,0,1,250.046,133.774)">
                <path d="M0,0L90,0" style="fill:none;fill-rule:nonzero;stroke:black;stroke-width:1px;stroke-linejoin:miter;"/>
            </g>
        </g>
    </g>
</svg>
