<?xml version="1.0" encoding="UTF-8" standalone="no"?>
<!DOCTYPE svg PUBLIC "-//W3C//DTD SVG 1.1//EN" "http://www.w3.org/Graphics/SVG/1.1/DTD/svg11.dtd">
<svg width="100%" height="100%" viewBox="0 0 1823 1734" version="1.1" xmlns="http://www.w3.org/2000/svg" xmlns:xlink="http://www.w3.org/1999/xlink" xml:space="preserve" xmlns:serif="http://www.serif.com/" style="fill-rule:evenodd;clip-rule:evenodd;stroke-linecap:round;stroke-linejoin:round;">
    <rect id="Artboard1" x="0" y="0" width="1822.9" height="1733.26" style="fill:none;"/>
    <clipPath id="_clip1">
        <rect id="Artboard11" serif:id="Artboard1" x="0" y="0" width="1822.9" height="1733.26"/>
    </clipPath>
    <g clip-path="url(#_clip1)">
        <g id="Arrows" transform="matrix(4.16667,0,0,4.16667,0,0)">
            <g transform="matrix(1,0,0,1,36.5,118.056)">
                <path d="M0,269.93L-18,269.93L-18,0L-7.061,0" style="fill:none;fill-rule:nonzero;stroke:black;stroke-width:1px;"/>
            </g>
            <g transform="matrix(-0.925711,0.378231,0.378231,0.925711,26.9207,119.938)">
                <path d="M-9.58,1.881L1.168,1.881L-2.555,-0.989L-1.907,-5.645L-9.58,1.881Z" style="fill-rule:nonzero;"/>
            </g>
            <g transform="matrix(1,0,0,1,216.5,387.986)">
                <path d="M0,0L28.939,0" style="fill:none;fill-rule:nonzero;stroke:black;stroke-width:1px;stroke-linecap:butt;stroke-linejoin:miter;stroke-miterlimit:10;"/>
            </g>
            <g transform="matrix(-0.925711,0.378231,0.378231,0.925711,242.921,389.869)">
                <path d="M-9.58,1.881L1.168,1.881L-2.555,-0.989L-1.907,-5.645L-9.58,1.881Z" style="fill-rule:nonzero;"/>
            </g>
            <g transform="matrix(1,0,0,1,216.5,297.986)">
                <path d="M0,0L28.939,0" style="fill:none;fill-rule:nonzero;stroke:black;stroke-width:1px;stroke-linecap:butt;stroke-linejoin:miter;stroke-miterlimit:10;"/>
            </g>
            <g transform="matrix(-0.925711,0.378231,0.378231,0.925711,242.921,299.869)">
                <path d="M-9.58,1.881L1.168,1.881L-2.555,-0.989L-1.907,-5.645L-9.58,1.881Z" style="fill-rule:nonzero;"/>
            </g>
            <g transform="matrix(0,1,1,0,140.97,339.456)">
                <path d="M-14.47,-14.47L14.47,-14.47" style="fill:none;fill-rule:nonzero;stroke:black;stroke-width:1px;"/>
            </g>
            <g transform="matrix(-0.378231,-0.925711,-0.925711,0.378231,131.104,354.13)">
                <path d="M-4.606,6.856L6.142,6.856L2.419,3.986L3.067,-0.67L-4.606,6.856Z" style="fill-rule:nonzero;"/>
            </g>
            <g transform="matrix(0,1,1,0,140.97,249.456)">
                <path d="M-14.47,-14.47L14.47,-14.47" style="fill:none;fill-rule:nonzero;stroke:black;stroke-width:1px;"/>
            </g>
            <g transform="matrix(-0.378231,-0.925711,-0.925711,0.378231,131.104,264.13)">
                <path d="M-4.606,6.856L6.142,6.856L2.419,3.986L3.067,-0.67L-4.606,6.856Z" style="fill-rule:nonzero;"/>
            </g>
            <g transform="matrix(0,1,1,0,140.47,159.956)">
                <path d="M-13.97,-13.97L13.97,-13.97" style="fill:none;fill-rule:nonzero;stroke:black;stroke-width:1px;"/>
            </g>
            <g transform="matrix(-0.378231,-0.925711,-0.925711,0.378231,131.104,174.13)">
                <path d="M-4.606,6.856L6.142,6.856L2.419,3.986L3.067,-0.67L-4.606,6.856Z" style="fill-rule:nonzero;"/>
            </g>
            <g transform="matrix(0,1,1,0,140.97,69.4557)">
                <path d="M-14.47,-14.47L14.47,-14.47" style="fill:none;fill-rule:nonzero;stroke:black;stroke-width:1px;"/>
            </g>
            <g transform="matrix(-0.378231,-0.925711,-0.925711,0.378231,131.104,84.1297)">
                <path d="M-4.606,6.856L6.142,6.856L2.419,3.986L3.067,-0.67L-4.606,6.856Z" style="fill-rule:nonzero;"/>
            </g>
            <g transform="matrix(1.46958e-17,-0.24,0.24,1.46958e-17,-132.006,565.097)">
                <g transform="matrix(66.6667,0,0,66.6667,1172.02,609.427)">
                    <path d="M0.358,-0L0.286,-0L0.286,-0.619L0.158,-0.51L0.114,-0.56L0.294,-0.708L0.358,-0.708L0.358,-0Z" style="fill-rule:nonzero;"/>
                </g>
                <g transform="matrix(66.6667,0,0,66.6667,1227.35,609.427)">
                    <path d="M0.166,-0L0.094,-0L0.094,-0.708L0.302,-0.708C0.337,-0.708 0.369,-0.705 0.399,-0.698C0.428,-0.691 0.454,-0.681 0.476,-0.666C0.497,-0.651 0.514,-0.631 0.526,-0.607C0.538,-0.583 0.544,-0.554 0.544,-0.519C0.544,-0.493 0.539,-0.469 0.53,-0.448C0.521,-0.427 0.508,-0.408 0.492,-0.393C0.476,-0.377 0.457,-0.364 0.435,-0.355C0.413,-0.346 0.389,-0.34 0.363,-0.337L0.57,-0L0.482,-0L0.286,-0.331L0.166,-0.331L0.166,-0ZM0.166,-0.393L0.291,-0.393C0.349,-0.393 0.394,-0.404 0.425,-0.425C0.456,-0.446 0.472,-0.477 0.472,-0.519C0.472,-0.542 0.468,-0.562 0.459,-0.578C0.45,-0.594 0.438,-0.607 0.423,-0.617C0.408,-0.627 0.389,-0.634 0.367,-0.639C0.345,-0.644 0.321,-0.646 0.294,-0.646L0.166,-0.646L0.166,-0.393Z" style="fill-rule:nonzero;"/>
                </g>
                <g transform="matrix(66.6667,0,0,66.6667,1266.48,609.427)">
                    <path d="M0.555,-0.234C0.555,-0.199 0.549,-0.166 0.537,-0.136C0.524,-0.106 0.507,-0.08 0.485,-0.058C0.463,-0.036 0.437,-0.019 0.406,-0.007C0.375,0.006 0.342,0.012 0.305,0.012C0.269,0.012 0.236,0.006 0.205,-0.007C0.174,-0.019 0.148,-0.036 0.126,-0.058C0.104,-0.08 0.087,-0.106 0.075,-0.136C0.062,-0.166 0.056,-0.199 0.056,-0.234C0.056,-0.269 0.062,-0.302 0.075,-0.332C0.087,-0.362 0.104,-0.388 0.126,-0.41C0.148,-0.432 0.174,-0.449 0.205,-0.462C0.236,-0.474 0.269,-0.48 0.305,-0.48C0.342,-0.48 0.375,-0.474 0.406,-0.462C0.437,-0.449 0.463,-0.432 0.485,-0.41C0.507,-0.388 0.524,-0.362 0.537,-0.332C0.549,-0.302 0.555,-0.269 0.555,-0.234ZM0.483,-0.234C0.483,-0.26 0.479,-0.285 0.471,-0.308C0.462,-0.331 0.45,-0.351 0.435,-0.368C0.42,-0.385 0.401,-0.398 0.379,-0.408C0.357,-0.418 0.332,-0.423 0.305,-0.423C0.278,-0.423 0.253,-0.418 0.232,-0.408C0.21,-0.398 0.191,-0.385 0.176,-0.368C0.161,-0.351 0.149,-0.331 0.141,-0.308C0.132,-0.285 0.128,-0.26 0.128,-0.234C0.128,-0.208 0.132,-0.184 0.141,-0.161C0.149,-0.137 0.161,-0.118 0.176,-0.101C0.191,-0.084 0.21,-0.07 0.232,-0.061C0.253,-0.051 0.278,-0.046 0.305,-0.046C0.332,-0.046 0.357,-0.051 0.379,-0.061C0.401,-0.07 0.42,-0.084 0.435,-0.101C0.45,-0.118 0.462,-0.137 0.471,-0.161C0.479,-0.184 0.483,-0.208 0.483,-0.234Z" style="fill-rule:nonzero;"/>
                </g>
                <g transform="matrix(66.6667,0,0,66.6667,1307.22,609.427)">
                    <path d="M0.43,-0C0.429,-0.013 0.428,-0.027 0.427,-0.042C0.426,-0.057 0.426,-0.07 0.426,-0.08L0.424,-0.08C0.411,-0.053 0.389,-0.031 0.359,-0.014C0.329,0.004 0.297,0.012 0.264,0.012C0.205,0.012 0.16,-0.006 0.131,-0.041C0.101,-0.076 0.086,-0.123 0.086,-0.181L0.086,-0.468L0.154,-0.468L0.154,-0.209C0.154,-0.184 0.156,-0.162 0.16,-0.142C0.164,-0.122 0.171,-0.105 0.181,-0.091C0.19,-0.076 0.203,-0.065 0.22,-0.057C0.236,-0.049 0.256,-0.045 0.281,-0.045C0.299,-0.045 0.317,-0.049 0.334,-0.056C0.35,-0.063 0.366,-0.075 0.379,-0.09C0.392,-0.105 0.403,-0.124 0.411,-0.147C0.419,-0.169 0.423,-0.197 0.423,-0.228L0.423,-0.468L0.491,-0.468L0.491,-0.103C0.491,-0.09 0.491,-0.074 0.492,-0.054C0.493,-0.034 0.494,-0.016 0.495,-0L0.43,-0Z" style="fill-rule:nonzero;"/>
                </g>
                <g transform="matrix(66.6667,0,0,66.6667,1345.95,609.427)">
                    <path d="M0.151,-0.468C0.152,-0.455 0.153,-0.441 0.154,-0.426C0.155,-0.411 0.155,-0.398 0.155,-0.388L0.157,-0.388C0.17,-0.415 0.192,-0.438 0.222,-0.455C0.252,-0.471 0.284,-0.48 0.317,-0.48C0.376,-0.48 0.421,-0.462 0.451,-0.427C0.48,-0.392 0.495,-0.345 0.495,-0.287L0.495,-0L0.427,-0L0.427,-0.259C0.427,-0.284 0.425,-0.306 0.421,-0.326C0.417,-0.346 0.41,-0.363 0.401,-0.378C0.391,-0.392 0.378,-0.403 0.362,-0.411C0.345,-0.419 0.325,-0.423 0.3,-0.423C0.282,-0.423 0.265,-0.419 0.248,-0.412C0.231,-0.405 0.215,-0.394 0.202,-0.379C0.189,-0.364 0.178,-0.345 0.17,-0.322C0.162,-0.299 0.158,-0.271 0.158,-0.24L0.158,-0L0.09,-0L0.09,-0.365C0.09,-0.378 0.09,-0.394 0.089,-0.414C0.088,-0.434 0.087,-0.452 0.086,-0.468L0.151,-0.468Z" style="fill-rule:nonzero;"/>
                </g>
                <g transform="matrix(66.6667,0,0,66.6667,1384.68,609.427)">
                    <path d="M0.475,-0.079C0.455,-0.049 0.429,-0.026 0.397,-0.011C0.365,0.004 0.332,0.012 0.298,0.012C0.261,0.012 0.228,0.006 0.199,-0.007C0.169,-0.02 0.143,-0.037 0.123,-0.059C0.101,-0.081 0.085,-0.107 0.074,-0.137C0.062,-0.167 0.056,-0.199 0.056,-0.234C0.056,-0.269 0.062,-0.301 0.074,-0.331C0.085,-0.361 0.101,-0.387 0.123,-0.409C0.143,-0.431 0.169,-0.448 0.199,-0.461C0.228,-0.474 0.261,-0.48 0.298,-0.48C0.332,-0.48 0.365,-0.472 0.397,-0.457C0.429,-0.441 0.455,-0.418 0.475,-0.387L0.477,-0.387L0.477,-0.756L0.545,-0.756L0.545,-0L0.477,-0L0.477,-0.079L0.475,-0.079ZM0.128,-0.234C0.128,-0.208 0.132,-0.184 0.14,-0.161C0.148,-0.137 0.16,-0.118 0.175,-0.101C0.19,-0.084 0.208,-0.07 0.23,-0.061C0.252,-0.051 0.277,-0.046 0.305,-0.046C0.331,-0.046 0.355,-0.051 0.377,-0.061C0.399,-0.07 0.418,-0.083 0.434,-0.1C0.45,-0.117 0.463,-0.136 0.472,-0.16C0.481,-0.183 0.485,-0.207 0.485,-0.234C0.485,-0.261 0.481,-0.286 0.472,-0.309C0.463,-0.332 0.45,-0.352 0.434,-0.369C0.418,-0.386 0.399,-0.399 0.377,-0.409C0.355,-0.418 0.331,-0.423 0.305,-0.423C0.277,-0.423 0.252,-0.418 0.23,-0.408C0.208,-0.398 0.19,-0.385 0.175,-0.368C0.16,-0.351 0.148,-0.331 0.14,-0.308C0.132,-0.285 0.128,-0.26 0.128,-0.234Z" style="fill-rule:nonzero;"/>
                </g>
            </g>
        </g>
        <g id="Shapes" transform="matrix(4.16667,0,0,4.16667,0,0)">
            <g transform="matrix(1,0,0,1,204.5,360.986)">
                <path d="M0,54L-156,54C-162.6,54 -168,48.6 -168,42L-168,12C-168,5.4 -162.6,0 -156,0L0,0C6.6,0 12,5.4 12,12L12,42C12,48.6 6.6,54 0,54Z" style="fill:white;fill-rule:nonzero;stroke:black;stroke-width:1.9px;stroke-linecap:butt;stroke-linejoin:miter;stroke-miterlimit:10;"/>
            </g>
            <g transform="matrix(1,0,0,1,204.5,270.986)">
                <path d="M0,54L-156,54C-162.6,54 -168,48.6 -168,42L-168,12C-168,5.4 -162.6,0 -156,0L0,0C6.6,0 12,5.4 12,12L12,42C12,48.6 6.6,54 0,54Z" style="fill:white;fill-rule:nonzero;stroke:black;stroke-width:1.9px;stroke-linecap:butt;stroke-linejoin:miter;stroke-miterlimit:10;"/>
            </g>
            <g transform="matrix(1,0,0,1,204.5,180.986)">
                <path d="M0,54L-156,54C-162.6,54 -168,48.6 -168,42L-168,12C-168,5.4 -162.6,0 -156,0L0,0C6.6,0 12,5.4 12,12L12,42C12,48.6 6.6,54 0,54Z" style="fill:white;fill-rule:nonzero;stroke:black;stroke-width:1.9px;stroke-linecap:butt;stroke-linejoin:miter;stroke-miterlimit:10;"/>
            </g>
            <g transform="matrix(1,0,0,1,204.5,90.9862)">
                <path d="M0,54L-156,54C-162.6,54 -168,48.6 -168,42L-168,12C-168,5.4 -162.6,0 -156,0L0,0C6.6,0 12,5.4 12,12L12,42C12,48.6 6.6,54 0,54Z" style="fill:white;fill-rule:nonzero;stroke:black;stroke-width:1.9px;stroke-linecap:butt;stroke-linejoin:miter;stroke-miterlimit:10;"/>
            </g>
            <g transform="matrix(1,0,0,1,424.5,360.986)">
                <path d="M0,54L-160,54C-166.6,54 -172,48.6 -172,42L-172,12C-172,5.4 -166.6,0 -160,0L0,0C6.6,0 12,5.4 12,12L12,42C12,48.6 6.6,54 0,54Z" style="fill:rgb(255,0,0);fill-rule:nonzero;stroke:black;stroke-width:1.99px;stroke-miterlimit:10;"/>
            </g>
            <g transform="matrix(1,0,0,1,424.5,270.986)">
                <path d="M0,54L-160,54C-166.6,54 -172,48.6 -172,42L-172,12C-172,5.4 -166.6,0 -160,0L0,0C6.6,0 12,5.4 12,12L12,42C12,48.6 6.6,54 0,54Z" style="fill:rgb(57,181,74);fill-rule:nonzero;stroke:black;stroke-width:1.99px;stroke-miterlimit:10;"/>
            </g>
            <g transform="matrix(1,0,0,1,204.5,0.9862)">
                <path d="M0,54L-156,54C-162.6,54 -168,48.6 -168,42L-168,12C-168,5.4 -162.6,0 -156,0L0,0C6.6,0 12,5.4 12,12L12,42C12,48.6 6.6,54 0,54Z" style="fill:rgb(57,181,74);fill-rule:nonzero;stroke:black;stroke-width:1.97px;stroke-miterlimit:10;"/>
            </g>
        </g>
        <g id="Decisions" transform="matrix(4.16667,0,0,4.16667,0,0)">
            <g transform="matrix(0,-1,-1,0,216.5,288.986)">
                <path d="M-9,-9C-13.971,-9 -18,-4.971 -18,0C-18,4.971 -13.971,9 -9,9C-4.029,9 0,4.971 0,0C0,-4.971 -4.029,-9 -9,-9" style="fill:rgb(57,181,74);fill-rule:nonzero;"/>
            </g>
            <g transform="matrix(0,-1,-1,0,216.5,288.986)">
                <circle cx="-9" cy="0" r="9" style="fill:none;stroke:white;stroke-width:2.25px;stroke-linecap:butt;stroke-linejoin:miter;stroke-miterlimit:10;"/>
            </g>
            <g transform="matrix(1,0,0,1,215.555,297.171)">
                <path d="M0,1.631L-3.467,-3.684L-1.282,-3.684L0.958,-0.069L3.171,-3.684L5.357,-3.684L1.916,1.631L1.916,5.315L0,5.315L0,1.631Z" style="fill:white;fill-rule:nonzero;"/>
            </g>
            <g transform="matrix(0,-1,-1,0,36.5,378.986)">
                <path d="M-9,-9C-13.971,-9 -18,-4.971 -18,0C-18,4.971 -13.971,9 -9,9C-4.029,9 0,4.971 0,0C0,-4.971 -4.029,-9 -9,-9" style="fill:rgb(255,0,0);fill-rule:nonzero;"/>
            </g>
            <g transform="matrix(0,-1,-1,0,36.5,378.986)">
                <circle cx="-9" cy="0" r="9" style="fill:none;stroke:white;stroke-width:2.25px;stroke-linecap:butt;stroke-linejoin:miter;stroke-miterlimit:10;"/>
            </g>
            <g transform="matrix(1,0,0,1,34.3879,389.531)">
                <path d="M0,-3.09L0,2.955L-1.915,2.955L-1.915,-6.045L0.055,-6.045L4.224,-0.216L4.224,-6.045L6.139,-6.045L6.139,2.955L4.291,2.955L0,-3.09Z" style="fill:white;fill-rule:nonzero;"/>
            </g>
            <g transform="matrix(0,-1,-1,0,126.5,315.986)">
                <path d="M-9,-9C-13.971,-9 -18,-4.971 -18,0C-18,4.971 -13.971,9 -9,9C-4.029,9 0,4.971 0,0C0,-4.971 -4.029,-9 -9,-9" style="fill:rgb(255,0,0);fill-rule:nonzero;"/>
            </g>
            <g transform="matrix(0,-1,-1,0,126.5,315.986)">
                <circle cx="-9" cy="0" r="9" style="fill:none;stroke:white;stroke-width:2.25px;stroke-linecap:butt;stroke-linejoin:miter;stroke-miterlimit:10;"/>
            </g>
            <g transform="matrix(1,0,0,1,124.388,326.531)">
                <path d="M0,-3.09L0,2.955L-1.915,2.955L-1.915,-6.045L0.055,-6.045L4.224,-0.216L4.224,-6.045L6.139,-6.045L6.139,2.955L4.291,2.955L0,-3.09Z" style="fill:white;fill-rule:nonzero;"/>
            </g>
            <g transform="matrix(0,-1,-1,0,216.5,378.986)">
                <path d="M-9,-9C-13.971,-9 -18,-4.971 -18,0C-18,4.971 -13.971,9 -9,9C-4.029,9 0,4.971 0,0C0,-4.971 -4.029,-9 -9,-9" style="fill:rgb(57,181,74);fill-rule:nonzero;"/>
            </g>
            <g transform="matrix(0,-1,-1,0,216.5,378.986)">
                <circle cx="-9" cy="0" r="9" style="fill:none;stroke:white;stroke-width:2.25px;stroke-linecap:butt;stroke-linejoin:miter;stroke-miterlimit:10;"/>
            </g>
            <g transform="matrix(1,0,0,1,215.555,387.171)">
                <path d="M0,1.631L-3.467,-3.684L-1.282,-3.684L0.958,-0.069L3.171,-3.684L5.357,-3.684L1.916,1.631L1.916,5.315L0,5.315L0,1.631Z" style="fill:white;fill-rule:nonzero;"/>
            </g>
        </g>
        <g id="Labels" transform="matrix(4.16667,0,0,4.16667,0,0)">
            <g transform="matrix(0.24,0,0,0.24,-2.52213,10.0769)">
                <g transform="matrix(66.6667,0,0,66.6667,284.392,1598.22)">
                    <path d="M0.444,-0.122L0.445,-0.122L0.682,-0.708L0.792,-0.708L0.792,-0L0.72,-0L0.72,-0.615L0.718,-0.615L0.462,-0L0.424,-0L0.168,-0.615L0.166,-0.615L0.166,-0L0.094,-0L0.094,-0.708L0.204,-0.708L0.444,-0.122Z" style="fill-rule:nonzero;"/>
                </g>
                <g transform="matrix(66.6667,0,0,66.6667,343.459,1598.22)">
                    <path d="M0.555,-0.234C0.555,-0.199 0.549,-0.166 0.537,-0.136C0.524,-0.106 0.507,-0.08 0.485,-0.058C0.463,-0.036 0.437,-0.019 0.406,-0.007C0.375,0.006 0.342,0.012 0.305,0.012C0.269,0.012 0.236,0.006 0.205,-0.007C0.174,-0.019 0.148,-0.036 0.126,-0.058C0.104,-0.08 0.087,-0.106 0.075,-0.136C0.062,-0.166 0.056,-0.199 0.056,-0.234C0.056,-0.269 0.062,-0.302 0.075,-0.332C0.087,-0.362 0.104,-0.388 0.126,-0.41C0.148,-0.432 0.174,-0.449 0.205,-0.462C0.236,-0.474 0.269,-0.48 0.305,-0.48C0.342,-0.48 0.375,-0.474 0.406,-0.462C0.437,-0.449 0.463,-0.432 0.485,-0.41C0.507,-0.388 0.524,-0.362 0.537,-0.332C0.549,-0.302 0.555,-0.269 0.555,-0.234ZM0.483,-0.234C0.483,-0.26 0.479,-0.285 0.471,-0.308C0.462,-0.331 0.45,-0.351 0.435,-0.368C0.42,-0.385 0.401,-0.398 0.379,-0.408C0.357,-0.418 0.332,-0.423 0.305,-0.423C0.278,-0.423 0.253,-0.418 0.232,-0.408C0.21,-0.398 0.191,-0.385 0.176,-0.368C0.161,-0.351 0.149,-0.331 0.141,-0.308C0.132,-0.285 0.128,-0.26 0.128,-0.234C0.128,-0.208 0.132,-0.184 0.141,-0.161C0.149,-0.137 0.161,-0.118 0.176,-0.101C0.191,-0.084 0.21,-0.07 0.232,-0.061C0.253,-0.051 0.278,-0.046 0.305,-0.046C0.332,-0.046 0.357,-0.051 0.379,-0.061C0.401,-0.07 0.42,-0.084 0.435,-0.101C0.45,-0.118 0.462,-0.137 0.471,-0.161C0.479,-0.184 0.483,-0.208 0.483,-0.234Z" style="fill-rule:nonzero;"/>
                </g>
                <g transform="matrix(66.6667,0,0,66.6667,384.192,1598.22)">
                    <path d="M0.157,-0.388C0.17,-0.415 0.191,-0.438 0.219,-0.455C0.246,-0.471 0.277,-0.48 0.311,-0.48C0.324,-0.48 0.337,-0.479 0.351,-0.476C0.364,-0.473 0.378,-0.468 0.391,-0.461C0.404,-0.453 0.416,-0.443 0.427,-0.43C0.438,-0.417 0.447,-0.401 0.455,-0.381C0.471,-0.413 0.493,-0.438 0.521,-0.455C0.548,-0.471 0.581,-0.48 0.619,-0.48C0.678,-0.48 0.723,-0.462 0.753,-0.427C0.782,-0.392 0.797,-0.345 0.797,-0.287L0.797,-0L0.729,-0L0.729,-0.259C0.729,-0.308 0.72,-0.348 0.702,-0.378C0.683,-0.408 0.652,-0.423 0.608,-0.423C0.583,-0.423 0.563,-0.418 0.546,-0.408C0.529,-0.398 0.515,-0.385 0.505,-0.369C0.494,-0.352 0.487,-0.334 0.482,-0.313C0.477,-0.292 0.475,-0.271 0.475,-0.249L0.475,-0L0.407,-0L0.407,-0.273C0.407,-0.296 0.405,-0.316 0.402,-0.335C0.399,-0.354 0.393,-0.37 0.385,-0.383C0.376,-0.396 0.365,-0.406 0.35,-0.413C0.335,-0.42 0.317,-0.423 0.294,-0.423C0.278,-0.423 0.262,-0.419 0.246,-0.412C0.229,-0.405 0.215,-0.394 0.202,-0.379C0.189,-0.364 0.178,-0.345 0.17,-0.322C0.162,-0.299 0.158,-0.271 0.158,-0.24L0.158,-0L0.09,-0L0.09,-0.365C0.09,-0.378 0.09,-0.394 0.089,-0.414C0.088,-0.434 0.087,-0.452 0.086,-0.468L0.151,-0.468C0.152,-0.455 0.153,-0.441 0.154,-0.426C0.155,-0.411 0.155,-0.398 0.155,-0.388L0.157,-0.388Z" style="fill-rule:nonzero;"/>
                </g>
                <g transform="matrix(66.6667,0,0,66.6667,443.059,1598.22)">
                    <path d="M0.447,-0.27C0.445,-0.314 0.431,-0.351 0.405,-0.38C0.378,-0.409 0.341,-0.423 0.292,-0.423C0.269,-0.423 0.248,-0.419 0.229,-0.411C0.21,-0.402 0.193,-0.391 0.178,-0.377C0.163,-0.362 0.152,-0.346 0.143,-0.328C0.134,-0.309 0.129,-0.29 0.128,-0.27L0.447,-0.27ZM0.516,-0.248L0.516,-0.233C0.516,-0.228 0.516,-0.222 0.515,-0.216L0.127,-0.216C0.128,-0.193 0.132,-0.171 0.141,-0.15C0.15,-0.129 0.162,-0.111 0.177,-0.096C0.192,-0.081 0.21,-0.068 0.231,-0.06C0.252,-0.05 0.274,-0.046 0.298,-0.046C0.333,-0.046 0.364,-0.054 0.39,-0.071C0.415,-0.087 0.435,-0.106 0.448,-0.127L0.499,-0.087C0.471,-0.052 0.44,-0.026 0.407,-0.011C0.373,0.004 0.337,0.012 0.298,0.012C0.263,0.012 0.231,0.006 0.202,-0.007C0.172,-0.019 0.146,-0.036 0.125,-0.058C0.104,-0.08 0.087,-0.106 0.075,-0.136C0.062,-0.166 0.056,-0.199 0.056,-0.234C0.056,-0.269 0.062,-0.302 0.074,-0.332C0.086,-0.362 0.103,-0.388 0.124,-0.41C0.145,-0.432 0.17,-0.449 0.199,-0.462C0.228,-0.474 0.259,-0.48 0.292,-0.48C0.329,-0.48 0.361,-0.474 0.389,-0.462C0.417,-0.449 0.44,-0.433 0.459,-0.412C0.478,-0.391 0.492,-0.366 0.502,-0.338C0.511,-0.31 0.516,-0.28 0.516,-0.248Z" style="fill-rule:nonzero;"/>
                </g>
                <g transform="matrix(66.6667,0,0,66.6667,481.192,1598.22)">
                    <path d="M0.151,-0.468C0.152,-0.455 0.153,-0.441 0.154,-0.426C0.155,-0.411 0.155,-0.398 0.155,-0.388L0.157,-0.388C0.17,-0.415 0.192,-0.438 0.222,-0.455C0.252,-0.471 0.284,-0.48 0.317,-0.48C0.376,-0.48 0.421,-0.462 0.451,-0.427C0.48,-0.392 0.495,-0.345 0.495,-0.287L0.495,-0L0.427,-0L0.427,-0.259C0.427,-0.284 0.425,-0.306 0.421,-0.326C0.417,-0.346 0.41,-0.363 0.401,-0.378C0.391,-0.392 0.378,-0.403 0.362,-0.411C0.345,-0.419 0.325,-0.423 0.3,-0.423C0.282,-0.423 0.265,-0.419 0.248,-0.412C0.231,-0.405 0.215,-0.394 0.202,-0.379C0.189,-0.364 0.178,-0.345 0.17,-0.322C0.162,-0.299 0.158,-0.271 0.158,-0.24L0.158,-0L0.09,-0L0.09,-0.365C0.09,-0.378 0.09,-0.394 0.089,-0.414C0.088,-0.434 0.087,-0.452 0.086,-0.468L0.151,-0.468Z" style="fill-rule:nonzero;"/>
                </g>
                <g transform="matrix(66.6667,0,0,66.6667,519.926,1598.22)">
                    <path d="M0.301,-0.411L0.169,-0.411L0.169,-0.138C0.169,-0.121 0.171,-0.106 0.174,-0.095C0.177,-0.084 0.182,-0.075 0.189,-0.069C0.195,-0.062 0.202,-0.058 0.211,-0.056C0.22,-0.053 0.229,-0.052 0.239,-0.052C0.248,-0.052 0.258,-0.053 0.269,-0.056C0.279,-0.059 0.289,-0.062 0.298,-0.067L0.301,-0.008C0.289,-0.003 0.277,0 0.264,0.003C0.251,0.005 0.236,0.006 0.221,0.006C0.208,0.006 0.195,0.004 0.181,0.001C0.167,-0.002 0.154,-0.009 0.142,-0.018C0.13,-0.027 0.12,-0.04 0.113,-0.056C0.105,-0.072 0.101,-0.093 0.101,-0.119L0.101,-0.411L0.004,-0.411L0.004,-0.468L0.101,-0.468L0.101,-0.6L0.169,-0.6L0.169,-0.468L0.301,-0.468L0.301,-0.411Z" style="fill-rule:nonzero;"/>
                </g>
                <g transform="matrix(66.6667,0,0,66.6667,541.059,1598.22)">
                    <path d="M0.43,-0C0.429,-0.013 0.428,-0.027 0.427,-0.042C0.426,-0.057 0.426,-0.07 0.426,-0.08L0.424,-0.08C0.411,-0.053 0.389,-0.031 0.359,-0.014C0.329,0.004 0.297,0.012 0.264,0.012C0.205,0.012 0.16,-0.006 0.131,-0.041C0.101,-0.076 0.086,-0.123 0.086,-0.181L0.086,-0.468L0.154,-0.468L0.154,-0.209C0.154,-0.184 0.156,-0.162 0.16,-0.142C0.164,-0.122 0.171,-0.105 0.181,-0.091C0.19,-0.076 0.203,-0.065 0.22,-0.057C0.236,-0.049 0.256,-0.045 0.281,-0.045C0.299,-0.045 0.317,-0.049 0.334,-0.056C0.35,-0.063 0.366,-0.075 0.379,-0.09C0.392,-0.105 0.403,-0.124 0.411,-0.147C0.419,-0.169 0.423,-0.197 0.423,-0.228L0.423,-0.468L0.491,-0.468L0.491,-0.103C0.491,-0.09 0.491,-0.074 0.492,-0.054C0.493,-0.034 0.494,-0.016 0.495,-0L0.43,-0Z" style="fill-rule:nonzero;"/>
                </g>
                <g transform="matrix(66.6667,0,0,66.6667,579.792,1598.22)">
                    <path d="M0.157,-0.388C0.17,-0.415 0.191,-0.438 0.219,-0.455C0.246,-0.471 0.277,-0.48 0.311,-0.48C0.324,-0.48 0.337,-0.479 0.351,-0.476C0.364,-0.473 0.378,-0.468 0.391,-0.461C0.404,-0.453 0.416,-0.443 0.427,-0.43C0.438,-0.417 0.447,-0.401 0.455,-0.381C0.471,-0.413 0.493,-0.438 0.521,-0.455C0.548,-0.471 0.581,-0.48 0.619,-0.48C0.678,-0.48 0.723,-0.462 0.753,-0.427C0.782,-0.392 0.797,-0.345 0.797,-0.287L0.797,-0L0.729,-0L0.729,-0.259C0.729,-0.308 0.72,-0.348 0.702,-0.378C0.683,-0.408 0.652,-0.423 0.608,-0.423C0.583,-0.423 0.563,-0.418 0.546,-0.408C0.529,-0.398 0.515,-0.385 0.505,-0.369C0.494,-0.352 0.487,-0.334 0.482,-0.313C0.477,-0.292 0.475,-0.271 0.475,-0.249L0.475,-0L0.407,-0L0.407,-0.273C0.407,-0.296 0.405,-0.316 0.402,-0.335C0.399,-0.354 0.393,-0.37 0.385,-0.383C0.376,-0.396 0.365,-0.406 0.35,-0.413C0.335,-0.42 0.317,-0.423 0.294,-0.423C0.278,-0.423 0.262,-0.419 0.246,-0.412C0.229,-0.405 0.215,-0.394 0.202,-0.379C0.189,-0.364 0.178,-0.345 0.17,-0.322C0.162,-0.299 0.158,-0.271 0.158,-0.24L0.158,-0L0.09,-0L0.09,-0.365C0.09,-0.378 0.09,-0.394 0.089,-0.414C0.088,-0.434 0.087,-0.452 0.086,-0.468L0.151,-0.468C0.152,-0.455 0.153,-0.441 0.154,-0.426C0.155,-0.411 0.155,-0.398 0.155,-0.388L0.157,-0.388Z" style="fill-rule:nonzero;"/>
                </g>
                <g transform="matrix(66.6667,0,0,66.6667,655.326,1598.22)">
                    <path d="M0.588,-0.408L0.588,-0.348L0.078,-0.348L0.078,-0.408L0.588,-0.408ZM0.588,-0.258L0.588,-0.198L0.078,-0.198L0.078,-0.258L0.588,-0.258Z" style="fill-rule:nonzero;"/>
                </g>
                <g transform="matrix(66.6667,0,0,66.6667,716.392,1598.22)">
                    <path d="M0.29,-0.726C0.334,-0.726 0.371,-0.715 0.401,-0.694C0.43,-0.672 0.454,-0.644 0.472,-0.609C0.49,-0.574 0.503,-0.534 0.511,-0.489C0.518,-0.444 0.522,-0.399 0.522,-0.353C0.522,-0.307 0.518,-0.262 0.511,-0.218C0.503,-0.173 0.49,-0.133 0.472,-0.099C0.454,-0.064 0.43,-0.035 0.401,-0.014C0.371,0.007 0.334,0.018 0.29,0.018C0.245,0.018 0.208,0.007 0.179,-0.014C0.149,-0.035 0.125,-0.064 0.107,-0.099C0.089,-0.133 0.076,-0.173 0.069,-0.218C0.062,-0.262 0.058,-0.307 0.058,-0.353C0.058,-0.399 0.062,-0.444 0.069,-0.489C0.076,-0.534 0.089,-0.574 0.107,-0.609C0.125,-0.644 0.149,-0.672 0.179,-0.694C0.208,-0.715 0.245,-0.726 0.29,-0.726ZM0.29,-0.665C0.259,-0.665 0.233,-0.655 0.212,-0.636C0.191,-0.617 0.175,-0.592 0.163,-0.562C0.151,-0.532 0.143,-0.499 0.138,-0.462C0.133,-0.425 0.131,-0.388 0.131,-0.353C0.131,-0.318 0.133,-0.282 0.138,-0.245C0.143,-0.208 0.151,-0.175 0.163,-0.146C0.175,-0.116 0.191,-0.092 0.212,-0.073C0.233,-0.053 0.259,-0.044 0.29,-0.044C0.321,-0.044 0.346,-0.053 0.367,-0.073C0.388,-0.092 0.404,-0.116 0.416,-0.146C0.428,-0.175 0.436,-0.208 0.442,-0.245C0.447,-0.282 0.449,-0.318 0.449,-0.353C0.449,-0.388 0.447,-0.425 0.442,-0.462C0.436,-0.499 0.428,-0.532 0.416,-0.562C0.404,-0.592 0.388,-0.617 0.367,-0.636C0.346,-0.655 0.321,-0.665 0.29,-0.665Z" style="fill-rule:nonzero;"/>
                </g>
                <g transform="matrix(66.6667,0,0,66.6667,755.059,1598.22)">
                    <path d="M0.274,-0.192L0.204,-0.192L0.204,-0.252C0.204,-0.271 0.206,-0.288 0.211,-0.303C0.215,-0.318 0.221,-0.331 0.229,-0.343C0.236,-0.355 0.245,-0.366 0.255,-0.376C0.264,-0.385 0.274,-0.395 0.284,-0.404L0.312,-0.429C0.329,-0.442 0.343,-0.458 0.354,-0.475C0.365,-0.492 0.37,-0.514 0.37,-0.54C0.37,-0.559 0.367,-0.575 0.36,-0.59C0.353,-0.605 0.344,-0.617 0.333,-0.627C0.322,-0.637 0.309,-0.645 0.294,-0.65C0.279,-0.655 0.262,-0.658 0.245,-0.658C0.209,-0.658 0.18,-0.647 0.158,-0.625C0.135,-0.603 0.121,-0.575 0.116,-0.541L0.048,-0.553C0.058,-0.605 0.081,-0.646 0.117,-0.676C0.152,-0.705 0.196,-0.72 0.248,-0.72C0.275,-0.72 0.3,-0.716 0.324,-0.709C0.347,-0.701 0.368,-0.69 0.385,-0.675C0.402,-0.66 0.416,-0.641 0.427,-0.619C0.437,-0.597 0.442,-0.572 0.442,-0.544C0.442,-0.523 0.44,-0.504 0.435,-0.488C0.43,-0.472 0.424,-0.458 0.416,-0.445C0.407,-0.432 0.397,-0.421 0.386,-0.411C0.375,-0.4 0.363,-0.39 0.35,-0.379C0.336,-0.368 0.324,-0.357 0.315,-0.348C0.305,-0.339 0.297,-0.329 0.291,-0.319C0.285,-0.308 0.281,-0.297 0.278,-0.284C0.275,-0.271 0.274,-0.256 0.274,-0.238L0.274,-0.192ZM0.3,-0.048C0.3,-0.034 0.295,-0.022 0.285,-0.011C0.275,0 0.262,0.006 0.246,0.006C0.23,0.006 0.217,0 0.207,-0.011C0.197,-0.022 0.192,-0.034 0.192,-0.048C0.192,-0.062 0.197,-0.075 0.207,-0.086C0.217,-0.097 0.23,-0.102 0.246,-0.102C0.262,-0.102 0.275,-0.097 0.285,-0.086C0.295,-0.075 0.3,-0.062 0.3,-0.048Z" style="fill-rule:nonzero;"/>
                </g>
            </g>
            <g transform="matrix(0.24,0,0,0.24,17.0939,-79.9231)">
                <g transform="matrix(66.6667,0,0,66.6667,284.392,1598.22)">
                    <rect x="0.094" y="-0.708" width="0.072" height="0.708" style="fill-rule:nonzero;"/>
                </g>
                <g transform="matrix(66.6667,0,0,66.6667,301.726,1598.22)">
                    <path d="M0.151,-0.468C0.152,-0.455 0.153,-0.441 0.154,-0.426C0.155,-0.411 0.155,-0.398 0.155,-0.388L0.157,-0.388C0.17,-0.415 0.192,-0.438 0.222,-0.455C0.252,-0.471 0.284,-0.48 0.317,-0.48C0.376,-0.48 0.421,-0.462 0.451,-0.427C0.48,-0.392 0.495,-0.345 0.495,-0.287L0.495,-0L0.427,-0L0.427,-0.259C0.427,-0.284 0.425,-0.306 0.421,-0.326C0.417,-0.346 0.41,-0.363 0.401,-0.378C0.391,-0.392 0.378,-0.403 0.362,-0.411C0.345,-0.419 0.325,-0.423 0.3,-0.423C0.282,-0.423 0.265,-0.419 0.248,-0.412C0.231,-0.405 0.215,-0.394 0.202,-0.379C0.189,-0.364 0.178,-0.345 0.17,-0.322C0.162,-0.299 0.158,-0.271 0.158,-0.24L0.158,-0L0.09,-0L0.09,-0.365C0.09,-0.378 0.09,-0.394 0.089,-0.414C0.088,-0.434 0.087,-0.452 0.086,-0.468L0.151,-0.468Z" style="fill-rule:nonzero;"/>
                </g>
                <g transform="matrix(66.6667,0,0,66.6667,340.459,1598.22)">
                    <path d="M0.447,-0.27C0.445,-0.314 0.431,-0.351 0.405,-0.38C0.378,-0.409 0.341,-0.423 0.292,-0.423C0.269,-0.423 0.248,-0.419 0.229,-0.411C0.21,-0.402 0.193,-0.391 0.178,-0.377C0.163,-0.362 0.152,-0.346 0.143,-0.328C0.134,-0.309 0.129,-0.29 0.128,-0.27L0.447,-0.27ZM0.516,-0.248L0.516,-0.233C0.516,-0.228 0.516,-0.222 0.515,-0.216L0.127,-0.216C0.128,-0.193 0.132,-0.171 0.141,-0.15C0.15,-0.129 0.162,-0.111 0.177,-0.096C0.192,-0.081 0.21,-0.068 0.231,-0.06C0.252,-0.05 0.274,-0.046 0.298,-0.046C0.333,-0.046 0.364,-0.054 0.39,-0.071C0.415,-0.087 0.435,-0.106 0.448,-0.127L0.499,-0.087C0.471,-0.052 0.44,-0.026 0.407,-0.011C0.373,0.004 0.337,0.012 0.298,0.012C0.263,0.012 0.231,0.006 0.202,-0.007C0.172,-0.019 0.146,-0.036 0.125,-0.058C0.104,-0.08 0.087,-0.106 0.075,-0.136C0.062,-0.166 0.056,-0.199 0.056,-0.234C0.056,-0.269 0.062,-0.302 0.074,-0.332C0.086,-0.362 0.103,-0.388 0.124,-0.41C0.145,-0.432 0.17,-0.449 0.199,-0.462C0.228,-0.474 0.259,-0.48 0.292,-0.48C0.329,-0.48 0.361,-0.474 0.389,-0.462C0.417,-0.449 0.44,-0.433 0.459,-0.412C0.478,-0.391 0.492,-0.366 0.502,-0.338C0.511,-0.31 0.516,-0.28 0.516,-0.248Z" style="fill-rule:nonzero;"/>
                </g>
                <g transform="matrix(66.6667,0,0,66.6667,378.592,1598.22)">
                    <path d="M0.09,-0.365C0.09,-0.378 0.09,-0.394 0.089,-0.414C0.088,-0.434 0.087,-0.452 0.086,-0.468L0.151,-0.468C0.152,-0.455 0.153,-0.441 0.154,-0.426C0.155,-0.411 0.155,-0.398 0.155,-0.388L0.157,-0.388C0.17,-0.415 0.19,-0.438 0.217,-0.455C0.244,-0.471 0.274,-0.48 0.307,-0.48C0.316,-0.48 0.324,-0.48 0.331,-0.479C0.338,-0.478 0.345,-0.477 0.352,-0.475L0.343,-0.411C0.339,-0.412 0.332,-0.414 0.323,-0.415C0.314,-0.416 0.304,-0.417 0.295,-0.417C0.277,-0.417 0.26,-0.414 0.243,-0.407C0.226,-0.4 0.212,-0.39 0.2,-0.376C0.187,-0.361 0.177,-0.343 0.17,-0.321C0.162,-0.298 0.158,-0.271 0.158,-0.24L0.158,-0L0.09,-0L0.09,-0.365Z" style="fill-rule:nonzero;"/>
                </g>
                <g transform="matrix(66.6667,0,0,66.6667,401.792,1598.22)">
                    <path d="M0.301,-0.411L0.169,-0.411L0.169,-0.138C0.169,-0.121 0.171,-0.106 0.174,-0.095C0.177,-0.084 0.182,-0.075 0.189,-0.069C0.195,-0.062 0.202,-0.058 0.211,-0.056C0.22,-0.053 0.229,-0.052 0.239,-0.052C0.248,-0.052 0.258,-0.053 0.269,-0.056C0.279,-0.059 0.289,-0.062 0.298,-0.067L0.301,-0.008C0.289,-0.003 0.277,0 0.264,0.003C0.251,0.005 0.236,0.006 0.221,0.006C0.208,0.006 0.195,0.004 0.181,0.001C0.167,-0.002 0.154,-0.009 0.142,-0.018C0.13,-0.027 0.12,-0.04 0.113,-0.056C0.105,-0.072 0.101,-0.093 0.101,-0.119L0.101,-0.411L0.004,-0.411L0.004,-0.468L0.101,-0.468L0.101,-0.6L0.169,-0.6L0.169,-0.468L0.301,-0.468L0.301,-0.411Z" style="fill-rule:nonzero;"/>
                </g>
                <g transform="matrix(66.6667,0,0,66.6667,422.926,1598.22)">
                    <path d="M0.159,-0L0.091,-0L0.091,-0.468L0.159,-0.468L0.159,-0ZM0.173,-0.648C0.173,-0.634 0.168,-0.623 0.158,-0.614C0.148,-0.604 0.137,-0.6 0.125,-0.6C0.113,-0.6 0.102,-0.604 0.092,-0.614C0.082,-0.623 0.077,-0.634 0.077,-0.648C0.077,-0.662 0.082,-0.674 0.092,-0.683C0.102,-0.692 0.113,-0.696 0.125,-0.696C0.137,-0.696 0.148,-0.692 0.158,-0.683C0.168,-0.674 0.173,-0.662 0.173,-0.648Z" style="fill-rule:nonzero;"/>
                </g>
                <g transform="matrix(66.6667,0,0,66.6667,439.592,1598.22)">
                    <path d="M0.385,-0.302C0.385,-0.343 0.374,-0.373 0.353,-0.393C0.332,-0.413 0.301,-0.423 0.26,-0.423C0.232,-0.423 0.206,-0.418 0.182,-0.408C0.158,-0.398 0.138,-0.385 0.121,-0.368L0.083,-0.413C0.102,-0.432 0.128,-0.448 0.16,-0.461C0.191,-0.474 0.227,-0.48 0.267,-0.48C0.292,-0.48 0.316,-0.476 0.338,-0.47C0.36,-0.463 0.379,-0.452 0.396,-0.438C0.413,-0.424 0.426,-0.406 0.435,-0.385C0.444,-0.364 0.449,-0.339 0.449,-0.31L0.449,-0.105C0.449,-0.087 0.45,-0.068 0.451,-0.049C0.452,-0.03 0.454,-0.013 0.457,-0L0.396,-0C0.394,-0.011 0.392,-0.024 0.391,-0.037C0.39,-0.05 0.389,-0.063 0.389,-0.076L0.387,-0.076C0.366,-0.045 0.341,-0.022 0.315,-0.009C0.288,0.005 0.255,0.012 0.217,0.012C0.199,0.012 0.181,0.01 0.162,0.005C0.142,-0 0.125,-0.009 0.11,-0.02C0.094,-0.031 0.081,-0.046 0.071,-0.064C0.06,-0.082 0.055,-0.104 0.055,-0.13C0.055,-0.166 0.064,-0.195 0.083,-0.216C0.101,-0.237 0.125,-0.252 0.156,-0.263C0.187,-0.273 0.222,-0.28 0.262,-0.283C0.301,-0.286 0.342,-0.287 0.385,-0.287L0.385,-0.302ZM0.365,-0.234C0.337,-0.234 0.309,-0.233 0.281,-0.231C0.252,-0.228 0.227,-0.224 0.204,-0.217C0.181,-0.21 0.162,-0.199 0.147,-0.186C0.132,-0.173 0.125,-0.155 0.125,-0.133C0.125,-0.116 0.128,-0.102 0.135,-0.091C0.141,-0.08 0.149,-0.07 0.16,-0.064C0.171,-0.056 0.183,-0.051 0.196,-0.049C0.209,-0.046 0.222,-0.044 0.235,-0.044C0.259,-0.044 0.28,-0.048 0.299,-0.057C0.318,-0.065 0.333,-0.076 0.346,-0.091C0.359,-0.105 0.368,-0.121 0.375,-0.14C0.382,-0.159 0.385,-0.178 0.385,-0.199L0.385,-0.234L0.365,-0.234Z" style="fill-rule:nonzero;"/>
                </g>
                <g transform="matrix(66.6667,0,0,66.6667,491.859,1598.22)">
                    <path d="M0.588,-0.408L0.588,-0.348L0.078,-0.348L0.078,-0.408L0.588,-0.408ZM0.588,-0.258L0.588,-0.198L0.078,-0.198L0.078,-0.258L0.588,-0.258Z" style="fill-rule:nonzero;"/>
                </g>
                <g transform="matrix(66.6667,0,0,66.6667,552.926,1598.22)">
                    <path d="M0.29,-0.726C0.334,-0.726 0.371,-0.715 0.401,-0.694C0.43,-0.672 0.454,-0.644 0.472,-0.609C0.49,-0.574 0.503,-0.534 0.511,-0.489C0.518,-0.444 0.522,-0.399 0.522,-0.353C0.522,-0.307 0.518,-0.262 0.511,-0.218C0.503,-0.173 0.49,-0.133 0.472,-0.099C0.454,-0.064 0.43,-0.035 0.401,-0.014C0.371,0.007 0.334,0.018 0.29,0.018C0.245,0.018 0.208,0.007 0.179,-0.014C0.149,-0.035 0.125,-0.064 0.107,-0.099C0.089,-0.133 0.076,-0.173 0.069,-0.218C0.062,-0.262 0.058,-0.307 0.058,-0.353C0.058,-0.399 0.062,-0.444 0.069,-0.489C0.076,-0.534 0.089,-0.574 0.107,-0.609C0.125,-0.644 0.149,-0.672 0.179,-0.694C0.208,-0.715 0.245,-0.726 0.29,-0.726ZM0.29,-0.665C0.259,-0.665 0.233,-0.655 0.212,-0.636C0.191,-0.617 0.175,-0.592 0.163,-0.562C0.151,-0.532 0.143,-0.499 0.138,-0.462C0.133,-0.425 0.131,-0.388 0.131,-0.353C0.131,-0.318 0.133,-0.282 0.138,-0.245C0.143,-0.208 0.151,-0.175 0.163,-0.146C0.175,-0.116 0.191,-0.092 0.212,-0.073C0.233,-0.053 0.259,-0.044 0.29,-0.044C0.321,-0.044 0.346,-0.053 0.367,-0.073C0.388,-0.092 0.404,-0.116 0.416,-0.146C0.428,-0.175 0.436,-0.208 0.442,-0.245C0.447,-0.282 0.449,-0.318 0.449,-0.353C0.449,-0.388 0.447,-0.425 0.442,-0.462C0.436,-0.499 0.428,-0.532 0.416,-0.562C0.404,-0.592 0.388,-0.617 0.367,-0.636C0.346,-0.655 0.321,-0.665 0.29,-0.665Z" style="fill-rule:nonzero;"/>
                </g>
                <g transform="matrix(66.6667,0,0,66.6667,591.592,1598.22)">
                    <path d="M0.274,-0.192L0.204,-0.192L0.204,-0.252C0.204,-0.271 0.206,-0.288 0.211,-0.303C0.215,-0.318 0.221,-0.331 0.229,-0.343C0.236,-0.355 0.245,-0.366 0.255,-0.376C0.264,-0.385 0.274,-0.395 0.284,-0.404L0.312,-0.429C0.329,-0.442 0.343,-0.458 0.354,-0.475C0.365,-0.492 0.37,-0.514 0.37,-0.54C0.37,-0.559 0.367,-0.575 0.36,-0.59C0.353,-0.605 0.344,-0.617 0.333,-0.627C0.322,-0.637 0.309,-0.645 0.294,-0.65C0.279,-0.655 0.262,-0.658 0.245,-0.658C0.209,-0.658 0.18,-0.647 0.158,-0.625C0.135,-0.603 0.121,-0.575 0.116,-0.541L0.048,-0.553C0.058,-0.605 0.081,-0.646 0.117,-0.676C0.152,-0.705 0.196,-0.72 0.248,-0.72C0.275,-0.72 0.3,-0.716 0.324,-0.709C0.347,-0.701 0.368,-0.69 0.385,-0.675C0.402,-0.66 0.416,-0.641 0.427,-0.619C0.437,-0.597 0.442,-0.572 0.442,-0.544C0.442,-0.523 0.44,-0.504 0.435,-0.488C0.43,-0.472 0.424,-0.458 0.416,-0.445C0.407,-0.432 0.397,-0.421 0.386,-0.411C0.375,-0.4 0.363,-0.39 0.35,-0.379C0.336,-0.368 0.324,-0.357 0.315,-0.348C0.305,-0.339 0.297,-0.329 0.291,-0.319C0.285,-0.308 0.281,-0.297 0.278,-0.284C0.275,-0.271 0.274,-0.256 0.274,-0.238L0.274,-0.192ZM0.3,-0.048C0.3,-0.034 0.295,-0.022 0.285,-0.011C0.275,0 0.262,0.006 0.246,0.006C0.23,0.006 0.217,0 0.207,-0.011C0.197,-0.022 0.192,-0.034 0.192,-0.048C0.192,-0.062 0.197,-0.075 0.207,-0.086C0.217,-0.097 0.23,-0.102 0.246,-0.102C0.262,-0.102 0.275,-0.097 0.285,-0.086C0.295,-0.075 0.3,-0.062 0.3,-0.048Z" style="fill-rule:nonzero;"/>
                </g>
            </g>
            <g transform="matrix(0.24,0,0,0.24,17.2219,-169.635)">
                <g transform="matrix(66.6667,0,0,66.6667,323.692,1598.22)">
                    <path d="M0.166,-0L0.094,-0L0.094,-0.708L0.302,-0.708C0.337,-0.708 0.369,-0.705 0.399,-0.698C0.428,-0.691 0.454,-0.681 0.476,-0.666C0.497,-0.651 0.514,-0.631 0.526,-0.607C0.538,-0.583 0.544,-0.554 0.544,-0.519C0.544,-0.493 0.539,-0.469 0.53,-0.448C0.521,-0.427 0.508,-0.408 0.492,-0.393C0.476,-0.377 0.457,-0.364 0.435,-0.355C0.413,-0.346 0.389,-0.34 0.363,-0.337L0.57,-0L0.482,-0L0.286,-0.331L0.166,-0.331L0.166,-0ZM0.166,-0.393L0.291,-0.393C0.349,-0.393 0.394,-0.404 0.425,-0.425C0.456,-0.446 0.472,-0.477 0.472,-0.519C0.472,-0.542 0.468,-0.562 0.459,-0.578C0.45,-0.594 0.438,-0.607 0.423,-0.617C0.408,-0.627 0.389,-0.634 0.367,-0.639C0.345,-0.644 0.321,-0.646 0.294,-0.646L0.166,-0.646L0.166,-0.393Z" style="fill-rule:nonzero;"/>
                </g>
                <g transform="matrix(66.6667,0,0,66.6667,362.826,1598.22)">
                    <path d="M0.555,-0.234C0.555,-0.199 0.549,-0.166 0.537,-0.136C0.524,-0.106 0.507,-0.08 0.485,-0.058C0.463,-0.036 0.437,-0.019 0.406,-0.007C0.375,0.006 0.342,0.012 0.305,0.012C0.269,0.012 0.236,0.006 0.205,-0.007C0.174,-0.019 0.148,-0.036 0.126,-0.058C0.104,-0.08 0.087,-0.106 0.075,-0.136C0.062,-0.166 0.056,-0.199 0.056,-0.234C0.056,-0.269 0.062,-0.302 0.075,-0.332C0.087,-0.362 0.104,-0.388 0.126,-0.41C0.148,-0.432 0.174,-0.449 0.205,-0.462C0.236,-0.474 0.269,-0.48 0.305,-0.48C0.342,-0.48 0.375,-0.474 0.406,-0.462C0.437,-0.449 0.463,-0.432 0.485,-0.41C0.507,-0.388 0.524,-0.362 0.537,-0.332C0.549,-0.302 0.555,-0.269 0.555,-0.234ZM0.483,-0.234C0.483,-0.26 0.479,-0.285 0.471,-0.308C0.462,-0.331 0.45,-0.351 0.435,-0.368C0.42,-0.385 0.401,-0.398 0.379,-0.408C0.357,-0.418 0.332,-0.423 0.305,-0.423C0.278,-0.423 0.253,-0.418 0.232,-0.408C0.21,-0.398 0.191,-0.385 0.176,-0.368C0.161,-0.351 0.149,-0.331 0.141,-0.308C0.132,-0.285 0.128,-0.26 0.128,-0.234C0.128,-0.208 0.132,-0.184 0.141,-0.161C0.149,-0.137 0.161,-0.118 0.176,-0.101C0.191,-0.084 0.21,-0.07 0.232,-0.061C0.253,-0.051 0.278,-0.046 0.305,-0.046C0.332,-0.046 0.357,-0.051 0.379,-0.061C0.401,-0.07 0.42,-0.084 0.435,-0.101C0.45,-0.118 0.462,-0.137 0.471,-0.161C0.479,-0.184 0.483,-0.208 0.483,-0.234Z" style="fill-rule:nonzero;"/>
                </g>
                <g transform="matrix(66.6667,0,0,66.6667,403.559,1598.22)">
                    <rect x="0.092" y="-0.756" width="0.068" height="0.756" style="fill-rule:nonzero;"/>
                </g>
                <g transform="matrix(66.6667,0,0,66.6667,420.359,1598.22)">
                    <rect x="0.092" y="-0.756" width="0.068" height="0.756" style="fill-rule:nonzero;"/>
                </g>
                <g transform="matrix(66.6667,0,0,66.6667,453.826,1598.22)">
                    <path d="M0.475,-0.079C0.455,-0.049 0.429,-0.026 0.397,-0.011C0.365,0.004 0.332,0.012 0.298,0.012C0.261,0.012 0.228,0.006 0.199,-0.007C0.169,-0.02 0.143,-0.037 0.123,-0.059C0.101,-0.081 0.085,-0.107 0.074,-0.137C0.062,-0.167 0.056,-0.199 0.056,-0.234C0.056,-0.269 0.062,-0.301 0.074,-0.331C0.085,-0.361 0.101,-0.387 0.123,-0.409C0.143,-0.431 0.169,-0.448 0.199,-0.461C0.228,-0.474 0.261,-0.48 0.298,-0.48C0.332,-0.48 0.365,-0.472 0.397,-0.457C0.429,-0.441 0.455,-0.418 0.475,-0.387L0.477,-0.387L0.477,-0.756L0.545,-0.756L0.545,-0L0.477,-0L0.477,-0.079L0.475,-0.079ZM0.128,-0.234C0.128,-0.208 0.132,-0.184 0.14,-0.161C0.148,-0.137 0.16,-0.118 0.175,-0.101C0.19,-0.084 0.208,-0.07 0.23,-0.061C0.252,-0.051 0.277,-0.046 0.305,-0.046C0.331,-0.046 0.355,-0.051 0.377,-0.061C0.399,-0.07 0.418,-0.083 0.434,-0.1C0.45,-0.117 0.463,-0.136 0.472,-0.16C0.481,-0.183 0.485,-0.207 0.485,-0.234C0.485,-0.261 0.481,-0.286 0.472,-0.309C0.463,-0.332 0.45,-0.352 0.434,-0.369C0.418,-0.386 0.399,-0.399 0.377,-0.409C0.355,-0.418 0.331,-0.423 0.305,-0.423C0.277,-0.423 0.252,-0.418 0.23,-0.408C0.208,-0.398 0.19,-0.385 0.175,-0.368C0.16,-0.351 0.148,-0.331 0.14,-0.308C0.132,-0.285 0.128,-0.26 0.128,-0.234Z" style="fill-rule:nonzero;"/>
                </g>
                <g transform="matrix(66.6667,0,0,66.6667,496.292,1598.22)">
                    <path d="M0.159,-0L0.091,-0L0.091,-0.468L0.159,-0.468L0.159,-0ZM0.173,-0.648C0.173,-0.634 0.168,-0.623 0.158,-0.614C0.148,-0.604 0.137,-0.6 0.125,-0.6C0.113,-0.6 0.102,-0.604 0.092,-0.614C0.082,-0.623 0.077,-0.634 0.077,-0.648C0.077,-0.662 0.082,-0.674 0.092,-0.683C0.102,-0.692 0.113,-0.696 0.125,-0.696C0.137,-0.696 0.148,-0.692 0.158,-0.683C0.168,-0.674 0.173,-0.662 0.173,-0.648Z" style="fill-rule:nonzero;"/>
                </g>
                <g transform="matrix(66.6667,0,0,66.6667,512.959,1598.22)">
                    <path d="M0.427,-0.361C0.416,-0.379 0.399,-0.394 0.378,-0.406C0.356,-0.417 0.332,-0.423 0.307,-0.423C0.28,-0.423 0.255,-0.418 0.233,-0.409C0.211,-0.399 0.192,-0.386 0.177,-0.369C0.161,-0.352 0.149,-0.332 0.141,-0.309C0.132,-0.286 0.128,-0.261 0.128,-0.234C0.128,-0.207 0.132,-0.183 0.141,-0.16C0.149,-0.137 0.161,-0.118 0.176,-0.101C0.191,-0.084 0.21,-0.07 0.232,-0.061C0.254,-0.051 0.279,-0.046 0.306,-0.046C0.336,-0.046 0.361,-0.052 0.382,-0.063C0.403,-0.074 0.42,-0.089 0.433,-0.107L0.484,-0.069C0.464,-0.044 0.44,-0.025 0.411,-0.01C0.382,0.005 0.347,0.012 0.306,0.012C0.268,0.012 0.234,0.006 0.203,-0.007C0.172,-0.019 0.146,-0.036 0.125,-0.058C0.103,-0.08 0.086,-0.106 0.074,-0.136C0.062,-0.166 0.056,-0.199 0.056,-0.234C0.056,-0.269 0.062,-0.302 0.074,-0.332C0.086,-0.362 0.103,-0.388 0.125,-0.41C0.146,-0.432 0.172,-0.449 0.203,-0.462C0.234,-0.474 0.268,-0.48 0.306,-0.48C0.337,-0.48 0.369,-0.473 0.402,-0.46C0.434,-0.446 0.46,-0.426 0.48,-0.399L0.427,-0.361Z" style="fill-rule:nonzero;"/>
                </g>
                <g transform="matrix(66.6667,0,0,66.6667,546.292,1598.22)">
                    <path d="M0.447,-0.27C0.445,-0.314 0.431,-0.351 0.405,-0.38C0.378,-0.409 0.341,-0.423 0.292,-0.423C0.269,-0.423 0.248,-0.419 0.229,-0.411C0.21,-0.402 0.193,-0.391 0.178,-0.377C0.163,-0.362 0.152,-0.346 0.143,-0.328C0.134,-0.309 0.129,-0.29 0.128,-0.27L0.447,-0.27ZM0.516,-0.248L0.516,-0.233C0.516,-0.228 0.516,-0.222 0.515,-0.216L0.127,-0.216C0.128,-0.193 0.132,-0.171 0.141,-0.15C0.15,-0.129 0.162,-0.111 0.177,-0.096C0.192,-0.081 0.21,-0.068 0.231,-0.06C0.252,-0.05 0.274,-0.046 0.298,-0.046C0.333,-0.046 0.364,-0.054 0.39,-0.071C0.415,-0.087 0.435,-0.106 0.448,-0.127L0.499,-0.087C0.471,-0.052 0.44,-0.026 0.407,-0.011C0.373,0.004 0.337,0.012 0.298,0.012C0.263,0.012 0.231,0.006 0.202,-0.007C0.172,-0.019 0.146,-0.036 0.125,-0.058C0.104,-0.08 0.087,-0.106 0.075,-0.136C0.062,-0.166 0.056,-0.199 0.056,-0.234C0.056,-0.269 0.062,-0.302 0.074,-0.332C0.086,-0.362 0.103,-0.388 0.124,-0.41C0.145,-0.432 0.17,-0.449 0.199,-0.462C0.228,-0.474 0.259,-0.48 0.292,-0.48C0.329,-0.48 0.361,-0.474 0.389,-0.462C0.417,-0.449 0.44,-0.433 0.459,-0.412C0.478,-0.391 0.492,-0.366 0.502,-0.338C0.511,-0.31 0.516,-0.28 0.516,-0.248Z" style="fill-rule:nonzero;"/>
                </g>
            </g>
            <g transform="matrix(0.24,0,0,0.24,17.1339,-260.019)">
                <g transform="matrix(66.6667,0,0,66.6667,175.692,1598.22)">
                    <path d="M0.094,-0.708L0.329,-0.708C0.373,-0.708 0.417,-0.701 0.462,-0.686C0.506,-0.671 0.546,-0.649 0.582,-0.62C0.617,-0.59 0.646,-0.553 0.668,-0.509C0.69,-0.464 0.701,-0.413 0.701,-0.354C0.701,-0.295 0.69,-0.243 0.668,-0.199C0.646,-0.155 0.617,-0.118 0.582,-0.089C0.546,-0.059 0.506,-0.037 0.462,-0.022C0.417,-0.007 0.373,-0 0.329,-0L0.094,-0L0.094,-0.708ZM0.166,-0.064L0.309,-0.064C0.362,-0.064 0.409,-0.072 0.449,-0.089C0.488,-0.106 0.521,-0.128 0.547,-0.155C0.573,-0.182 0.592,-0.212 0.606,-0.247C0.619,-0.282 0.625,-0.317 0.625,-0.354C0.625,-0.391 0.619,-0.426 0.606,-0.461C0.592,-0.496 0.573,-0.527 0.547,-0.554C0.521,-0.58 0.488,-0.602 0.449,-0.619C0.409,-0.636 0.362,-0.644 0.309,-0.644L0.166,-0.644L0.166,-0.064Z" style="fill-rule:nonzero;"/>
                </g>
                <g transform="matrix(66.6667,0,0,66.6667,226.159,1598.22)">
                    <path d="M0.447,-0.27C0.445,-0.314 0.431,-0.351 0.405,-0.38C0.378,-0.409 0.341,-0.423 0.292,-0.423C0.269,-0.423 0.248,-0.419 0.229,-0.411C0.21,-0.402 0.193,-0.391 0.178,-0.377C0.163,-0.362 0.152,-0.346 0.143,-0.328C0.134,-0.309 0.129,-0.29 0.128,-0.27L0.447,-0.27ZM0.516,-0.248L0.516,-0.233C0.516,-0.228 0.516,-0.222 0.515,-0.216L0.127,-0.216C0.128,-0.193 0.132,-0.171 0.141,-0.15C0.15,-0.129 0.162,-0.111 0.177,-0.096C0.192,-0.081 0.21,-0.068 0.231,-0.06C0.252,-0.05 0.274,-0.046 0.298,-0.046C0.333,-0.046 0.364,-0.054 0.39,-0.071C0.415,-0.087 0.435,-0.106 0.448,-0.127L0.499,-0.087C0.471,-0.052 0.44,-0.026 0.407,-0.011C0.373,0.004 0.337,0.012 0.298,0.012C0.263,0.012 0.231,0.006 0.202,-0.007C0.172,-0.019 0.146,-0.036 0.125,-0.058C0.104,-0.08 0.087,-0.106 0.075,-0.136C0.062,-0.166 0.056,-0.199 0.056,-0.234C0.056,-0.269 0.062,-0.302 0.074,-0.332C0.086,-0.362 0.103,-0.388 0.124,-0.41C0.145,-0.432 0.17,-0.449 0.199,-0.462C0.228,-0.474 0.259,-0.48 0.292,-0.48C0.329,-0.48 0.361,-0.474 0.389,-0.462C0.417,-0.449 0.44,-0.433 0.459,-0.412C0.478,-0.391 0.492,-0.366 0.502,-0.338C0.511,-0.31 0.516,-0.28 0.516,-0.248Z" style="fill-rule:nonzero;"/>
                </g>
                <g transform="matrix(66.6667,0,0,66.6667,264.292,1598.22)">
                    <path d="M0.301,-0.411L0.169,-0.411L0.169,-0.138C0.169,-0.121 0.171,-0.106 0.174,-0.095C0.177,-0.084 0.182,-0.075 0.189,-0.069C0.195,-0.062 0.202,-0.058 0.211,-0.056C0.22,-0.053 0.229,-0.052 0.239,-0.052C0.248,-0.052 0.258,-0.053 0.269,-0.056C0.279,-0.059 0.289,-0.062 0.298,-0.067L0.301,-0.008C0.289,-0.003 0.277,0 0.264,0.003C0.251,0.005 0.236,0.006 0.221,0.006C0.208,0.006 0.195,0.004 0.181,0.001C0.167,-0.002 0.154,-0.009 0.142,-0.018C0.13,-0.027 0.12,-0.04 0.113,-0.056C0.105,-0.072 0.101,-0.093 0.101,-0.119L0.101,-0.411L0.004,-0.411L0.004,-0.468L0.101,-0.468L0.101,-0.6L0.169,-0.6L0.169,-0.468L0.301,-0.468L0.301,-0.411Z" style="fill-rule:nonzero;"/>
                </g>
                <g transform="matrix(66.6667,0,0,66.6667,285.426,1598.22)">
                    <path d="M0.447,-0.27C0.445,-0.314 0.431,-0.351 0.405,-0.38C0.378,-0.409 0.341,-0.423 0.292,-0.423C0.269,-0.423 0.248,-0.419 0.229,-0.411C0.21,-0.402 0.193,-0.391 0.178,-0.377C0.163,-0.362 0.152,-0.346 0.143,-0.328C0.134,-0.309 0.129,-0.29 0.128,-0.27L0.447,-0.27ZM0.516,-0.248L0.516,-0.233C0.516,-0.228 0.516,-0.222 0.515,-0.216L0.127,-0.216C0.128,-0.193 0.132,-0.171 0.141,-0.15C0.15,-0.129 0.162,-0.111 0.177,-0.096C0.192,-0.081 0.21,-0.068 0.231,-0.06C0.252,-0.05 0.274,-0.046 0.298,-0.046C0.333,-0.046 0.364,-0.054 0.39,-0.071C0.415,-0.087 0.435,-0.106 0.448,-0.127L0.499,-0.087C0.471,-0.052 0.44,-0.026 0.407,-0.011C0.373,0.004 0.337,0.012 0.298,0.012C0.263,0.012 0.231,0.006 0.202,-0.007C0.172,-0.019 0.146,-0.036 0.125,-0.058C0.104,-0.08 0.087,-0.106 0.075,-0.136C0.062,-0.166 0.056,-0.199 0.056,-0.234C0.056,-0.269 0.062,-0.302 0.074,-0.332C0.086,-0.362 0.103,-0.388 0.124,-0.41C0.145,-0.432 0.17,-0.449 0.199,-0.462C0.228,-0.474 0.259,-0.48 0.292,-0.48C0.329,-0.48 0.361,-0.474 0.389,-0.462C0.417,-0.449 0.44,-0.433 0.459,-0.412C0.478,-0.391 0.492,-0.366 0.502,-0.338C0.511,-0.31 0.516,-0.28 0.516,-0.248Z" style="fill-rule:nonzero;"/>
                </g>
                <g transform="matrix(66.6667,0,0,66.6667,323.559,1598.22)">
                    <path d="M0.09,-0.365C0.09,-0.378 0.09,-0.394 0.089,-0.414C0.088,-0.434 0.087,-0.452 0.086,-0.468L0.151,-0.468C0.152,-0.455 0.153,-0.441 0.154,-0.426C0.155,-0.411 0.155,-0.398 0.155,-0.388L0.157,-0.388C0.17,-0.415 0.19,-0.438 0.217,-0.455C0.244,-0.471 0.274,-0.48 0.307,-0.48C0.316,-0.48 0.324,-0.48 0.331,-0.479C0.338,-0.478 0.345,-0.477 0.352,-0.475L0.343,-0.411C0.339,-0.412 0.332,-0.414 0.323,-0.415C0.314,-0.416 0.304,-0.417 0.295,-0.417C0.277,-0.417 0.26,-0.414 0.243,-0.407C0.226,-0.4 0.212,-0.39 0.2,-0.376C0.187,-0.361 0.177,-0.343 0.17,-0.321C0.162,-0.298 0.158,-0.271 0.158,-0.24L0.158,-0L0.09,-0L0.09,-0.365Z" style="fill-rule:nonzero;"/>
                </g>
                <g transform="matrix(66.6667,0,0,66.6667,347.559,1598.22)">
                    <path d="M0.157,-0.388C0.17,-0.415 0.191,-0.438 0.219,-0.455C0.246,-0.471 0.277,-0.48 0.311,-0.48C0.324,-0.48 0.337,-0.479 0.351,-0.476C0.364,-0.473 0.378,-0.468 0.391,-0.461C0.404,-0.453 0.416,-0.443 0.427,-0.43C0.438,-0.417 0.447,-0.401 0.455,-0.381C0.471,-0.413 0.493,-0.438 0.521,-0.455C0.548,-0.471 0.581,-0.48 0.619,-0.48C0.678,-0.48 0.723,-0.462 0.753,-0.427C0.782,-0.392 0.797,-0.345 0.797,-0.287L0.797,-0L0.729,-0L0.729,-0.259C0.729,-0.308 0.72,-0.348 0.702,-0.378C0.683,-0.408 0.652,-0.423 0.608,-0.423C0.583,-0.423 0.563,-0.418 0.546,-0.408C0.529,-0.398 0.515,-0.385 0.505,-0.369C0.494,-0.352 0.487,-0.334 0.482,-0.313C0.477,-0.292 0.475,-0.271 0.475,-0.249L0.475,-0L0.407,-0L0.407,-0.273C0.407,-0.296 0.405,-0.316 0.402,-0.335C0.399,-0.354 0.393,-0.37 0.385,-0.383C0.376,-0.396 0.365,-0.406 0.35,-0.413C0.335,-0.42 0.317,-0.423 0.294,-0.423C0.278,-0.423 0.262,-0.419 0.246,-0.412C0.229,-0.405 0.215,-0.394 0.202,-0.379C0.189,-0.364 0.178,-0.345 0.17,-0.322C0.162,-0.299 0.158,-0.271 0.158,-0.24L0.158,-0L0.09,-0L0.09,-0.365C0.09,-0.378 0.09,-0.394 0.089,-0.414C0.088,-0.434 0.087,-0.452 0.086,-0.468L0.151,-0.468C0.152,-0.455 0.153,-0.441 0.154,-0.426C0.155,-0.411 0.155,-0.398 0.155,-0.388L0.157,-0.388Z" style="fill-rule:nonzero;"/>
                </g>
                <g transform="matrix(66.6667,0,0,66.6667,406.426,1598.22)">
                    <path d="M0.159,-0L0.091,-0L0.091,-0.468L0.159,-0.468L0.159,-0ZM0.173,-0.648C0.173,-0.634 0.168,-0.623 0.158,-0.614C0.148,-0.604 0.137,-0.6 0.125,-0.6C0.113,-0.6 0.102,-0.604 0.092,-0.614C0.082,-0.623 0.077,-0.634 0.077,-0.648C0.077,-0.662 0.082,-0.674 0.092,-0.683C0.102,-0.692 0.113,-0.696 0.125,-0.696C0.137,-0.696 0.148,-0.692 0.158,-0.683C0.168,-0.674 0.173,-0.662 0.173,-0.648Z" style="fill-rule:nonzero;"/>
                </g>
                <g transform="matrix(66.6667,0,0,66.6667,423.092,1598.22)">
                    <path d="M0.151,-0.468C0.152,-0.455 0.153,-0.441 0.154,-0.426C0.155,-0.411 0.155,-0.398 0.155,-0.388L0.157,-0.388C0.17,-0.415 0.192,-0.438 0.222,-0.455C0.252,-0.471 0.284,-0.48 0.317,-0.48C0.376,-0.48 0.421,-0.462 0.451,-0.427C0.48,-0.392 0.495,-0.345 0.495,-0.287L0.495,-0L0.427,-0L0.427,-0.259C0.427,-0.284 0.425,-0.306 0.421,-0.326C0.417,-0.346 0.41,-0.363 0.401,-0.378C0.391,-0.392 0.378,-0.403 0.362,-0.411C0.345,-0.419 0.325,-0.423 0.3,-0.423C0.282,-0.423 0.265,-0.419 0.248,-0.412C0.231,-0.405 0.215,-0.394 0.202,-0.379C0.189,-0.364 0.178,-0.345 0.17,-0.322C0.162,-0.299 0.158,-0.271 0.158,-0.24L0.158,-0L0.09,-0L0.09,-0.365C0.09,-0.378 0.09,-0.394 0.089,-0.414C0.088,-0.434 0.087,-0.452 0.086,-0.468L0.151,-0.468Z" style="fill-rule:nonzero;"/>
                </g>
                <g transform="matrix(66.6667,0,0,66.6667,461.826,1598.22)">
                    <path d="M0.447,-0.27C0.445,-0.314 0.431,-0.351 0.405,-0.38C0.378,-0.409 0.341,-0.423 0.292,-0.423C0.269,-0.423 0.248,-0.419 0.229,-0.411C0.21,-0.402 0.193,-0.391 0.178,-0.377C0.163,-0.362 0.152,-0.346 0.143,-0.328C0.134,-0.309 0.129,-0.29 0.128,-0.27L0.447,-0.27ZM0.516,-0.248L0.516,-0.233C0.516,-0.228 0.516,-0.222 0.515,-0.216L0.127,-0.216C0.128,-0.193 0.132,-0.171 0.141,-0.15C0.15,-0.129 0.162,-0.111 0.177,-0.096C0.192,-0.081 0.21,-0.068 0.231,-0.06C0.252,-0.05 0.274,-0.046 0.298,-0.046C0.333,-0.046 0.364,-0.054 0.39,-0.071C0.415,-0.087 0.435,-0.106 0.448,-0.127L0.499,-0.087C0.471,-0.052 0.44,-0.026 0.407,-0.011C0.373,0.004 0.337,0.012 0.298,0.012C0.263,0.012 0.231,0.006 0.202,-0.007C0.172,-0.019 0.146,-0.036 0.125,-0.058C0.104,-0.08 0.087,-0.106 0.075,-0.136C0.062,-0.166 0.056,-0.199 0.056,-0.234C0.056,-0.269 0.062,-0.302 0.074,-0.332C0.086,-0.362 0.103,-0.388 0.124,-0.41C0.145,-0.432 0.17,-0.449 0.199,-0.462C0.228,-0.474 0.259,-0.48 0.292,-0.48C0.329,-0.48 0.361,-0.474 0.389,-0.462C0.417,-0.449 0.44,-0.433 0.459,-0.412C0.478,-0.391 0.492,-0.366 0.502,-0.338C0.511,-0.31 0.516,-0.28 0.516,-0.248Z" style="fill-rule:nonzero;"/>
                </g>
                <g transform="matrix(66.6667,0,0,66.6667,516.626,1598.22)">
                    <path d="M0.385,-0.302C0.385,-0.343 0.374,-0.373 0.353,-0.393C0.332,-0.413 0.301,-0.423 0.26,-0.423C0.232,-0.423 0.206,-0.418 0.182,-0.408C0.158,-0.398 0.138,-0.385 0.121,-0.368L0.083,-0.413C0.102,-0.432 0.128,-0.448 0.16,-0.461C0.191,-0.474 0.227,-0.48 0.267,-0.48C0.292,-0.48 0.316,-0.476 0.338,-0.47C0.36,-0.463 0.379,-0.452 0.396,-0.438C0.413,-0.424 0.426,-0.406 0.435,-0.385C0.444,-0.364 0.449,-0.339 0.449,-0.31L0.449,-0.105C0.449,-0.087 0.45,-0.068 0.451,-0.049C0.452,-0.03 0.454,-0.013 0.457,-0L0.396,-0C0.394,-0.011 0.392,-0.024 0.391,-0.037C0.39,-0.05 0.389,-0.063 0.389,-0.076L0.387,-0.076C0.366,-0.045 0.341,-0.022 0.315,-0.009C0.288,0.005 0.255,0.012 0.217,0.012C0.199,0.012 0.181,0.01 0.162,0.005C0.142,-0 0.125,-0.009 0.11,-0.02C0.094,-0.031 0.081,-0.046 0.071,-0.064C0.06,-0.082 0.055,-0.104 0.055,-0.13C0.055,-0.166 0.064,-0.195 0.083,-0.216C0.101,-0.237 0.125,-0.252 0.156,-0.263C0.187,-0.273 0.222,-0.28 0.262,-0.283C0.301,-0.286 0.342,-0.287 0.385,-0.287L0.385,-0.302ZM0.365,-0.234C0.337,-0.234 0.309,-0.233 0.281,-0.231C0.252,-0.228 0.227,-0.224 0.204,-0.217C0.181,-0.21 0.162,-0.199 0.147,-0.186C0.132,-0.173 0.125,-0.155 0.125,-0.133C0.125,-0.116 0.128,-0.102 0.135,-0.091C0.141,-0.08 0.149,-0.07 0.16,-0.064C0.171,-0.056 0.183,-0.051 0.196,-0.049C0.209,-0.046 0.222,-0.044 0.235,-0.044C0.259,-0.044 0.28,-0.048 0.299,-0.057C0.318,-0.065 0.333,-0.076 0.346,-0.091C0.359,-0.105 0.368,-0.121 0.375,-0.14C0.382,-0.159 0.385,-0.178 0.385,-0.199L0.385,-0.234L0.365,-0.234Z" style="fill-rule:nonzero;"/>
                </g>
                <g transform="matrix(66.6667,0,0,66.6667,552.226,1598.22)">
                    <path d="M0.427,-0.361C0.416,-0.379 0.399,-0.394 0.378,-0.406C0.356,-0.417 0.332,-0.423 0.307,-0.423C0.28,-0.423 0.255,-0.418 0.233,-0.409C0.211,-0.399 0.192,-0.386 0.177,-0.369C0.161,-0.352 0.149,-0.332 0.141,-0.309C0.132,-0.286 0.128,-0.261 0.128,-0.234C0.128,-0.207 0.132,-0.183 0.141,-0.16C0.149,-0.137 0.161,-0.118 0.176,-0.101C0.191,-0.084 0.21,-0.07 0.232,-0.061C0.254,-0.051 0.279,-0.046 0.306,-0.046C0.336,-0.046 0.361,-0.052 0.382,-0.063C0.403,-0.074 0.42,-0.089 0.433,-0.107L0.484,-0.069C0.464,-0.044 0.44,-0.025 0.411,-0.01C0.382,0.005 0.347,0.012 0.306,0.012C0.268,0.012 0.234,0.006 0.203,-0.007C0.172,-0.019 0.146,-0.036 0.125,-0.058C0.103,-0.08 0.086,-0.106 0.074,-0.136C0.062,-0.166 0.056,-0.199 0.056,-0.234C0.056,-0.269 0.062,-0.302 0.074,-0.332C0.086,-0.362 0.103,-0.388 0.125,-0.41C0.146,-0.432 0.172,-0.449 0.203,-0.462C0.234,-0.474 0.268,-0.48 0.306,-0.48C0.337,-0.48 0.369,-0.473 0.402,-0.46C0.434,-0.446 0.46,-0.426 0.48,-0.399L0.427,-0.361Z" style="fill-rule:nonzero;"/>
                </g>
                <g transform="matrix(66.6667,0,0,66.6667,585.559,1598.22)">
                    <path d="M0.301,-0.411L0.169,-0.411L0.169,-0.138C0.169,-0.121 0.171,-0.106 0.174,-0.095C0.177,-0.084 0.182,-0.075 0.189,-0.069C0.195,-0.062 0.202,-0.058 0.211,-0.056C0.22,-0.053 0.229,-0.052 0.239,-0.052C0.248,-0.052 0.258,-0.053 0.269,-0.056C0.279,-0.059 0.289,-0.062 0.298,-0.067L0.301,-0.008C0.289,-0.003 0.277,0 0.264,0.003C0.251,0.005 0.236,0.006 0.221,0.006C0.208,0.006 0.195,0.004 0.181,0.001C0.167,-0.002 0.154,-0.009 0.142,-0.018C0.13,-0.027 0.12,-0.04 0.113,-0.056C0.105,-0.072 0.101,-0.093 0.101,-0.119L0.101,-0.411L0.004,-0.411L0.004,-0.468L0.101,-0.468L0.101,-0.6L0.169,-0.6L0.169,-0.468L0.301,-0.468L0.301,-0.411Z" style="fill-rule:nonzero;"/>
                </g>
                <g transform="matrix(66.6667,0,0,66.6667,606.692,1598.22)">
                    <path d="M0.159,-0L0.091,-0L0.091,-0.468L0.159,-0.468L0.159,-0ZM0.173,-0.648C0.173,-0.634 0.168,-0.623 0.158,-0.614C0.148,-0.604 0.137,-0.6 0.125,-0.6C0.113,-0.6 0.102,-0.604 0.092,-0.614C0.082,-0.623 0.077,-0.634 0.077,-0.648C0.077,-0.662 0.082,-0.674 0.092,-0.683C0.102,-0.692 0.113,-0.696 0.125,-0.696C0.137,-0.696 0.148,-0.692 0.158,-0.683C0.168,-0.674 0.173,-0.662 0.173,-0.648Z" style="fill-rule:nonzero;"/>
                </g>
                <g transform="matrix(66.6667,0,0,66.6667,623.359,1598.22)">
                    <path d="M0.555,-0.234C0.555,-0.199 0.549,-0.166 0.537,-0.136C0.524,-0.106 0.507,-0.08 0.485,-0.058C0.463,-0.036 0.437,-0.019 0.406,-0.007C0.375,0.006 0.342,0.012 0.305,0.012C0.269,0.012 0.236,0.006 0.205,-0.007C0.174,-0.019 0.148,-0.036 0.126,-0.058C0.104,-0.08 0.087,-0.106 0.075,-0.136C0.062,-0.166 0.056,-0.199 0.056,-0.234C0.056,-0.269 0.062,-0.302 0.075,-0.332C0.087,-0.362 0.104,-0.388 0.126,-0.41C0.148,-0.432 0.174,-0.449 0.205,-0.462C0.236,-0.474 0.269,-0.48 0.305,-0.48C0.342,-0.48 0.375,-0.474 0.406,-0.462C0.437,-0.449 0.463,-0.432 0.485,-0.41C0.507,-0.388 0.524,-0.362 0.537,-0.332C0.549,-0.302 0.555,-0.269 0.555,-0.234ZM0.483,-0.234C0.483,-0.26 0.479,-0.285 0.471,-0.308C0.462,-0.331 0.45,-0.351 0.435,-0.368C0.42,-0.385 0.401,-0.398 0.379,-0.408C0.357,-0.418 0.332,-0.423 0.305,-0.423C0.278,-0.423 0.253,-0.418 0.232,-0.408C0.21,-0.398 0.191,-0.385 0.176,-0.368C0.161,-0.351 0.149,-0.331 0.141,-0.308C0.132,-0.285 0.128,-0.26 0.128,-0.234C0.128,-0.208 0.132,-0.184 0.141,-0.161C0.149,-0.137 0.161,-0.118 0.176,-0.101C0.191,-0.084 0.21,-0.07 0.232,-0.061C0.253,-0.051 0.278,-0.046 0.305,-0.046C0.332,-0.046 0.357,-0.051 0.379,-0.061C0.401,-0.07 0.42,-0.084 0.435,-0.101C0.45,-0.118 0.462,-0.137 0.471,-0.161C0.479,-0.184 0.483,-0.208 0.483,-0.234Z" style="fill-rule:nonzero;"/>
                </g>
                <g transform="matrix(66.6667,0,0,66.6667,664.092,1598.22)">
                    <path d="M0.151,-0.468C0.152,-0.455 0.153,-0.441 0.154,-0.426C0.155,-0.411 0.155,-0.398 0.155,-0.388L0.157,-0.388C0.17,-0.415 0.192,-0.438 0.222,-0.455C0.252,-0.471 0.284,-0.48 0.317,-0.48C0.376,-0.48 0.421,-0.462 0.451,-0.427C0.48,-0.392 0.495,-0.345 0.495,-0.287L0.495,-0L0.427,-0L0.427,-0.259C0.427,-0.284 0.425,-0.306 0.421,-0.326C0.417,-0.346 0.41,-0.363 0.401,-0.378C0.391,-0.392 0.378,-0.403 0.362,-0.411C0.345,-0.419 0.325,-0.423 0.3,-0.423C0.282,-0.423 0.265,-0.419 0.248,-0.412C0.231,-0.405 0.215,-0.394 0.202,-0.379C0.189,-0.364 0.178,-0.345 0.17,-0.322C0.162,-0.299 0.158,-0.271 0.158,-0.24L0.158,-0L0.09,-0L0.09,-0.365C0.09,-0.378 0.09,-0.394 0.089,-0.414C0.088,-0.434 0.087,-0.452 0.086,-0.468L0.151,-0.468Z" style="fill-rule:nonzero;"/>
                </g>
                <g transform="matrix(66.6667,0,0,66.6667,702.826,1598.22)">
                    <path d="M0.339,-0.357C0.329,-0.376 0.314,-0.392 0.294,-0.405C0.273,-0.417 0.25,-0.423 0.224,-0.423C0.212,-0.423 0.2,-0.422 0.188,-0.419C0.176,-0.416 0.165,-0.412 0.156,-0.406C0.147,-0.4 0.139,-0.392 0.134,-0.383C0.128,-0.374 0.125,-0.363 0.125,-0.35C0.125,-0.328 0.134,-0.311 0.152,-0.3C0.17,-0.288 0.198,-0.278 0.237,-0.27C0.292,-0.259 0.333,-0.242 0.36,-0.221C0.386,-0.199 0.399,-0.17 0.399,-0.133C0.399,-0.106 0.394,-0.084 0.384,-0.066C0.373,-0.047 0.36,-0.032 0.343,-0.021C0.326,-0.009 0.308,-0 0.287,0.005C0.266,0.01 0.244,0.012 0.223,0.012C0.188,0.012 0.153,0.005 0.12,-0.01C0.087,-0.025 0.059,-0.048 0.038,-0.079L0.092,-0.119C0.104,-0.098 0.122,-0.081 0.145,-0.067C0.168,-0.053 0.194,-0.046 0.222,-0.046C0.237,-0.046 0.251,-0.047 0.264,-0.05C0.277,-0.053 0.289,-0.057 0.299,-0.064C0.309,-0.071 0.317,-0.079 0.323,-0.09C0.329,-0.1 0.332,-0.113 0.332,-0.128C0.332,-0.153 0.32,-0.171 0.297,-0.184C0.273,-0.196 0.239,-0.207 0.194,-0.218C0.18,-0.221 0.165,-0.226 0.15,-0.231C0.134,-0.236 0.119,-0.243 0.106,-0.253C0.093,-0.262 0.082,-0.274 0.073,-0.289C0.064,-0.304 0.06,-0.322 0.06,-0.344C0.06,-0.368 0.065,-0.389 0.074,-0.406C0.083,-0.423 0.096,-0.436 0.112,-0.448C0.127,-0.459 0.145,-0.467 0.165,-0.472C0.185,-0.477 0.206,-0.48 0.227,-0.48C0.26,-0.48 0.291,-0.473 0.322,-0.458C0.353,-0.443 0.376,-0.423 0.391,-0.396L0.339,-0.357Z" style="fill-rule:nonzero;"/>
                </g>
            </g>
            <g transform="matrix(0.24,0,0,0.24,-189.56,-85.1815)">
                <g transform="matrix(66.6667,0,0,66.6667,1007.75,495.132)">
                    <path d="M0.447,-0.524C0.432,-0.543 0.413,-0.558 0.39,-0.569C0.366,-0.58 0.343,-0.585 0.321,-0.585C0.31,-0.585 0.298,-0.584 0.287,-0.582C0.275,-0.58 0.264,-0.576 0.255,-0.571C0.246,-0.565 0.238,-0.558 0.232,-0.549C0.225,-0.54 0.222,-0.528 0.222,-0.514C0.222,-0.502 0.225,-0.492 0.23,-0.484C0.235,-0.476 0.242,-0.469 0.252,-0.463C0.261,-0.457 0.273,-0.452 0.286,-0.447C0.299,-0.442 0.314,-0.436 0.331,-0.431C0.355,-0.423 0.38,-0.414 0.406,-0.405C0.432,-0.395 0.456,-0.382 0.477,-0.366C0.498,-0.35 0.516,-0.33 0.53,-0.307C0.544,-0.283 0.551,-0.253 0.551,-0.218C0.551,-0.177 0.544,-0.142 0.529,-0.113C0.514,-0.083 0.493,-0.058 0.468,-0.039C0.443,-0.02 0.414,-0.005 0.381,0.004C0.348,0.013 0.315,0.018 0.28,0.018C0.229,0.018 0.18,0.009 0.133,-0.009C0.086,-0.026 0.046,-0.051 0.015,-0.084L0.127,-0.198C0.144,-0.177 0.167,-0.159 0.196,-0.145C0.224,-0.13 0.252,-0.123 0.28,-0.123C0.293,-0.123 0.305,-0.124 0.317,-0.127C0.329,-0.13 0.339,-0.134 0.349,-0.14C0.358,-0.146 0.365,-0.154 0.37,-0.164C0.375,-0.174 0.378,-0.186 0.378,-0.2C0.378,-0.213 0.375,-0.225 0.368,-0.234C0.361,-0.243 0.352,-0.252 0.34,-0.26C0.327,-0.267 0.312,-0.274 0.294,-0.281C0.275,-0.287 0.254,-0.294 0.231,-0.301C0.208,-0.308 0.186,-0.317 0.165,-0.327C0.143,-0.337 0.124,-0.35 0.107,-0.366C0.09,-0.381 0.076,-0.4 0.066,-0.423C0.055,-0.445 0.05,-0.472 0.05,-0.504C0.05,-0.543 0.058,-0.577 0.074,-0.605C0.09,-0.633 0.111,-0.656 0.137,-0.674C0.163,-0.692 0.192,-0.705 0.225,-0.714C0.258,-0.722 0.291,-0.726 0.324,-0.726C0.364,-0.726 0.405,-0.719 0.447,-0.704C0.488,-0.689 0.525,-0.668 0.556,-0.639L0.447,-0.524Z" style="fill:white;fill-rule:nonzero;"/>
                </g>
                <g transform="matrix(66.6667,0,0,66.6667,1046.28,495.132)">
                    <path d="M0.376,-0.562L0.376,-0L0.205,-0L0.205,-0.562L0.005,-0.562L0.005,-0.708L0.576,-0.708L0.576,-0.562L0.376,-0.562Z" style="fill:white;fill-rule:nonzero;"/>
                </g>
                <g transform="matrix(66.6667,0,0,66.6667,1081.02,495.132)">
                    <path d="M0.553,-0L0.498,-0.139L0.224,-0.139L0.172,-0L-0.014,-0L0.283,-0.708L0.449,-0.708L0.743,-0L0.553,-0ZM0.363,-0.519L0.273,-0.276L0.451,-0.276L0.363,-0.519Z" style="fill:white;fill-rule:nonzero;"/>
                </g>
                <g transform="matrix(66.6667,0,0,66.6667,1129.62,495.132)">
                    <path d="M0.452,-0L0.299,-0.281L0.241,-0.281L0.241,-0L0.073,-0L0.073,-0.708L0.343,-0.708C0.377,-0.708 0.41,-0.705 0.443,-0.698C0.475,-0.691 0.504,-0.679 0.53,-0.662C0.555,-0.645 0.576,-0.623 0.591,-0.596C0.606,-0.569 0.614,-0.535 0.614,-0.494C0.614,-0.446 0.601,-0.406 0.575,-0.373C0.549,-0.34 0.513,-0.317 0.467,-0.303L0.652,-0L0.452,-0ZM0.445,-0.491C0.445,-0.508 0.442,-0.521 0.435,-0.532C0.428,-0.542 0.419,-0.55 0.408,-0.556C0.397,-0.561 0.384,-0.565 0.371,-0.567C0.357,-0.569 0.344,-0.57 0.331,-0.57L0.24,-0.57L0.24,-0.405L0.321,-0.405C0.335,-0.405 0.349,-0.406 0.364,-0.409C0.379,-0.411 0.392,-0.415 0.404,-0.421C0.416,-0.427 0.426,-0.436 0.434,-0.447C0.441,-0.458 0.445,-0.473 0.445,-0.491Z" style="fill:white;fill-rule:nonzero;"/>
                </g>
                <g transform="matrix(66.6667,0,0,66.6667,1173.02,495.132)">
                    <path d="M0.376,-0.562L0.376,-0L0.205,-0L0.205,-0.562L0.005,-0.562L0.005,-0.708L0.576,-0.708L0.576,-0.562L0.376,-0.562Z" style="fill:white;fill-rule:nonzero;"/>
                </g>
                <g transform="matrix(66.6667,0,0,66.6667,1226.82,495.132)">
                    <path d="M0.696,-0.098C0.665,-0.062 0.626,-0.033 0.58,-0.013C0.534,0.008 0.481,0.019 0.421,0.019C0.366,0.019 0.316,0.01 0.27,-0.008C0.223,-0.026 0.183,-0.052 0.149,-0.085C0.115,-0.118 0.088,-0.157 0.069,-0.203C0.05,-0.249 0.04,-0.3 0.04,-0.355C0.04,-0.412 0.05,-0.463 0.07,-0.509C0.089,-0.555 0.116,-0.594 0.151,-0.627C0.186,-0.659 0.226,-0.684 0.273,-0.701C0.32,-0.718 0.37,-0.727 0.424,-0.727C0.474,-0.727 0.523,-0.718 0.572,-0.701C0.62,-0.683 0.659,-0.657 0.689,-0.623L0.573,-0.507C0.557,-0.529 0.536,-0.545 0.51,-0.556C0.484,-0.567 0.457,-0.572 0.43,-0.572C0.4,-0.572 0.373,-0.567 0.348,-0.556C0.323,-0.545 0.301,-0.529 0.283,-0.51C0.265,-0.491 0.251,-0.468 0.241,-0.442C0.231,-0.415 0.226,-0.386 0.226,-0.355C0.226,-0.323 0.231,-0.294 0.241,-0.267C0.251,-0.24 0.265,-0.218 0.283,-0.199C0.3,-0.18 0.321,-0.165 0.346,-0.154C0.371,-0.143 0.398,-0.138 0.427,-0.138C0.461,-0.138 0.491,-0.145 0.516,-0.158C0.541,-0.171 0.562,-0.189 0.577,-0.21L0.696,-0.098Z" style="fill:white;fill-rule:nonzero;"/>
                </g>
                <g transform="matrix(66.6667,0,0,66.6667,1273.22,495.132)">
                    <path d="M0.52,-0L0.52,-0.296L0.244,-0.296L0.244,-0L0.073,-0L0.073,-0.708L0.244,-0.708L0.244,-0.44L0.52,-0.44L0.52,-0.708L0.691,-0.708L0.691,-0L0.52,-0Z" style="fill:white;fill-rule:nonzero;"/>
                </g>
                <g transform="matrix(66.6667,0,0,66.6667,1324.15,495.132)">
                    <path d="M0.553,-0L0.498,-0.139L0.224,-0.139L0.172,-0L-0.014,-0L0.283,-0.708L0.449,-0.708L0.743,-0L0.553,-0ZM0.363,-0.519L0.273,-0.276L0.451,-0.276L0.363,-0.519Z" style="fill:white;fill-rule:nonzero;"/>
                </g>
                <g transform="matrix(66.6667,0,0,66.6667,1372.75,495.132)">
                    <path d="M0.073,-0L0.073,-0.708L0.245,-0.708L0.245,-0.149L0.519,-0.149L0.519,-0L0.073,-0Z" style="fill:white;fill-rule:nonzero;"/>
                </g>
                <g transform="matrix(66.6667,0,0,66.6667,1407.82,495.132)">
                    <path d="M0.073,-0L0.073,-0.708L0.245,-0.708L0.245,-0.149L0.519,-0.149L0.519,-0L0.073,-0Z" style="fill:white;fill-rule:nonzero;"/>
                </g>
                <g transform="matrix(66.6667,0,0,66.6667,1442.88,495.132)">
                    <path d="M0.073,-0L0.073,-0.708L0.549,-0.708L0.549,-0.563L0.238,-0.563L0.238,-0.43L0.532,-0.43L0.532,-0.293L0.238,-0.293L0.238,-0.146L0.567,-0.146L0.567,-0L0.073,-0Z" style="fill:white;fill-rule:nonzero;"/>
                </g>
                <g transform="matrix(66.6667,0,0,66.6667,1483.35,495.132)">
                    <path d="M0.523,-0L0.238,-0.463L0.235,-0.463L0.239,-0L0.073,-0L0.073,-0.708L0.268,-0.708L0.552,-0.246L0.555,-0.246L0.551,-0.708L0.717,-0.708L0.717,-0L0.523,-0Z" style="fill:white;fill-rule:nonzero;"/>
                </g>
                <g transform="matrix(66.6667,0,0,66.6667,1536.02,495.132)">
                    <path d="M0.702,-0.043C0.667,-0.025 0.627,-0.01 0.581,0.001C0.534,0.012 0.484,0.018 0.429,0.018C0.372,0.018 0.32,0.009 0.273,-0.009C0.225,-0.027 0.184,-0.052 0.15,-0.085C0.115,-0.118 0.088,-0.157 0.069,-0.203C0.05,-0.248 0.04,-0.299 0.04,-0.355C0.04,-0.412 0.05,-0.463 0.07,-0.509C0.089,-0.555 0.116,-0.594 0.151,-0.627C0.186,-0.659 0.226,-0.684 0.273,-0.701C0.32,-0.718 0.37,-0.727 0.424,-0.727C0.48,-0.727 0.532,-0.719 0.58,-0.702C0.628,-0.685 0.667,-0.662 0.697,-0.633L0.589,-0.51C0.572,-0.529 0.55,-0.545 0.523,-0.558C0.496,-0.57 0.465,-0.576 0.43,-0.576C0.4,-0.576 0.372,-0.571 0.347,-0.56C0.322,-0.549 0.3,-0.533 0.281,-0.514C0.262,-0.494 0.248,-0.47 0.238,-0.444C0.227,-0.417 0.222,-0.387 0.222,-0.355C0.222,-0.322 0.227,-0.292 0.236,-0.265C0.245,-0.238 0.259,-0.214 0.278,-0.195C0.296,-0.175 0.319,-0.16 0.346,-0.149C0.373,-0.137 0.403,-0.132 0.438,-0.132C0.458,-0.132 0.477,-0.134 0.495,-0.137C0.513,-0.14 0.53,-0.144 0.545,-0.151L0.545,-0.28L0.41,-0.28L0.41,-0.418L0.702,-0.418L0.702,-0.043Z" style="fill:white;fill-rule:nonzero;"/>
                </g>
                <g transform="matrix(66.6667,0,0,66.6667,1587.28,495.132)">
                    <path d="M0.073,-0L0.073,-0.708L0.549,-0.708L0.549,-0.563L0.238,-0.563L0.238,-0.43L0.532,-0.43L0.532,-0.293L0.238,-0.293L0.238,-0.146L0.567,-0.146L0.567,-0L0.073,-0Z" style="fill:white;fill-rule:nonzero;"/>
                </g>
            </g>
            <g transform="matrix(0.24,0,0,0.24,28.4004,184.819)">
                <g transform="matrix(66.6667,0,0,66.6667,1167.82,495.132)">
                    <path d="M0.447,-0.524C0.432,-0.543 0.413,-0.558 0.39,-0.569C0.366,-0.58 0.343,-0.585 0.321,-0.585C0.31,-0.585 0.298,-0.584 0.287,-0.582C0.275,-0.58 0.264,-0.576 0.255,-0.571C0.246,-0.565 0.238,-0.558 0.232,-0.549C0.225,-0.54 0.222,-0.528 0.222,-0.514C0.222,-0.502 0.225,-0.492 0.23,-0.484C0.235,-0.476 0.242,-0.469 0.252,-0.463C0.261,-0.457 0.273,-0.452 0.286,-0.447C0.299,-0.442 0.314,-0.436 0.331,-0.431C0.355,-0.423 0.38,-0.414 0.406,-0.405C0.432,-0.395 0.456,-0.382 0.477,-0.366C0.498,-0.35 0.516,-0.33 0.53,-0.307C0.544,-0.283 0.551,-0.253 0.551,-0.218C0.551,-0.177 0.544,-0.142 0.529,-0.113C0.514,-0.083 0.493,-0.058 0.468,-0.039C0.443,-0.02 0.414,-0.005 0.381,0.004C0.348,0.013 0.315,0.018 0.28,0.018C0.229,0.018 0.18,0.009 0.133,-0.009C0.086,-0.026 0.046,-0.051 0.015,-0.084L0.127,-0.198C0.144,-0.177 0.167,-0.159 0.196,-0.145C0.224,-0.13 0.252,-0.123 0.28,-0.123C0.293,-0.123 0.305,-0.124 0.317,-0.127C0.329,-0.13 0.339,-0.134 0.349,-0.14C0.358,-0.146 0.365,-0.154 0.37,-0.164C0.375,-0.174 0.378,-0.186 0.378,-0.2C0.378,-0.213 0.375,-0.225 0.368,-0.234C0.361,-0.243 0.352,-0.252 0.34,-0.26C0.327,-0.267 0.312,-0.274 0.294,-0.281C0.275,-0.287 0.254,-0.294 0.231,-0.301C0.208,-0.308 0.186,-0.317 0.165,-0.327C0.143,-0.337 0.124,-0.35 0.107,-0.366C0.09,-0.381 0.076,-0.4 0.066,-0.423C0.055,-0.445 0.05,-0.472 0.05,-0.504C0.05,-0.543 0.058,-0.577 0.074,-0.605C0.09,-0.633 0.111,-0.656 0.137,-0.674C0.163,-0.692 0.192,-0.705 0.225,-0.714C0.258,-0.722 0.291,-0.726 0.324,-0.726C0.364,-0.726 0.405,-0.719 0.447,-0.704C0.488,-0.689 0.525,-0.668 0.556,-0.639L0.447,-0.524Z" style="fill:white;fill-rule:nonzero;"/>
                </g>
                <g transform="matrix(66.6667,0,0,66.6667,1207.22,495.132)">
                    <path d="M0.673,-0.267C0.673,-0.224 0.666,-0.186 0.652,-0.151C0.637,-0.116 0.617,-0.086 0.59,-0.061C0.563,-0.035 0.531,-0.016 0.494,-0.002C0.456,0.012 0.414,0.019 0.368,0.019C0.321,0.019 0.279,0.012 0.242,-0.002C0.205,-0.016 0.173,-0.035 0.147,-0.061C0.121,-0.086 0.101,-0.116 0.087,-0.151C0.073,-0.186 0.066,-0.224 0.066,-0.267L0.066,-0.708L0.236,-0.708L0.236,-0.281C0.236,-0.262 0.239,-0.243 0.244,-0.226C0.249,-0.209 0.256,-0.193 0.267,-0.18C0.277,-0.166 0.291,-0.155 0.308,-0.147C0.325,-0.139 0.345,-0.135 0.369,-0.135C0.393,-0.135 0.413,-0.139 0.431,-0.147C0.448,-0.155 0.461,-0.166 0.472,-0.18C0.483,-0.193 0.49,-0.209 0.495,-0.226C0.5,-0.243 0.502,-0.262 0.502,-0.281L0.502,-0.708L0.673,-0.708L0.673,-0.267Z" style="fill:white;fill-rule:nonzero;"/>
                </g>
                <g transform="matrix(66.6667,0,0,66.6667,1256.42,495.132)">
                    <path d="M0.696,-0.098C0.665,-0.062 0.626,-0.033 0.58,-0.013C0.534,0.008 0.481,0.019 0.421,0.019C0.366,0.019 0.316,0.01 0.27,-0.008C0.223,-0.026 0.183,-0.052 0.149,-0.085C0.115,-0.118 0.088,-0.157 0.069,-0.203C0.05,-0.249 0.04,-0.3 0.04,-0.355C0.04,-0.412 0.05,-0.463 0.07,-0.509C0.089,-0.555 0.116,-0.594 0.151,-0.627C0.186,-0.659 0.226,-0.684 0.273,-0.701C0.32,-0.718 0.37,-0.727 0.424,-0.727C0.474,-0.727 0.523,-0.718 0.572,-0.701C0.62,-0.683 0.659,-0.657 0.689,-0.623L0.573,-0.507C0.557,-0.529 0.536,-0.545 0.51,-0.556C0.484,-0.567 0.457,-0.572 0.43,-0.572C0.4,-0.572 0.373,-0.567 0.348,-0.556C0.323,-0.545 0.301,-0.529 0.283,-0.51C0.265,-0.491 0.251,-0.468 0.241,-0.442C0.231,-0.415 0.226,-0.386 0.226,-0.355C0.226,-0.323 0.231,-0.294 0.241,-0.267C0.251,-0.24 0.265,-0.218 0.283,-0.199C0.3,-0.18 0.321,-0.165 0.346,-0.154C0.371,-0.143 0.398,-0.138 0.427,-0.138C0.461,-0.138 0.491,-0.145 0.516,-0.158C0.541,-0.171 0.562,-0.189 0.577,-0.21L0.696,-0.098Z" style="fill:white;fill-rule:nonzero;"/>
                </g>
                <g transform="matrix(66.6667,0,0,66.6667,1302.02,495.132)">
                    <path d="M0.696,-0.098C0.665,-0.062 0.626,-0.033 0.58,-0.013C0.534,0.008 0.481,0.019 0.421,0.019C0.366,0.019 0.316,0.01 0.27,-0.008C0.223,-0.026 0.183,-0.052 0.149,-0.085C0.115,-0.118 0.088,-0.157 0.069,-0.203C0.05,-0.249 0.04,-0.3 0.04,-0.355C0.04,-0.412 0.05,-0.463 0.07,-0.509C0.089,-0.555 0.116,-0.594 0.151,-0.627C0.186,-0.659 0.226,-0.684 0.273,-0.701C0.32,-0.718 0.37,-0.727 0.424,-0.727C0.474,-0.727 0.523,-0.718 0.572,-0.701C0.62,-0.683 0.659,-0.657 0.689,-0.623L0.573,-0.507C0.557,-0.529 0.536,-0.545 0.51,-0.556C0.484,-0.567 0.457,-0.572 0.43,-0.572C0.4,-0.572 0.373,-0.567 0.348,-0.556C0.323,-0.545 0.301,-0.529 0.283,-0.51C0.265,-0.491 0.251,-0.468 0.241,-0.442C0.231,-0.415 0.226,-0.386 0.226,-0.355C0.226,-0.323 0.231,-0.294 0.241,-0.267C0.251,-0.24 0.265,-0.218 0.283,-0.199C0.3,-0.18 0.321,-0.165 0.346,-0.154C0.371,-0.143 0.398,-0.138 0.427,-0.138C0.461,-0.138 0.491,-0.145 0.516,-0.158C0.541,-0.171 0.562,-0.189 0.577,-0.21L0.696,-0.098Z" style="fill:white;fill-rule:nonzero;"/>
                </g>
                <g transform="matrix(66.6667,0,0,66.6667,1348.42,495.132)">
                    <path d="M0.073,-0L0.073,-0.708L0.549,-0.708L0.549,-0.563L0.238,-0.563L0.238,-0.43L0.532,-0.43L0.532,-0.293L0.238,-0.293L0.238,-0.146L0.567,-0.146L0.567,-0L0.073,-0Z" style="fill:white;fill-rule:nonzero;"/>
                </g>
                <g transform="matrix(66.6667,0,0,66.6667,1388.88,495.132)">
                    <path d="M0.447,-0.524C0.432,-0.543 0.413,-0.558 0.39,-0.569C0.366,-0.58 0.343,-0.585 0.321,-0.585C0.31,-0.585 0.298,-0.584 0.287,-0.582C0.275,-0.58 0.264,-0.576 0.255,-0.571C0.246,-0.565 0.238,-0.558 0.232,-0.549C0.225,-0.54 0.222,-0.528 0.222,-0.514C0.222,-0.502 0.225,-0.492 0.23,-0.484C0.235,-0.476 0.242,-0.469 0.252,-0.463C0.261,-0.457 0.273,-0.452 0.286,-0.447C0.299,-0.442 0.314,-0.436 0.331,-0.431C0.355,-0.423 0.38,-0.414 0.406,-0.405C0.432,-0.395 0.456,-0.382 0.477,-0.366C0.498,-0.35 0.516,-0.33 0.53,-0.307C0.544,-0.283 0.551,-0.253 0.551,-0.218C0.551,-0.177 0.544,-0.142 0.529,-0.113C0.514,-0.083 0.493,-0.058 0.468,-0.039C0.443,-0.02 0.414,-0.005 0.381,0.004C0.348,0.013 0.315,0.018 0.28,0.018C0.229,0.018 0.18,0.009 0.133,-0.009C0.086,-0.026 0.046,-0.051 0.015,-0.084L0.127,-0.198C0.144,-0.177 0.167,-0.159 0.196,-0.145C0.224,-0.13 0.252,-0.123 0.28,-0.123C0.293,-0.123 0.305,-0.124 0.317,-0.127C0.329,-0.13 0.339,-0.134 0.349,-0.14C0.358,-0.146 0.365,-0.154 0.37,-0.164C0.375,-0.174 0.378,-0.186 0.378,-0.2C0.378,-0.213 0.375,-0.225 0.368,-0.234C0.361,-0.243 0.352,-0.252 0.34,-0.26C0.327,-0.267 0.312,-0.274 0.294,-0.281C0.275,-0.287 0.254,-0.294 0.231,-0.301C0.208,-0.308 0.186,-0.317 0.165,-0.327C0.143,-0.337 0.124,-0.35 0.107,-0.366C0.09,-0.381 0.076,-0.4 0.066,-0.423C0.055,-0.445 0.05,-0.472 0.05,-0.504C0.05,-0.543 0.058,-0.577 0.074,-0.605C0.09,-0.633 0.111,-0.656 0.137,-0.674C0.163,-0.692 0.192,-0.705 0.225,-0.714C0.258,-0.722 0.291,-0.726 0.324,-0.726C0.364,-0.726 0.405,-0.719 0.447,-0.704C0.488,-0.689 0.525,-0.668 0.556,-0.639L0.447,-0.524Z" style="fill:white;fill-rule:nonzero;"/>
                </g>
                <g transform="matrix(66.6667,0,0,66.6667,1428.28,495.132)">
                    <path d="M0.447,-0.524C0.432,-0.543 0.413,-0.558 0.39,-0.569C0.366,-0.58 0.343,-0.585 0.321,-0.585C0.31,-0.585 0.298,-0.584 0.287,-0.582C0.275,-0.58 0.264,-0.576 0.255,-0.571C0.246,-0.565 0.238,-0.558 0.232,-0.549C0.225,-0.54 0.222,-0.528 0.222,-0.514C0.222,-0.502 0.225,-0.492 0.23,-0.484C0.235,-0.476 0.242,-0.469 0.252,-0.463C0.261,-0.457 0.273,-0.452 0.286,-0.447C0.299,-0.442 0.314,-0.436 0.331,-0.431C0.355,-0.423 0.38,-0.414 0.406,-0.405C0.432,-0.395 0.456,-0.382 0.477,-0.366C0.498,-0.35 0.516,-0.33 0.53,-0.307C0.544,-0.283 0.551,-0.253 0.551,-0.218C0.551,-0.177 0.544,-0.142 0.529,-0.113C0.514,-0.083 0.493,-0.058 0.468,-0.039C0.443,-0.02 0.414,-0.005 0.381,0.004C0.348,0.013 0.315,0.018 0.28,0.018C0.229,0.018 0.18,0.009 0.133,-0.009C0.086,-0.026 0.046,-0.051 0.015,-0.084L0.127,-0.198C0.144,-0.177 0.167,-0.159 0.196,-0.145C0.224,-0.13 0.252,-0.123 0.28,-0.123C0.293,-0.123 0.305,-0.124 0.317,-0.127C0.329,-0.13 0.339,-0.134 0.349,-0.14C0.358,-0.146 0.365,-0.154 0.37,-0.164C0.375,-0.174 0.378,-0.186 0.378,-0.2C0.378,-0.213 0.375,-0.225 0.368,-0.234C0.361,-0.243 0.352,-0.252 0.34,-0.26C0.327,-0.267 0.312,-0.274 0.294,-0.281C0.275,-0.287 0.254,-0.294 0.231,-0.301C0.208,-0.308 0.186,-0.317 0.165,-0.327C0.143,-0.337 0.124,-0.35 0.107,-0.366C0.09,-0.381 0.076,-0.4 0.066,-0.423C0.055,-0.445 0.05,-0.472 0.05,-0.504C0.05,-0.543 0.058,-0.577 0.074,-0.605C0.09,-0.633 0.111,-0.656 0.137,-0.674C0.163,-0.692 0.192,-0.705 0.225,-0.714C0.258,-0.722 0.291,-0.726 0.324,-0.726C0.364,-0.726 0.405,-0.719 0.447,-0.704C0.488,-0.689 0.525,-0.668 0.556,-0.639L0.447,-0.524Z" style="fill:white;fill-rule:nonzero;"/>
                </g>
            </g>
            <g transform="matrix(0.24,0,0,0.24,27.9764,274.667)">
                <g transform="matrix(66.6667,0,0,66.6667,1181.78,495.132)">
                    <path d="M0.242,-0.562L0.242,-0.416L0.516,-0.416L0.516,-0.275L0.242,-0.275L0.242,-0L0.073,-0L0.073,-0.708L0.539,-0.708L0.539,-0.562L0.242,-0.562Z" style="fill:white;fill-rule:nonzero;"/>
                </g>
                <g transform="matrix(66.6667,0,0,66.6667,1216.58,495.132)">
                    <path d="M0.553,-0L0.498,-0.139L0.224,-0.139L0.172,-0L-0.014,-0L0.283,-0.708L0.449,-0.708L0.743,-0L0.553,-0ZM0.363,-0.519L0.273,-0.276L0.451,-0.276L0.363,-0.519Z" style="fill:white;fill-rule:nonzero;"/>
                </g>
                <g transform="matrix(66.6667,0,0,66.6667,1265.18,495.132)">
                    <rect x="0.073" y="-0.708" width="0.172" height="0.708" style="fill:white;fill-rule:nonzero;"/>
                </g>
                <g transform="matrix(66.6667,0,0,66.6667,1286.38,495.132)">
                    <path d="M0.073,-0L0.073,-0.708L0.245,-0.708L0.245,-0.149L0.519,-0.149L0.519,-0L0.073,-0Z" style="fill:white;fill-rule:nonzero;"/>
                </g>
                <g transform="matrix(66.6667,0,0,66.6667,1319.85,495.132)">
                    <path d="M0.673,-0.267C0.673,-0.224 0.666,-0.186 0.652,-0.151C0.637,-0.116 0.617,-0.086 0.59,-0.061C0.563,-0.035 0.531,-0.016 0.494,-0.002C0.456,0.012 0.414,0.019 0.368,0.019C0.321,0.019 0.279,0.012 0.242,-0.002C0.205,-0.016 0.173,-0.035 0.147,-0.061C0.121,-0.086 0.101,-0.116 0.087,-0.151C0.073,-0.186 0.066,-0.224 0.066,-0.267L0.066,-0.708L0.236,-0.708L0.236,-0.281C0.236,-0.262 0.239,-0.243 0.244,-0.226C0.249,-0.209 0.256,-0.193 0.267,-0.18C0.277,-0.166 0.291,-0.155 0.308,-0.147C0.325,-0.139 0.345,-0.135 0.369,-0.135C0.393,-0.135 0.413,-0.139 0.431,-0.147C0.448,-0.155 0.461,-0.166 0.472,-0.18C0.483,-0.193 0.49,-0.209 0.495,-0.226C0.5,-0.243 0.502,-0.262 0.502,-0.281L0.502,-0.708L0.673,-0.708L0.673,-0.267Z" style="fill:white;fill-rule:nonzero;"/>
                </g>
                <g transform="matrix(66.6667,0,0,66.6667,1369.05,495.132)">
                    <path d="M0.452,-0L0.299,-0.281L0.241,-0.281L0.241,-0L0.073,-0L0.073,-0.708L0.343,-0.708C0.377,-0.708 0.41,-0.705 0.443,-0.698C0.475,-0.691 0.504,-0.679 0.53,-0.662C0.555,-0.645 0.576,-0.623 0.591,-0.596C0.606,-0.569 0.614,-0.535 0.614,-0.494C0.614,-0.446 0.601,-0.406 0.575,-0.373C0.549,-0.34 0.513,-0.317 0.467,-0.303L0.652,-0L0.452,-0ZM0.445,-0.491C0.445,-0.508 0.442,-0.521 0.435,-0.532C0.428,-0.542 0.419,-0.55 0.408,-0.556C0.397,-0.561 0.384,-0.565 0.371,-0.567C0.357,-0.569 0.344,-0.57 0.331,-0.57L0.24,-0.57L0.24,-0.405L0.321,-0.405C0.335,-0.405 0.349,-0.406 0.364,-0.409C0.379,-0.411 0.392,-0.415 0.404,-0.421C0.416,-0.427 0.426,-0.436 0.434,-0.447C0.441,-0.458 0.445,-0.473 0.445,-0.491Z" style="fill:white;fill-rule:nonzero;"/>
                </g>
                <g transform="matrix(66.6667,0,0,66.6667,1413.25,495.132)">
                    <path d="M0.073,-0L0.073,-0.708L0.549,-0.708L0.549,-0.563L0.238,-0.563L0.238,-0.43L0.532,-0.43L0.532,-0.293L0.238,-0.293L0.238,-0.146L0.567,-0.146L0.567,-0L0.073,-0Z" style="fill:white;fill-rule:nonzero;"/>
                </g>
            </g>
        </g>
    </g>
</svg>
