<?xml version="1.0" encoding="UTF-8" standalone="no"?>
<!DOCTYPE svg PUBLIC "-//W3C//DTD SVG 1.1//EN" "http://www.w3.org/Graphics/SVG/1.1/DTD/svg11.dtd">
<svg width="100%" height="100%" viewBox="0 0 2027 480" version="1.1" xmlns="http://www.w3.org/2000/svg" xmlns:xlink="http://www.w3.org/1999/xlink" xml:space="preserve" xmlns:serif="http://www.serif.com/" style="fill-rule:evenodd;clip-rule:evenodd;stroke-linejoin:round;stroke-miterlimit:2;">
    <rect id="Artboard1" x="0" y="0" width="2026.8" height="479.1" style="fill:none;"/>
    <g id="Artboard11" serif:id="Artboard1">
        <g id="Layer-1" serif:id="Layer 1" transform="matrix(4.16667,0,0,4.16667,0,0)">
            <g transform="matrix(1,0,0,1,0,-14.9183)">
                <g transform="matrix(0.24,0,0,0.24,-92.6489,48.5334)">
                    <g transform="matrix(266.667,0,0,266.667,430.629,134.261)">
                        <path d="M0.068,-0L0.068,-0.14L0.344,-0.39C0.361,-0.407 0.375,-0.424 0.386,-0.441C0.397,-0.458 0.402,-0.478 0.402,-0.499C0.402,-0.524 0.394,-0.545 0.378,-0.561C0.362,-0.576 0.341,-0.584 0.314,-0.584C0.286,-0.584 0.263,-0.574 0.246,-0.555C0.228,-0.535 0.217,-0.509 0.214,-0.477L0.053,-0.499C0.057,-0.535 0.067,-0.567 0.083,-0.595C0.098,-0.623 0.118,-0.647 0.142,-0.667C0.166,-0.686 0.194,-0.701 0.225,-0.712C0.256,-0.722 0.288,-0.727 0.323,-0.727C0.356,-0.727 0.387,-0.723 0.418,-0.714C0.449,-0.705 0.476,-0.692 0.5,-0.674C0.524,-0.656 0.543,-0.633 0.558,-0.606C0.572,-0.579 0.579,-0.547 0.579,-0.51C0.579,-0.485 0.576,-0.462 0.569,-0.442C0.562,-0.421 0.553,-0.402 0.542,-0.385C0.53,-0.368 0.517,-0.352 0.502,-0.337C0.487,-0.322 0.471,-0.307 0.455,-0.292L0.291,-0.146L0.58,-0.146L0.58,-0L0.068,-0Z" style="fill-rule:nonzero;"/>
                    </g>
                </g>
                <g transform="matrix(0.24,0,0,0.24,12.7474,9.93416)">
                    <g transform="matrix(75,0,0,75,-24.3971,418.06)">
                        <path d="M0.073,-0L0.073,-0.708L0.549,-0.708L0.549,-0.563L0.238,-0.563L0.238,-0.43L0.532,-0.43L0.532,-0.293L0.238,-0.293L0.238,-0.146L0.567,-0.146L0.567,-0L0.073,-0Z" style="fill-rule:nonzero;"/>
                    </g>
                    <g transform="matrix(75,0,0,75,21.1279,418.06)">
                        <path d="M0.553,-0L0.498,-0.139L0.224,-0.139L0.172,-0L-0.014,-0L0.283,-0.708L0.449,-0.708L0.743,-0L0.553,-0ZM0.363,-0.519L0.273,-0.276L0.451,-0.276L0.363,-0.519Z" style="fill-rule:nonzero;"/>
                    </g>
                    <g transform="matrix(75,0,0,75,75.8029,418.06)">
                        <path d="M0.447,-0.524C0.432,-0.543 0.413,-0.558 0.39,-0.569C0.366,-0.58 0.343,-0.585 0.321,-0.585C0.31,-0.585 0.298,-0.584 0.287,-0.582C0.275,-0.58 0.264,-0.576 0.255,-0.571C0.246,-0.565 0.238,-0.558 0.232,-0.549C0.225,-0.54 0.222,-0.528 0.222,-0.514C0.222,-0.502 0.225,-0.492 0.23,-0.484C0.235,-0.476 0.242,-0.469 0.252,-0.463C0.261,-0.457 0.273,-0.452 0.286,-0.447C0.299,-0.442 0.314,-0.436 0.331,-0.431C0.355,-0.423 0.38,-0.414 0.406,-0.405C0.432,-0.395 0.456,-0.382 0.477,-0.366C0.498,-0.35 0.516,-0.33 0.53,-0.307C0.544,-0.283 0.551,-0.253 0.551,-0.218C0.551,-0.177 0.544,-0.142 0.529,-0.113C0.514,-0.083 0.493,-0.058 0.468,-0.039C0.443,-0.02 0.414,-0.005 0.381,0.004C0.348,0.013 0.315,0.018 0.28,0.018C0.229,0.018 0.18,0.009 0.133,-0.009C0.086,-0.026 0.046,-0.051 0.015,-0.084L0.127,-0.198C0.144,-0.177 0.167,-0.159 0.196,-0.145C0.224,-0.13 0.252,-0.123 0.28,-0.123C0.293,-0.123 0.305,-0.124 0.317,-0.127C0.329,-0.13 0.339,-0.134 0.349,-0.14C0.358,-0.146 0.365,-0.154 0.37,-0.164C0.375,-0.174 0.378,-0.186 0.378,-0.2C0.378,-0.213 0.375,-0.225 0.368,-0.234C0.361,-0.243 0.352,-0.252 0.34,-0.26C0.327,-0.267 0.312,-0.274 0.294,-0.281C0.275,-0.287 0.254,-0.294 0.231,-0.301C0.208,-0.308 0.186,-0.317 0.165,-0.327C0.143,-0.337 0.124,-0.35 0.107,-0.366C0.09,-0.381 0.076,-0.4 0.066,-0.423C0.055,-0.445 0.05,-0.472 0.05,-0.504C0.05,-0.543 0.058,-0.577 0.074,-0.605C0.09,-0.633 0.111,-0.656 0.137,-0.674C0.163,-0.692 0.192,-0.705 0.225,-0.714C0.258,-0.722 0.291,-0.726 0.324,-0.726C0.364,-0.726 0.405,-0.719 0.447,-0.704C0.488,-0.689 0.525,-0.668 0.556,-0.639L0.447,-0.524Z" style="fill-rule:nonzero;"/>
                    </g>
                    <g transform="matrix(75,0,0,75,119.003,418.06)">
                        <path d="M0.417,-0.3L0.417,-0L0.246,-0L0.246,-0.3L-0.02,-0.708L0.187,-0.708L0.338,-0.446L0.489,-0.708L0.689,-0.708L0.417,-0.3Z" style="fill-rule:nonzero;"/>
                    </g>
                </g>
            </g>
            <g transform="matrix(1,0,0,1,0,-15.2313)">
                <g transform="matrix(0.24,0,0,0.24,-21.4025,52.0618)">
                    <g transform="matrix(266.667,0,0,266.667,532.207,117.026)">
                        <path d="M0.515,-0.138L0.515,-0L0.358,-0L0.358,-0.138L0.025,-0.138L0.025,-0.279L0.313,-0.708L0.514,-0.708L0.514,-0.274L0.612,-0.274L0.612,-0.138L0.515,-0.138ZM0.359,-0.536L0.356,-0.536L0.188,-0.274L0.359,-0.274L0.359,-0.536Z" style="fill-rule:nonzero;"/>
                    </g>
                </g>
                <g transform="matrix(0.24,0,0,0.24,108.744,9.93416)">
                    <g transform="matrix(75,0,0,75,-96.8846,418.06)">
                        <path d="M0.523,-0L0.238,-0.463L0.235,-0.463L0.239,-0L0.073,-0L0.073,-0.708L0.268,-0.708L0.552,-0.246L0.555,-0.246L0.551,-0.708L0.717,-0.708L0.717,-0L0.523,-0Z" style="fill-rule:nonzero;"/>
                    </g>
                    <g transform="matrix(75,0,0,75,-37.6346,418.06)">
                        <path d="M0.811,-0.357C0.811,-0.301 0.801,-0.25 0.782,-0.204C0.763,-0.157 0.736,-0.118 0.702,-0.085C0.667,-0.052 0.626,-0.026 0.579,-0.008C0.532,0.01 0.48,0.019 0.425,0.019C0.37,0.019 0.319,0.01 0.272,-0.008C0.225,-0.026 0.184,-0.052 0.15,-0.085C0.115,-0.118 0.088,-0.157 0.069,-0.204C0.05,-0.25 0.04,-0.301 0.04,-0.357C0.04,-0.414 0.05,-0.465 0.069,-0.511C0.088,-0.556 0.115,-0.595 0.15,-0.627C0.184,-0.659 0.225,-0.684 0.272,-0.701C0.319,-0.718 0.37,-0.727 0.425,-0.727C0.48,-0.727 0.532,-0.718 0.579,-0.701C0.626,-0.684 0.667,-0.659 0.702,-0.627C0.736,-0.595 0.763,-0.556 0.782,-0.511C0.801,-0.465 0.811,-0.414 0.811,-0.357ZM0.628,-0.357C0.628,-0.388 0.623,-0.416 0.613,-0.443C0.603,-0.47 0.589,-0.493 0.572,-0.512C0.554,-0.531 0.533,-0.546 0.508,-0.557C0.483,-0.568 0.455,-0.573 0.425,-0.573C0.395,-0.573 0.368,-0.568 0.343,-0.557C0.318,-0.546 0.297,-0.531 0.279,-0.512C0.261,-0.493 0.247,-0.47 0.238,-0.443C0.228,-0.416 0.223,-0.388 0.223,-0.357C0.223,-0.325 0.228,-0.296 0.238,-0.269C0.248,-0.242 0.262,-0.218 0.28,-0.199C0.297,-0.18 0.318,-0.165 0.343,-0.154C0.368,-0.142 0.395,-0.137 0.425,-0.137C0.455,-0.137 0.482,-0.142 0.507,-0.154C0.532,-0.165 0.553,-0.18 0.571,-0.199C0.589,-0.218 0.603,-0.242 0.613,-0.269C0.623,-0.296 0.628,-0.325 0.628,-0.357Z" style="fill-rule:nonzero;"/>
                    </g>
                    <g transform="matrix(75,0,0,75,26.1904,418.06)">
                        <path d="M0.452,-0L0.299,-0.281L0.241,-0.281L0.241,-0L0.073,-0L0.073,-0.708L0.343,-0.708C0.377,-0.708 0.41,-0.705 0.443,-0.698C0.475,-0.691 0.504,-0.679 0.53,-0.662C0.555,-0.645 0.576,-0.623 0.591,-0.596C0.606,-0.569 0.614,-0.535 0.614,-0.494C0.614,-0.446 0.601,-0.406 0.575,-0.373C0.549,-0.34 0.513,-0.317 0.467,-0.303L0.652,-0L0.452,-0ZM0.445,-0.491C0.445,-0.508 0.442,-0.521 0.435,-0.532C0.428,-0.542 0.419,-0.55 0.408,-0.556C0.397,-0.561 0.384,-0.565 0.371,-0.567C0.357,-0.569 0.344,-0.57 0.331,-0.57L0.24,-0.57L0.24,-0.405L0.321,-0.405C0.335,-0.405 0.349,-0.406 0.364,-0.409C0.379,-0.411 0.392,-0.415 0.404,-0.421C0.416,-0.427 0.426,-0.436 0.434,-0.447C0.441,-0.458 0.445,-0.473 0.445,-0.491Z" style="fill-rule:nonzero;"/>
                    </g>
                    <g transform="matrix(75,0,0,75,75.9154,418.06)">
                        <path d="M0.715,-0L0.719,-0.501L0.716,-0.501L0.532,-0L0.412,-0L0.233,-0.501L0.23,-0.501L0.234,-0L0.073,-0L0.073,-0.708L0.316,-0.708L0.477,-0.254L0.481,-0.254L0.635,-0.708L0.882,-0.708L0.882,-0L0.715,-0Z" style="fill-rule:nonzero;"/>
                    </g>
                    <g transform="matrix(75,0,0,75,147.54,418.06)">
                        <path d="M0.553,-0L0.498,-0.139L0.224,-0.139L0.172,-0L-0.014,-0L0.283,-0.708L0.449,-0.708L0.743,-0L0.553,-0ZM0.363,-0.519L0.273,-0.276L0.451,-0.276L0.363,-0.519Z" style="fill-rule:nonzero;"/>
                    </g>
                    <g transform="matrix(75,0,0,75,202.215,418.06)">
                        <path d="M0.073,-0L0.073,-0.708L0.245,-0.708L0.245,-0.149L0.519,-0.149L0.519,-0L0.073,-0Z" style="fill-rule:nonzero;"/>
                    </g>
                </g>
            </g>
            <g transform="matrix(1,0,0,1,0,-14.7443)">
                <g transform="matrix(0.24,0,0,0.24,85.8203,31.5835)">
                    <g transform="matrix(266.667,0,0,266.667,487.617,199.819)">
                        <path d="M0.601,-0.238C0.601,-0.198 0.594,-0.162 0.579,-0.13C0.564,-0.098 0.544,-0.071 0.519,-0.049C0.494,-0.027 0.464,-0.01 0.43,0.002C0.396,0.013 0.36,0.019 0.322,0.019C0.283,0.019 0.247,0.013 0.214,0.002C0.18,-0.01 0.15,-0.027 0.125,-0.049C0.1,-0.071 0.08,-0.098 0.065,-0.129C0.05,-0.16 0.043,-0.195 0.043,-0.234C0.043,-0.276 0.05,-0.314 0.065,-0.349C0.08,-0.383 0.099,-0.418 0.122,-0.453L0.293,-0.708L0.496,-0.708L0.322,-0.466L0.319,-0.461C0.326,-0.464 0.334,-0.466 0.343,-0.467C0.352,-0.468 0.361,-0.469 0.369,-0.469C0.4,-0.469 0.429,-0.464 0.458,-0.453C0.486,-0.442 0.51,-0.426 0.532,-0.406C0.553,-0.385 0.569,-0.361 0.582,-0.333C0.595,-0.304 0.601,-0.273 0.601,-0.238ZM0.433,-0.234C0.433,-0.266 0.423,-0.293 0.403,-0.314C0.383,-0.335 0.356,-0.345 0.323,-0.345C0.29,-0.345 0.263,-0.335 0.242,-0.314C0.221,-0.293 0.211,-0.266 0.211,-0.233C0.211,-0.202 0.221,-0.176 0.241,-0.154C0.261,-0.132 0.288,-0.121 0.322,-0.121C0.355,-0.121 0.382,-0.131 0.403,-0.152C0.423,-0.173 0.433,-0.2 0.433,-0.234Z" style="fill-rule:nonzero;"/>
                    </g>
                </g>
                <g transform="matrix(0.24,0,0,0.24,205.786,9.91016)">
                    <g transform="matrix(75,0,0,75,-37.4846,418.06)">
                        <path d="M0.52,-0L0.52,-0.296L0.244,-0.296L0.244,-0L0.073,-0L0.073,-0.708L0.244,-0.708L0.244,-0.44L0.52,-0.44L0.52,-0.708L0.691,-0.708L0.691,-0L0.52,-0Z" style="fill-rule:nonzero;"/>
                    </g>
                    <g transform="matrix(75,0,0,75,19.8154,418.06)">
                        <path d="M0.553,-0L0.498,-0.139L0.224,-0.139L0.172,-0L-0.014,-0L0.283,-0.708L0.449,-0.708L0.743,-0L0.553,-0ZM0.363,-0.519L0.273,-0.276L0.451,-0.276L0.363,-0.519Z" style="fill-rule:nonzero;"/>
                    </g>
                    <g transform="matrix(75,0,0,75,74.4904,418.06)">
                        <path d="M0.452,-0L0.299,-0.281L0.241,-0.281L0.241,-0L0.073,-0L0.073,-0.708L0.343,-0.708C0.377,-0.708 0.41,-0.705 0.443,-0.698C0.475,-0.691 0.504,-0.679 0.53,-0.662C0.555,-0.645 0.576,-0.623 0.591,-0.596C0.606,-0.569 0.614,-0.535 0.614,-0.494C0.614,-0.446 0.601,-0.406 0.575,-0.373C0.549,-0.34 0.513,-0.317 0.467,-0.303L0.652,-0L0.452,-0ZM0.445,-0.491C0.445,-0.508 0.442,-0.521 0.435,-0.532C0.428,-0.542 0.419,-0.55 0.408,-0.556C0.397,-0.561 0.384,-0.565 0.371,-0.567C0.357,-0.569 0.344,-0.57 0.331,-0.57L0.24,-0.57L0.24,-0.405L0.321,-0.405C0.335,-0.405 0.349,-0.406 0.364,-0.409C0.379,-0.411 0.392,-0.415 0.404,-0.421C0.416,-0.427 0.426,-0.436 0.434,-0.447C0.441,-0.458 0.445,-0.473 0.445,-0.491Z" style="fill-rule:nonzero;"/>
                    </g>
                    <g transform="matrix(75,0,0,75,124.215,418.06)">
                        <path d="M0.734,-0.356C0.734,-0.294 0.723,-0.241 0.7,-0.196C0.677,-0.151 0.646,-0.114 0.609,-0.085C0.571,-0.056 0.528,-0.034 0.481,-0.021C0.434,-0.007 0.386,-0 0.337,-0L0.073,-0L0.073,-0.708L0.329,-0.708C0.379,-0.708 0.428,-0.702 0.477,-0.691C0.526,-0.679 0.569,-0.66 0.607,-0.633C0.645,-0.606 0.676,-0.569 0.699,-0.524C0.722,-0.479 0.734,-0.423 0.734,-0.356ZM0.556,-0.356C0.556,-0.396 0.55,-0.429 0.537,-0.456C0.524,-0.482 0.506,-0.503 0.485,-0.519C0.463,-0.534 0.438,-0.545 0.411,-0.552C0.383,-0.559 0.354,-0.562 0.325,-0.562L0.24,-0.562L0.24,-0.148L0.321,-0.148C0.352,-0.148 0.381,-0.152 0.41,-0.159C0.438,-0.166 0.463,-0.177 0.485,-0.193C0.506,-0.209 0.524,-0.23 0.537,-0.257C0.55,-0.284 0.556,-0.317 0.556,-0.356Z" style="fill-rule:nonzero;"/>
                    </g>
                </g>
            </g>
            <g transform="matrix(1,0,0,1,0,-14.3953)">
                <g transform="matrix(0.24,0,0,0.24,155.186,36.3473)">
                    <g transform="matrix(266.667,0,0,266.667,594.097,182.503)">
                        <path d="M0.589,-0.202C0.589,-0.165 0.582,-0.132 0.567,-0.105C0.552,-0.077 0.533,-0.054 0.509,-0.036C0.484,-0.017 0.456,-0.004 0.424,0.006C0.391,0.014 0.358,0.019 0.323,0.019C0.288,0.019 0.254,0.014 0.222,0.006C0.19,-0.004 0.162,-0.017 0.138,-0.035C0.113,-0.053 0.094,-0.076 0.079,-0.104C0.064,-0.131 0.057,-0.164 0.057,-0.201C0.057,-0.222 0.06,-0.242 0.067,-0.261C0.074,-0.279 0.083,-0.295 0.095,-0.31C0.106,-0.324 0.12,-0.336 0.135,-0.347C0.15,-0.357 0.167,-0.365 0.184,-0.37L0.184,-0.372C0.153,-0.383 0.128,-0.402 0.107,-0.428C0.086,-0.453 0.076,-0.486 0.076,-0.525C0.076,-0.558 0.083,-0.587 0.096,-0.612C0.109,-0.637 0.127,-0.659 0.15,-0.676C0.173,-0.693 0.199,-0.705 0.229,-0.714C0.259,-0.723 0.29,-0.727 0.323,-0.727C0.356,-0.727 0.387,-0.723 0.417,-0.715C0.446,-0.706 0.472,-0.694 0.495,-0.677C0.518,-0.66 0.536,-0.64 0.55,-0.615C0.563,-0.59 0.57,-0.561 0.57,-0.528C0.57,-0.489 0.56,-0.456 0.54,-0.429C0.52,-0.402 0.494,-0.384 0.462,-0.373L0.462,-0.37C0.48,-0.365 0.497,-0.357 0.512,-0.347C0.527,-0.336 0.541,-0.324 0.552,-0.31C0.563,-0.295 0.572,-0.279 0.579,-0.261C0.586,-0.242 0.589,-0.223 0.589,-0.202ZM0.408,-0.516C0.408,-0.539 0.4,-0.559 0.383,-0.574C0.366,-0.589 0.346,-0.597 0.323,-0.597C0.298,-0.597 0.277,-0.589 0.262,-0.574C0.247,-0.559 0.239,-0.539 0.239,-0.516C0.239,-0.493 0.247,-0.474 0.262,-0.457C0.277,-0.44 0.297,-0.432 0.323,-0.432C0.348,-0.432 0.368,-0.44 0.384,-0.457C0.4,-0.474 0.408,-0.493 0.408,-0.516ZM0.421,-0.208C0.421,-0.235 0.412,-0.258 0.394,-0.277C0.375,-0.295 0.352,-0.304 0.323,-0.304C0.294,-0.304 0.27,-0.295 0.252,-0.277C0.233,-0.259 0.224,-0.236 0.224,-0.208C0.224,-0.179 0.233,-0.157 0.252,-0.14C0.27,-0.123 0.294,-0.114 0.323,-0.114C0.352,-0.114 0.376,-0.123 0.394,-0.14C0.412,-0.157 0.421,-0.179 0.421,-0.208Z" style="fill-rule:nonzero;"/>
                    </g>
                </g>
                <g transform="matrix(0.24,0,0,0.24,301.68,9.47816)">
                    <g transform="matrix(75,0,0,75,-65.3471,418.06)">
                        <path d="M0.376,-0.562L0.376,-0L0.205,-0L0.205,-0.562L0.005,-0.562L0.005,-0.708L0.576,-0.708L0.576,-0.562L0.376,-0.562Z" style="fill-rule:nonzero;"/>
                    </g>
                    <g transform="matrix(75,0,0,75,-24.0221,418.06)">
                        <path d="M0.811,-0.357C0.811,-0.301 0.801,-0.25 0.782,-0.204C0.763,-0.157 0.736,-0.118 0.702,-0.085C0.667,-0.052 0.626,-0.026 0.579,-0.008C0.532,0.01 0.48,0.019 0.425,0.019C0.37,0.019 0.319,0.01 0.272,-0.008C0.225,-0.026 0.184,-0.052 0.15,-0.085C0.115,-0.118 0.088,-0.157 0.069,-0.204C0.05,-0.25 0.04,-0.301 0.04,-0.357C0.04,-0.414 0.05,-0.465 0.069,-0.511C0.088,-0.556 0.115,-0.595 0.15,-0.627C0.184,-0.659 0.225,-0.684 0.272,-0.701C0.319,-0.718 0.37,-0.727 0.425,-0.727C0.48,-0.727 0.532,-0.718 0.579,-0.701C0.626,-0.684 0.667,-0.659 0.702,-0.627C0.736,-0.595 0.763,-0.556 0.782,-0.511C0.801,-0.465 0.811,-0.414 0.811,-0.357ZM0.628,-0.357C0.628,-0.388 0.623,-0.416 0.613,-0.443C0.603,-0.47 0.589,-0.493 0.572,-0.512C0.554,-0.531 0.533,-0.546 0.508,-0.557C0.483,-0.568 0.455,-0.573 0.425,-0.573C0.395,-0.573 0.368,-0.568 0.343,-0.557C0.318,-0.546 0.297,-0.531 0.279,-0.512C0.261,-0.493 0.247,-0.47 0.238,-0.443C0.228,-0.416 0.223,-0.388 0.223,-0.357C0.223,-0.325 0.228,-0.296 0.238,-0.269C0.248,-0.242 0.262,-0.218 0.28,-0.199C0.297,-0.18 0.318,-0.165 0.343,-0.154C0.368,-0.142 0.395,-0.137 0.425,-0.137C0.455,-0.137 0.482,-0.142 0.507,-0.154C0.532,-0.165 0.553,-0.18 0.571,-0.199C0.589,-0.218 0.603,-0.242 0.613,-0.269C0.623,-0.296 0.628,-0.325 0.628,-0.357Z" style="fill-rule:nonzero;"/>
                    </g>
                    <g transform="matrix(75,0,0,75,39.8029,418.06)">
                        <path d="M0.673,-0.267C0.673,-0.224 0.666,-0.186 0.652,-0.151C0.637,-0.116 0.617,-0.086 0.59,-0.061C0.563,-0.035 0.531,-0.016 0.494,-0.002C0.456,0.012 0.414,0.019 0.368,0.019C0.321,0.019 0.279,0.012 0.242,-0.002C0.205,-0.016 0.173,-0.035 0.147,-0.061C0.121,-0.086 0.101,-0.116 0.087,-0.151C0.073,-0.186 0.066,-0.224 0.066,-0.267L0.066,-0.708L0.236,-0.708L0.236,-0.281C0.236,-0.262 0.239,-0.243 0.244,-0.226C0.249,-0.209 0.256,-0.193 0.267,-0.18C0.277,-0.166 0.291,-0.155 0.308,-0.147C0.325,-0.139 0.345,-0.135 0.369,-0.135C0.393,-0.135 0.413,-0.139 0.431,-0.147C0.448,-0.155 0.461,-0.166 0.472,-0.18C0.483,-0.193 0.49,-0.209 0.495,-0.226C0.5,-0.243 0.502,-0.262 0.502,-0.281L0.502,-0.708L0.673,-0.708L0.673,-0.267Z" style="fill-rule:nonzero;"/>
                    </g>
                    <g transform="matrix(75,0,0,75,95.1529,418.06)">
                        <path d="M0.702,-0.043C0.667,-0.025 0.627,-0.01 0.581,0.001C0.534,0.012 0.484,0.018 0.429,0.018C0.372,0.018 0.32,0.009 0.273,-0.009C0.225,-0.027 0.184,-0.052 0.15,-0.085C0.115,-0.118 0.088,-0.157 0.069,-0.203C0.05,-0.248 0.04,-0.299 0.04,-0.355C0.04,-0.412 0.05,-0.463 0.07,-0.509C0.089,-0.555 0.116,-0.594 0.151,-0.627C0.186,-0.659 0.226,-0.684 0.273,-0.701C0.32,-0.718 0.37,-0.727 0.424,-0.727C0.48,-0.727 0.532,-0.719 0.58,-0.702C0.628,-0.685 0.667,-0.662 0.697,-0.633L0.589,-0.51C0.572,-0.529 0.55,-0.545 0.523,-0.558C0.496,-0.57 0.465,-0.576 0.43,-0.576C0.4,-0.576 0.372,-0.571 0.347,-0.56C0.322,-0.549 0.3,-0.533 0.281,-0.514C0.262,-0.494 0.248,-0.47 0.238,-0.444C0.227,-0.417 0.222,-0.387 0.222,-0.355C0.222,-0.322 0.227,-0.292 0.236,-0.265C0.245,-0.238 0.259,-0.214 0.278,-0.195C0.296,-0.175 0.319,-0.16 0.346,-0.149C0.373,-0.137 0.403,-0.132 0.438,-0.132C0.458,-0.132 0.477,-0.134 0.495,-0.137C0.513,-0.14 0.53,-0.144 0.545,-0.151L0.545,-0.28L0.41,-0.28L0.41,-0.418L0.702,-0.418L0.702,-0.043Z" style="fill-rule:nonzero;"/>
                    </g>
                    <g transform="matrix(75,0,0,75,152.828,418.06)">
                        <path d="M0.52,-0L0.52,-0.296L0.244,-0.296L0.244,-0L0.073,-0L0.073,-0.708L0.244,-0.708L0.244,-0.44L0.52,-0.44L0.52,-0.708L0.691,-0.708L0.691,-0L0.52,-0Z" style="fill-rule:nonzero;"/>
                    </g>
                </g>
            </g>
            <g transform="matrix(1,0,0,1,0,-14.3833)">
                <g transform="matrix(0.24,0,0,0.24,239.569,30.0915)">
                    <g transform="matrix(266.667,0,0,266.667,632.942,208.569)">
                        <path d="M0.283,-0L0.283,-0.52L0.151,-0.418L0.064,-0.537L0.297,-0.708L0.451,-0.708L0.451,-0L0.283,-0Z" style="fill-rule:nonzero;"/>
                    </g>
                    <g transform="matrix(266.667,0,0,266.667,805.209,208.569)">
                        <path d="M0.6,-0.356C0.6,-0.306 0.595,-0.258 0.585,-0.213C0.575,-0.168 0.559,-0.128 0.537,-0.094C0.515,-0.059 0.487,-0.032 0.452,-0.012C0.417,0.009 0.374,0.019 0.324,0.019C0.274,0.019 0.231,0.009 0.196,-0.012C0.161,-0.032 0.132,-0.059 0.11,-0.094C0.087,-0.128 0.071,-0.168 0.061,-0.213C0.051,-0.258 0.046,-0.306 0.046,-0.356C0.046,-0.406 0.051,-0.454 0.061,-0.499C0.071,-0.544 0.087,-0.583 0.11,-0.617C0.132,-0.65 0.161,-0.677 0.196,-0.697C0.231,-0.717 0.274,-0.727 0.324,-0.727C0.374,-0.727 0.417,-0.717 0.452,-0.697C0.487,-0.677 0.515,-0.65 0.537,-0.617C0.559,-0.583 0.575,-0.544 0.585,-0.499C0.595,-0.454 0.6,-0.406 0.6,-0.356ZM0.428,-0.356C0.428,-0.378 0.427,-0.402 0.424,-0.429C0.421,-0.456 0.416,-0.481 0.409,-0.504C0.402,-0.527 0.391,-0.546 0.378,-0.562C0.364,-0.577 0.346,-0.585 0.324,-0.585C0.302,-0.585 0.284,-0.577 0.27,-0.562C0.256,-0.546 0.245,-0.527 0.238,-0.504C0.23,-0.481 0.225,-0.456 0.222,-0.429C0.219,-0.402 0.218,-0.378 0.218,-0.356C0.218,-0.333 0.219,-0.309 0.222,-0.282C0.225,-0.255 0.23,-0.23 0.238,-0.207C0.245,-0.184 0.256,-0.164 0.27,-0.149C0.284,-0.133 0.302,-0.125 0.324,-0.125C0.346,-0.125 0.364,-0.133 0.378,-0.149C0.391,-0.164 0.402,-0.184 0.409,-0.207C0.416,-0.23 0.421,-0.255 0.424,-0.282C0.427,-0.309 0.428,-0.333 0.428,-0.356Z" style="fill-rule:nonzero;"/>
                    </g>
                </g>
                <g transform="matrix(0.24,0,0,0.24,416.462,9.45416)">
                    <g transform="matrix(75,0,0,75,-118.26,418.06)">
                        <path d="M0.553,-0L0.498,-0.139L0.224,-0.139L0.172,-0L-0.014,-0L0.283,-0.708L0.449,-0.708L0.743,-0L0.553,-0ZM0.363,-0.519L0.273,-0.276L0.451,-0.276L0.363,-0.519Z" style="fill-rule:nonzero;"/>
                    </g>
                    <g transform="matrix(75,0,0,75,-63.5846,418.06)">
                        <path d="M0.452,-0L0.299,-0.281L0.241,-0.281L0.241,-0L0.073,-0L0.073,-0.708L0.343,-0.708C0.377,-0.708 0.41,-0.705 0.443,-0.698C0.475,-0.691 0.504,-0.679 0.53,-0.662C0.555,-0.645 0.576,-0.623 0.591,-0.596C0.606,-0.569 0.614,-0.535 0.614,-0.494C0.614,-0.446 0.601,-0.406 0.575,-0.373C0.549,-0.34 0.513,-0.317 0.467,-0.303L0.652,-0L0.452,-0ZM0.445,-0.491C0.445,-0.508 0.442,-0.521 0.435,-0.532C0.428,-0.542 0.419,-0.55 0.408,-0.556C0.397,-0.561 0.384,-0.565 0.371,-0.567C0.357,-0.569 0.344,-0.57 0.331,-0.57L0.24,-0.57L0.24,-0.405L0.321,-0.405C0.335,-0.405 0.349,-0.406 0.364,-0.409C0.379,-0.411 0.392,-0.415 0.404,-0.421C0.416,-0.427 0.426,-0.436 0.434,-0.447C0.441,-0.458 0.445,-0.473 0.445,-0.491Z" style="fill-rule:nonzero;"/>
                    </g>
                    <g transform="matrix(75,0,0,75,-13.8596,418.06)">
                        <path d="M0.734,-0.356C0.734,-0.294 0.723,-0.241 0.7,-0.196C0.677,-0.151 0.646,-0.114 0.609,-0.085C0.571,-0.056 0.528,-0.034 0.481,-0.021C0.434,-0.007 0.386,-0 0.337,-0L0.073,-0L0.073,-0.708L0.329,-0.708C0.379,-0.708 0.428,-0.702 0.477,-0.691C0.526,-0.679 0.569,-0.66 0.607,-0.633C0.645,-0.606 0.676,-0.569 0.699,-0.524C0.722,-0.479 0.734,-0.423 0.734,-0.356ZM0.556,-0.356C0.556,-0.396 0.55,-0.429 0.537,-0.456C0.524,-0.482 0.506,-0.503 0.485,-0.519C0.463,-0.534 0.438,-0.545 0.411,-0.552C0.383,-0.559 0.354,-0.562 0.325,-0.562L0.24,-0.562L0.24,-0.148L0.321,-0.148C0.352,-0.148 0.381,-0.152 0.41,-0.159C0.438,-0.166 0.463,-0.177 0.485,-0.193C0.506,-0.209 0.524,-0.23 0.537,-0.257C0.55,-0.284 0.556,-0.317 0.556,-0.356Z" style="fill-rule:nonzero;"/>
                    </g>
                    <g transform="matrix(75,0,0,75,44.1904,418.06)">
                        <path d="M0.673,-0.267C0.673,-0.224 0.666,-0.186 0.652,-0.151C0.637,-0.116 0.617,-0.086 0.59,-0.061C0.563,-0.035 0.531,-0.016 0.494,-0.002C0.456,0.012 0.414,0.019 0.368,0.019C0.321,0.019 0.279,0.012 0.242,-0.002C0.205,-0.016 0.173,-0.035 0.147,-0.061C0.121,-0.086 0.101,-0.116 0.087,-0.151C0.073,-0.186 0.066,-0.224 0.066,-0.267L0.066,-0.708L0.236,-0.708L0.236,-0.281C0.236,-0.262 0.239,-0.243 0.244,-0.226C0.249,-0.209 0.256,-0.193 0.267,-0.18C0.277,-0.166 0.291,-0.155 0.308,-0.147C0.325,-0.139 0.345,-0.135 0.369,-0.135C0.393,-0.135 0.413,-0.139 0.431,-0.147C0.448,-0.155 0.461,-0.166 0.472,-0.18C0.483,-0.193 0.49,-0.209 0.495,-0.226C0.5,-0.243 0.502,-0.262 0.502,-0.281L0.502,-0.708L0.673,-0.708L0.673,-0.267Z" style="fill-rule:nonzero;"/>
                    </g>
                    <g transform="matrix(75,0,0,75,99.5404,418.06)">
                        <path d="M0.811,-0.357C0.811,-0.301 0.801,-0.25 0.782,-0.204C0.763,-0.157 0.736,-0.118 0.702,-0.085C0.667,-0.052 0.626,-0.026 0.579,-0.008C0.532,0.01 0.48,0.019 0.425,0.019C0.37,0.019 0.319,0.01 0.272,-0.008C0.225,-0.026 0.184,-0.052 0.15,-0.085C0.115,-0.118 0.088,-0.157 0.069,-0.204C0.05,-0.25 0.04,-0.301 0.04,-0.357C0.04,-0.414 0.05,-0.465 0.069,-0.511C0.088,-0.556 0.115,-0.595 0.15,-0.627C0.184,-0.659 0.225,-0.684 0.272,-0.701C0.319,-0.718 0.37,-0.727 0.425,-0.727C0.48,-0.727 0.532,-0.718 0.579,-0.701C0.626,-0.684 0.667,-0.659 0.702,-0.627C0.736,-0.595 0.763,-0.556 0.782,-0.511C0.801,-0.465 0.811,-0.414 0.811,-0.357ZM0.628,-0.357C0.628,-0.388 0.623,-0.416 0.613,-0.443C0.603,-0.47 0.589,-0.493 0.572,-0.512C0.554,-0.531 0.533,-0.546 0.508,-0.557C0.483,-0.568 0.455,-0.573 0.425,-0.573C0.395,-0.573 0.368,-0.568 0.343,-0.557C0.318,-0.546 0.297,-0.531 0.279,-0.512C0.261,-0.493 0.247,-0.47 0.238,-0.443C0.228,-0.416 0.223,-0.388 0.223,-0.357C0.223,-0.325 0.228,-0.296 0.238,-0.269C0.248,-0.242 0.262,-0.218 0.28,-0.199C0.297,-0.18 0.318,-0.165 0.343,-0.154C0.368,-0.142 0.395,-0.137 0.425,-0.137C0.455,-0.137 0.482,-0.142 0.507,-0.154C0.532,-0.165 0.553,-0.18 0.571,-0.199C0.589,-0.218 0.603,-0.242 0.613,-0.269C0.623,-0.296 0.628,-0.325 0.628,-0.357Z" style="fill-rule:nonzero;"/>
                    </g>
                    <g transform="matrix(75,0,0,75,163.365,418.06)">
                        <path d="M0.673,-0.267C0.673,-0.224 0.666,-0.186 0.652,-0.151C0.637,-0.116 0.617,-0.086 0.59,-0.061C0.563,-0.035 0.531,-0.016 0.494,-0.002C0.456,0.012 0.414,0.019 0.368,0.019C0.321,0.019 0.279,0.012 0.242,-0.002C0.205,-0.016 0.173,-0.035 0.147,-0.061C0.121,-0.086 0.101,-0.116 0.087,-0.151C0.073,-0.186 0.066,-0.224 0.066,-0.267L0.066,-0.708L0.236,-0.708L0.236,-0.281C0.236,-0.262 0.239,-0.243 0.244,-0.226C0.249,-0.209 0.256,-0.193 0.267,-0.18C0.277,-0.166 0.291,-0.155 0.308,-0.147C0.325,-0.139 0.345,-0.135 0.369,-0.135C0.393,-0.135 0.413,-0.139 0.431,-0.147C0.448,-0.155 0.461,-0.166 0.472,-0.18C0.483,-0.193 0.49,-0.209 0.495,-0.226C0.5,-0.243 0.502,-0.262 0.502,-0.281L0.502,-0.708L0.673,-0.708L0.673,-0.267Z" style="fill-rule:nonzero;"/>
                    </g>
                    <g transform="matrix(75,0,0,75,218.715,418.06)">
                        <path d="M0.447,-0.524C0.432,-0.543 0.413,-0.558 0.39,-0.569C0.366,-0.58 0.343,-0.585 0.321,-0.585C0.31,-0.585 0.298,-0.584 0.287,-0.582C0.275,-0.58 0.264,-0.576 0.255,-0.571C0.246,-0.565 0.238,-0.558 0.232,-0.549C0.225,-0.54 0.222,-0.528 0.222,-0.514C0.222,-0.502 0.225,-0.492 0.23,-0.484C0.235,-0.476 0.242,-0.469 0.252,-0.463C0.261,-0.457 0.273,-0.452 0.286,-0.447C0.299,-0.442 0.314,-0.436 0.331,-0.431C0.355,-0.423 0.38,-0.414 0.406,-0.405C0.432,-0.395 0.456,-0.382 0.477,-0.366C0.498,-0.35 0.516,-0.33 0.53,-0.307C0.544,-0.283 0.551,-0.253 0.551,-0.218C0.551,-0.177 0.544,-0.142 0.529,-0.113C0.514,-0.083 0.493,-0.058 0.468,-0.039C0.443,-0.02 0.414,-0.005 0.381,0.004C0.348,0.013 0.315,0.018 0.28,0.018C0.229,0.018 0.18,0.009 0.133,-0.009C0.086,-0.026 0.046,-0.051 0.015,-0.084L0.127,-0.198C0.144,-0.177 0.167,-0.159 0.196,-0.145C0.224,-0.13 0.252,-0.123 0.28,-0.123C0.293,-0.123 0.305,-0.124 0.317,-0.127C0.329,-0.13 0.339,-0.134 0.349,-0.14C0.358,-0.146 0.365,-0.154 0.37,-0.164C0.375,-0.174 0.378,-0.186 0.378,-0.2C0.378,-0.213 0.375,-0.225 0.368,-0.234C0.361,-0.243 0.352,-0.252 0.34,-0.26C0.327,-0.267 0.312,-0.274 0.294,-0.281C0.275,-0.287 0.254,-0.294 0.231,-0.301C0.208,-0.308 0.186,-0.317 0.165,-0.327C0.143,-0.337 0.124,-0.35 0.107,-0.366C0.09,-0.381 0.076,-0.4 0.066,-0.423C0.055,-0.445 0.05,-0.472 0.05,-0.504C0.05,-0.543 0.058,-0.577 0.074,-0.605C0.09,-0.633 0.111,-0.656 0.137,-0.674C0.163,-0.692 0.192,-0.705 0.225,-0.714C0.258,-0.722 0.291,-0.726 0.324,-0.726C0.364,-0.726 0.405,-0.719 0.447,-0.704C0.488,-0.689 0.525,-0.668 0.556,-0.639L0.447,-0.524Z" style="fill-rule:nonzero;"/>
                    </g>
                </g>
            </g>
        </g>
    </g>
</svg>
