<svg xmlns="http://www.w3.org/2000/svg" xmlns:xlink="http://www.w3.org/1999/xlink" viewBox="0 0 55.32 73.56"><defs><style>.cls-1,.cls-5{fill:#231f20;}.cls-2{fill:#f7941d;}.cls-3{fill:url(#Orange_Yellow);}.cls-4{fill:url(#Orange_Yellow-2);}.cls-5{font-size:14px;font-family:FighttotheFinishBB, Fight to the Finish BB;}.cls-6{letter-spacing:-0.01em;}.cls-7{letter-spacing:-0.03em;}</style><linearGradient id="Orange_Yellow" x1="14.64" y1="70.07" x2="14.64" y2="19.74" gradientUnits="userSpaceOnUse"><stop offset="0" stop-color="#fff33b"/><stop offset="0.04" stop-color="#fee72e"/><stop offset="0.12" stop-color="#fed51b"/><stop offset="0.2" stop-color="#fdca10"/><stop offset="0.28" stop-color="#fdc70c"/><stop offset="0.67" stop-color="#f3903f"/><stop offset="0.89" stop-color="#ed683c"/><stop offset="1" stop-color="#e93e3a"/></linearGradient><linearGradient id="Orange_Yellow-2" x1="40.37" y1="69.42" x2="40.37" y2="20.38" xlink:href="#Orange_Yellow"/></defs><g id="Layer_2" data-name="Layer 2"><g id="Layer_1-2" data-name="Layer 1"><path class="cls-1" d="M.65,70.19C.11,56.82,0,45.32,0,38c0-8.85.14-14.29.15-14.34l0-1.64L1.6,21.2a34.66,34.66,0,0,1,10.61-3.84l3.72-.65-.21,3.71a46.67,46.67,0,0,1,9.68-3.6l3.74-.92L29,43c0,3.82.08,7.58.18,10.9s.18,6.12.11,8.34l-.07,1.91-1.76.75A67.56,67.56,0,0,1,18.11,68l-3.71.89v-.36A23.28,23.28,0,0,1,4.12,73l-3.33.53Z"/><path class="cls-1" d="M33.77,69.62C33.21,61,33,47,32.87,37.87c-1,.35-2,.71-2.77,1.08l-3.63,1.68-.59-4a47.21,47.21,0,0,1-.47-6.28,20,20,0,0,1,.36-4.15l.33-1.56,1.48-.6c.13,0,13.05-5.2,24.13-6.67L54.79,17l.3,3.1s.23,2.34.23,5a24.52,24.52,0,0,1-.43,5.18l-.42,1.87-1.87.41c-.3.07-2.05.46-4.48,1v2.09c0,22.08,1.45,30.26,1.46,30.34L50,68.12l-1.8,1.07c-2.56,1.52-9,2.82-10.84,3.18L34,73Z"/><path class="cls-2" d="M2.65,70.11C2.11,56.78,2,45.3,2,38c0-8.77.14-14.23.14-14.29l0-.55.47-.28a32.54,32.54,0,0,1,9.92-3.58l1.24-.22-.07,1.26c-.27,4.63-.41,10.94-.54,17.18.89-.33,1.94-.71,3.07-1.06-.08-5.84-.21-11-.35-13.24l0-.63.56-.31a43.56,43.56,0,0,1,9.45-3.55l1.25-.3L27,43c0,3.85.08,7.63.18,11s.18,6.07.11,8.21l0,.64-.59.25a67.16,67.16,0,0,1-9,3l-1.24.3V65.1c0-.08,0-8.18-.06-17.28-1,.3-2.15.66-3.27,1.06,0,1.11,0,2.24.07,3.35,0,8.05.57,13.65.58,13.7l0,.52-.39.34C9.61,70.11,4,71,3.8,71.06l-1.11.17Z"/><path class="cls-2" d="M35.77,69.49c-.61-9.35-.84-25-.93-34.36a47.69,47.69,0,0,0-5.57,2l-1.21.56-.2-1.32a44.3,44.3,0,0,1-.45-6,18.83,18.83,0,0,1,.31-3.73l.12-.52.49-.2c.13-.05,12.77-5.11,23.64-6.55l1-.13.1,1c0,.09.22,2.31.22,4.85a22.63,22.63,0,0,1-.38,4.75l-.14.62-.62.14s-2.61.57-6.06,1.4v3.67c0,22.48,1.48,30.63,1.5,30.71l.12.68-.6.36C44.76,68.89,37.75,70.25,37,70.4l-1.11.21Z"/><path class="cls-3" d="M17.4,65.1s0-8.86-.07-18.58a53.11,53.11,0,0,0-5.26,1.66c0,1.37,0,2.73.08,4.1,0,8.14.57,13.76.57,13.76-3.6,3.16-9.07,4-9.07,4C3.14,57.54,3,46.31,3,38c0-8.86.14-14.26.14-14.26a32.1,32.1,0,0,1,9.58-3.46c-.29,5-.43,11.81-.57,18.72,1.58-.64,3.38-1.29,5.11-1.8-.07-6.26-.22-11.73-.36-14a42.52,42.52,0,0,1,9.21-3.45S26,31.33,26,43c-.07,7.56.43,14.84.29,19.16A65,65,0,0,1,17.4,65.1Z"/><path class="cls-4" d="M45.12,35.72c0,22.9,1.51,30.89,1.51,30.89-2.3,1.37-9.86,2.81-9.86,2.81-.65-9.86-.87-26.79-.94-35.64a57.91,57.91,0,0,0-7,2.45,44.32,44.32,0,0,1-.44-5.84,18.48,18.48,0,0,1,.29-3.53s12.53-5,23.4-6.48c0,0,.22,2.24.22,4.76A22.07,22.07,0,0,1,52,29.67s-3,.65-6.84,1.59Z"/><text class="cls-5" transform="translate(2.19 11.9)"><tspan class="cls-6">P</tspan><tspan x="5.25" y="0">owered </tspan><tspan class="cls-7" x="40.36" y="0">b</tspan><tspan x="45.93" y="0">y</tspan></text></g></g></svg>