<?xml version="1.0" encoding="UTF-8" standalone="no"?>
<!DOCTYPE svg PUBLIC "-//W3C//DTD SVG 1.1//EN" "http://www.w3.org/Graphics/SVG/1.1/DTD/svg11.dtd">
<svg width="100%" height="100%" viewBox="0 0 210 227" version="1.1" xmlns="http://www.w3.org/2000/svg" xmlns:xlink="http://www.w3.org/1999/xlink" xml:space="preserve" xmlns:serif="http://www.serif.com/" style="fill-rule:evenodd;clip-rule:evenodd;stroke-linejoin:round;stroke-miterlimit:2;">
    <g transform="matrix(4.16667,0,0,4.16667,199.837,176.651)">
        <g id="Layer-1" serif:id="Layer 1">
            <path d="M0,-30.459C0.288,-31.755 0.36,-33.411 0.36,-34.996C0.36,-37.516 0.144,-39.748 0.144,-39.748C-9.64,-38.452 -20.76,-34.243 -22.89,-33.412C-22.864,-37.615 -22.847,-40.396 -22.847,-40.396C-28.104,-39.1 -32.064,-36.939 -32.064,-36.939C-31.92,-34.635 -31.776,-29.163 -31.704,-22.898C-33.432,-22.394 -35.232,-21.746 -36.816,-21.098C-36.672,-28.011 -36.528,-34.852 -36.24,-39.82C-36.24,-39.82 -41.641,-38.884 -45.817,-36.363C-45.817,-36.363 -45.961,-30.963 -45.961,-22.106C-45.961,-13.826 -45.817,-2.593 -45.313,9.937C-45.313,9.937 -39.84,9.072 -36.24,5.904C-36.24,5.904 -36.816,0.288 -36.816,-7.849C-36.888,-9.217 -36.888,-10.585 -36.888,-11.954C-34.944,-12.673 -33.072,-13.25 -31.632,-13.609C-31.56,-3.889 -31.56,4.968 -31.56,4.968C-27.095,3.888 -22.703,2.016 -22.703,2.016C-22.559,-2.305 -23.063,-9.577 -22.991,-17.138C-22.977,-19.451 -22.962,-21.761 -22.949,-23.979C-21.094,-24.815 -18.648,-25.585 -16.129,-26.355C-16.058,-17.498 -15.841,-0.576 -15.193,9.289C-15.193,9.289 -7.633,7.848 -5.329,6.48C-5.329,6.48 -6.841,-1.513 -6.841,-24.411L-6.841,-28.875C-2.953,-29.811 0,-30.459 0,-30.459M-45.313,11.937C-45.772,11.937 -46.221,11.779 -46.581,11.483C-47.023,11.121 -47.289,10.587 -47.311,10.017C-47.848,-3.332 -47.961,-14.82 -47.961,-22.107C-47.961,-30.888 -47.818,-36.363 -47.816,-36.417C-47.798,-37.098 -47.434,-37.723 -46.85,-38.076C-42.403,-40.759 -36.817,-41.75 -36.582,-41.791C-36.468,-41.81 -36.354,-41.82 -36.24,-41.82C-35.753,-41.82 -35.278,-41.642 -34.909,-41.312C-34.453,-40.906 -34.208,-40.314 -34.244,-39.704C-34.49,-35.45 -34.631,-29.768 -34.754,-24.018C-34.422,-24.134 -34.077,-24.251 -33.722,-24.367C-33.797,-29.884 -33.926,-34.673 -34.06,-36.815C-34.108,-37.59 -33.704,-38.323 -33.021,-38.696C-32.851,-38.789 -28.771,-40.995 -23.326,-42.338C-23.168,-42.377 -23.007,-42.396 -22.847,-42.396C-22.402,-42.396 -21.965,-42.248 -21.609,-41.967C-21.124,-41.585 -20.843,-41.001 -20.847,-40.384L-20.872,-36.299C-16.406,-37.903 -7.865,-40.705 -0.119,-41.731C-0.031,-41.742 0.057,-41.748 0.144,-41.748C0.593,-41.748 1.032,-41.596 1.388,-41.314C1.813,-40.976 2.082,-40.48 2.134,-39.94C2.144,-39.845 2.359,-37.583 2.359,-34.996C2.359,-32.854 2.231,-31.274 1.952,-30.025C1.783,-29.265 1.189,-28.673 0.429,-28.506C0.403,-28.5 -1.791,-28.018 -4.841,-27.296L-4.841,-24.411C-4.841,-2.078 -3.378,6.032 -3.363,6.111C-3.21,6.936 -3.587,7.771 -4.308,8.2C-6.841,9.703 -14.01,11.099 -14.819,11.253C-14.943,11.277 -15.068,11.288 -15.193,11.288C-15.633,11.288 -16.064,11.144 -16.417,10.87C-16.87,10.52 -17.151,9.992 -17.189,9.419C-17.774,0.51 -18.011,-14.173 -18.105,-23.643C-19.127,-23.313 -20.092,-22.982 -20.956,-22.646L-20.991,-17.126C-21.027,-13.294 -20.914,-9.518 -20.814,-6.186C-20.716,-2.917 -20.632,-0.093 -20.704,2.082C-20.73,2.86 -21.204,3.551 -21.919,3.856C-22.104,3.935 -26.516,5.806 -31.089,6.912C-31.245,6.95 -31.403,6.968 -31.56,6.968C-32.004,6.968 -32.44,6.82 -32.796,6.539C-33.278,6.16 -33.56,5.581 -33.56,4.968C-33.56,4.888 -33.56,-2.431 -33.614,-10.964C-34.032,-10.831 -34.458,-10.691 -34.885,-10.545C-34.88,-9.67 -34.864,-8.815 -34.819,-7.955C-34.817,-7.92 -34.816,-7.884 -34.816,-7.849C-34.816,0.076 -34.256,5.646 -34.25,5.701C-34.185,6.344 -34.434,6.979 -34.919,7.406C-38.909,10.917 -44.754,11.873 -45.001,11.912C-45.105,11.929 -45.209,11.937 -45.313,11.937" style="fill-rule:nonzero;"/>
        </g>
    </g>
</svg>
