<?xml version="1.0" standalone="no"?>
<!DOCTYPE svg PUBLIC "-//W3C//DTD SVG 20010904//EN"
 "http://www.w3.org/TR/2001/REC-SVG-20010904/DTD/svg10.dtd">
<svg version="1.0" xmlns="http://www.w3.org/2000/svg"
 width="928.000000pt" height="928.000000pt" viewBox="0 0 928.000000 928.000000"
 preserveAspectRatio="xMidYMid meet">
<metadata>
Created by potrace 1.14, written by Peter Selinger 2001-2017
</metadata>
<g transform="translate(0.000000,928.000000) scale(0.100000,-0.100000)"
fill="#000000" stroke="none">
<path d="M4859 9276 c-2 -3 -16 -7 -29 -9 -14 -3 -32 -8 -40 -11 -8 -3 -26 -8
-40 -10 -21 -4 -75 -17 -175 -43 -11 -2 -29 -6 -40 -8 -11 -2 -45 -11 -75 -20
-30 -8 -68 -18 -85 -21 -45 -9 -60 -12 -60 -14 0 -1 -7 -3 -15 -5 -9 -1 -63
-15 -120 -30 -58 -15 -109 -28 -115 -29 -5 -1 -14 -4 -20 -7 -9 -6 -48 -17
-87 -24 -9 -2 -106 -34 -215 -70 -109 -37 -202 -68 -208 -69 -5 -1 -15 -4 -20
-8 -6 -4 -58 -24 -115 -46 -58 -22 -118 -46 -135 -53 -16 -7 -32 -13 -35 -14
-3 -1 -21 -8 -40 -17 -19 -8 -62 -27 -95 -41 -33 -14 -114 -51 -180 -82 -66
-31 -122 -56 -125 -56 -3 0 -19 -9 -36 -20 l-32 -19 3 57 c6 103 15 266 21
373 3 58 7 117 8 133 2 15 1 29 -3 31 -3 2 -37 -2 -76 -9 -38 -7 -92 -16 -119
-20 -27 -3 -52 -8 -56 -10 -3 -2 -24 -6 -46 -9 -22 -4 -49 -8 -61 -10 -11 -3
-37 -7 -57 -10 -19 -3 -73 -13 -118 -21 -46 -8 -96 -17 -113 -20 -16 -3 -50
-10 -75 -15 -25 -6 -55 -13 -68 -15 -185 -39 -592 -158 -692 -202 -8 -3 -18
-7 -22 -8 -5 -2 -10 -4 -13 -5 -3 -1 -8 -3 -12 -5 -5 -1 -21 -7 -36 -13 -16
-7 -31 -12 -35 -12 -4 -1 -25 -9 -47 -20 -22 -11 -47 -19 -55 -20 -9 0 -21 -5
-28 -12 -6 -6 -18 -13 -25 -14 -15 -2 -78 -30 -187 -82 -41 -20 -77 -37 -80
-37 -3 -1 -30 -14 -60 -30 -30 -16 -82 -42 -115 -58 -33 -17 -62 -33 -65 -36
-3 -3 -21 -14 -40 -24 -61 -32 -95 -52 -100 -57 -3 -3 -26 -16 -52 -30 -88
-46 -81 -22 -85 -287 -5 -416 -10 -600 -17 -611 -3 -6 -3 -13 1 -15 5 -3 7
-29 5 -59 -7 -89 -5 -3190 1 -3523 3 -170 9 -443 12 -605 4 -162 7 -386 8
-497 1 -112 4 -203 7 -203 3 0 5 -83 5 -185 0 -102 2 -185 5 -185 3 0 6 -64 6
-143 1 -78 4 -230 8 -337 4 -107 9 -256 11 -330 3 -74 7 -198 11 -275 3 -77 5
-149 4 -160 -1 -23 -2 -16 4 -130 3 -49 7 -155 10 -235 4 -80 9 -210 12 -290
3 -80 7 -172 8 -205 2 -67 2 -68 86 -53 25 5 61 11 80 14 19 2 46 7 60 9 14 3
43 7 65 10 22 3 51 8 65 10 14 3 41 7 60 10 19 3 60 10 90 15 30 5 70 12 89
15 19 3 37 7 40 9 3 2 28 7 55 10 27 4 53 9 58 12 9 6 33 11 123 29 11 2 22 4
25 5 3 1 8 2 13 1 4 0 7 3 7 7 0 5 6 9 13 9 6 0 32 6 57 13 25 8 47 14 50 15
3 0 28 8 55 18 28 9 55 17 60 18 6 0 16 5 22 11 7 6 13 8 13 5 0 -4 30 7 67
24 38 17 70 31 73 31 52 5 413 189 565 287 39 25 82 52 98 60 15 7 27 17 27
22 0 5 7 9 15 9 8 0 15 5 15 10 0 6 4 10 10 10 5 0 36 20 69 45 32 25 62 45
65 45 3 0 6 -12 6 -26 0 -21 4 -24 20 -19 11 3 30 8 42 11 25 4 37 7 108 25
25 6 52 12 60 14 68 15 383 92 455 112 105 28 118 31 145 37 11 3 24 7 28 10
5 3 19 7 33 10 65 14 292 84 459 141 74 26 142 48 150 50 8 2 16 4 18 5 1 2 5
3 10 5 4 1 14 5 22 8 53 22 150 55 150 51 0 -2 12 4 27 13 15 10 27 17 28 15
0 -4 27 6 87 31 20 8 39 13 42 9 3 -3 6 -1 6 5 0 5 6 10 13 10 6 0 33 10 59
21 26 12 51 22 55 22 4 1 26 9 48 20 22 11 43 19 48 20 4 0 26 9 50 19 92 42
140 61 153 61 8 0 14 5 14 10 0 6 3 9 8 8 4 -1 17 1 29 5 19 7 21 14 19 58 -1
28 2 52 6 55 4 3 3 14 -2 25 -6 10 -7 19 -3 19 12 0 17 566 8 935 -9 374 -14
547 -20 760 -13 425 -15 537 -20 1322 -2 436 -2 800 1 808 4 8 10 15 15 15 5
0 46 18 91 40 46 22 89 40 95 40 7 0 13 4 13 8 0 5 6 9 13 9 6 0 32 9 57 20
53 25 215 88 215 84 0 -2 24 7 54 19 29 11 56 18 60 15 3 -4 6 -68 7 -143 4
-298 15 -1062 20 -1317 3 -148 6 -347 8 -440 1 -94 5 -176 10 -183 4 -6 4 -12
-1 -12 -4 0 -8 -18 -8 -40 0 -22 2 -40 5 -40 3 0 6 -91 7 -203 1 -188 7 -445
18 -782 3 -77 8 -221 11 -320 7 -237 11 -348 19 -535 6 -144 8 -195 18 -436 2
-49 7 -96 12 -104 6 -9 4 -11 -5 -5 -8 5 -11 4 -7 -2 4 -6 9 -64 12 -129 3
-66 7 -144 10 -174 2 -30 7 -104 11 -165 3 -60 8 -137 10 -170 2 -33 6 -89 8
-125 6 -97 18 -261 20 -290 2 -19 9 -25 27 -26 13 0 30 4 37 9 6 5 12 7 12 5
0 -3 19 -1 43 3 23 5 56 11 72 14 17 3 53 9 80 15 28 5 61 12 75 14 14 3 36 8
50 11 14 3 43 8 65 11 52 8 86 14 205 40 14 3 39 7 55 10 17 3 37 7 45 10 8 3
26 8 40 10 52 9 176 35 190 41 8 3 22 7 30 8 23 4 58 12 135 30 39 9 78 18 87
20 81 17 542 147 583 165 11 4 56 21 100 36 71 24 128 46 190 74 57 26 112 51
125 59 40 25 127 76 145 85 11 6 57 33 103 61 93 56 89 44 63 170 -11 53 -20
97 -26 130 -2 11 -6 31 -10 45 -3 14 -7 43 -10 65 -3 22 -8 51 -10 65 -3 14
-8 43 -10 64 -2 21 -7 55 -10 75 -5 41 -15 119 -20 171 -6 57 -14 131 -21 190
-7 67 -12 125 -19 210 -3 36 -7 88 -10 115 -2 28 -7 82 -10 120 -3 39 -8 99
-11 135 -3 36 -7 94 -9 130 -7 110 -15 232 -19 300 -10 142 -19 329 -20 402
-1 43 -3 78 -6 78 -3 0 -6 44 -7 98 0 53 -4 160 -7 237 -21 488 -34 1042 -41
1680 -7 727 -7 834 -1 844 3 5 2 20 -3 34 -5 14 -8 27 -6 29 2 2 4 22 5 43 0
58 1 84 3 140 l2 50 145 33 c80 18 156 35 170 37 14 2 25 4 25 5 0 1 7 3 15 5
15 2 232 51 275 61 11 3 29 7 40 8 11 2 39 8 63 14 23 5 42 8 42 5 0 -3 7 0
15 7 8 7 15 10 15 6 0 -3 12 -1 27 5 14 5 38 11 52 13 52 7 106 19 122 27 9 5
20 28 24 51 4 24 9 48 11 53 3 9 8 31 18 80 2 11 9 40 15 65 5 25 12 59 15 75
3 17 8 41 11 55 9 45 15 84 21 140 3 30 7 66 10 80 19 112 26 747 11 1005 -14
229 -23 338 -42 528 -3 28 -8 72 -10 97 -3 25 -7 73 -9 108 -2 35 -6 66 -9 69
-3 3 -3 11 0 19 4 11 -2 13 -28 10 -19 -3 -56 -8 -82 -11 -27 -4 -56 -8 -65
-10 -10 -1 -46 -6 -82 -10 -36 -4 -74 -9 -85 -11 -11 -3 -40 -7 -65 -10 -25
-3 -58 -7 -75 -9 -73 -8 -134 -17 -180 -25 -27 -5 -70 -12 -95 -15 -25 -3 -53
-8 -62 -11 -9 -3 -32 -7 -50 -8 -18 -2 -48 -7 -65 -10 -18 -3 -48 -9 -65 -12
-18 -3 -96 -18 -173 -34 -77 -16 -151 -31 -165 -34 -14 -2 -47 -10 -75 -16
-27 -6 -59 -14 -70 -16 -54 -13 -71 -16 -82 -17 -7 0 -13 -4 -13 -9 0 -5 -4
-7 -9 -4 -5 4 -47 -3 -93 -15 -45 -11 -101 -25 -123 -30 -111 -26 -107 -25
-125 -32 -8 -4 -26 -9 -40 -11 -14 -3 -43 -10 -65 -16 -54 -14 -63 -17 -110
-28 -22 -6 -60 -16 -85 -24 -54 -17 -53 -17 -90 -25 -17 -3 -33 -10 -36 -14
-3 -5 -9 -7 -13 -4 -5 2 -21 0 -37 -4 -75 -23 -210 -63 -219 -65 -5 -1 -44
-13 -85 -25 -41 -13 -77 -23 -80 -24 -3 0 -30 -8 -60 -19 -30 -11 -66 -22 -79
-24 -14 -3 -29 -8 -35 -12 -6 -3 -18 -8 -28 -9 -9 -1 -146 -46 -305 -99 -158
-52 -292 -96 -298 -98 -5 -1 -16 -5 -22 -9 -7 -5 -21 -10 -30 -12 -20 -4 -164
-54 -318 -110 -55 -20 -117 -43 -137 -50 l-38 -14 -1 32 c-1 44 -1 373 1 604
1 105 -1 196 -5 202 -3 6 -3 11 2 11 4 0 8 63 8 140 0 77 -4 140 -9 140 -5 0
-4 6 0 13 20 27 4 94 -17 73z"/>
</g>
</svg>
