<?xml version="1.0" standalone="no"?>
<!DOCTYPE svg PUBLIC "-//W3C//DTD SVG 20010904//EN"
 "http://www.w3.org/TR/2001/REC-SVG-20010904/DTD/svg10.dtd">
<svg version="1.0" xmlns="http://www.w3.org/2000/svg"
 width="116.000000pt" height="116.000000pt" viewBox="0 0 116.000000 116.000000"
 preserveAspectRatio="xMidYMid meet">
<metadata>
Created by potrace 1.14, written by Peter Selinger 2001-2017
</metadata>
<g transform="translate(0.000000,116.000000) scale(0.100000,-0.100000)"
fill="#000000" stroke="none">
<path d="M532 1139 c-40 -10 -76 -20 -80 -23 -5 -3 -31 -14 -59 -25 l-51 -20
3 35 2 35 -41 -7 c-70 -11 -78 -13 -130 -30 -28 -9 -72 -28 -98 -42 l-48 -25
-2 -91 c-1 -116 3 -621 7 -746 1 -52 3 -118 4 -146 l1 -52 38 5 c54 6 130 31
182 60 25 14 86 35 135 48 50 12 117 34 150 47 l60 24 2 225 c1 123 2 236 2
251 1 20 8 29 33 37 17 6 33 9 36 6 3 -2 6 -73 8 -157 2 -120 12 -442 17 -515
0 -12 20 -18 42 -13 6 1 40 8 77 16 75 16 165 47 191 67 13 10 15 20 8 52 -14
63 -21 181 -27 422 l-6 222 39 10 c21 6 45 11 53 11 44 1 51 26 51 170 -1 119
-4 146 -17 143 -5 -1 -34 -4 -64 -8 -69 -8 -261 -56 -359 -90 -41 -14 -76 -25
-77 -25 -2 0 -4 33 -6 74 l-3 74 -73 -19z"/>
</g>
</svg>
