<?xml version="1.0" encoding="UTF-8" standalone="no"?>
<!DOCTYPE svg PUBLIC "-//W3C//DTD SVG 1.1//EN" "http://www.w3.org/Graphics/SVG/1.1/DTD/svg11.dtd">
<svg width="100%" height="100%" viewBox="0 0 651 459" version="1.1" xmlns="http://www.w3.org/2000/svg" xmlns:xlink="http://www.w3.org/1999/xlink" xml:space="preserve" xmlns:serif="http://www.serif.com/" style="fill-rule:evenodd;clip-rule:evenodd;stroke-linejoin:round;stroke-miterlimit:2;">
    <g id="Layer-1" serif:id="Layer 1" transform="matrix(4.16667,0,0,4.16667,0,0)">
        <g transform="matrix(1,0,0,1,0.6514,3.3686)">
            <path d="M0,50.92C-0.538,37.555 -0.651,26.054 -0.651,18.758C-0.651,10.713 -0.531,5.432 -0.507,4.455L-0.462,2.78L0.942,1.932C5.445,-0.785 10.941,-1.804 11.554,-1.911L15.284,-2.559L15.067,1.153C16.072,0.632 19.868,-1.243 24.745,-2.444L28.486,-3.368L28.318,23.744C28.282,27.572 28.396,31.324 28.495,34.634C28.594,37.924 28.679,40.765 28.604,42.981L28.543,44.889L26.784,45.64C26.599,45.719 22.148,47.612 17.456,48.748L13.75,49.644L13.75,49.278C9.642,52.703 4.099,53.663 3.466,53.764L0.135,54.288L0,50.92Z" style="fill:rgb(35,31,32);fill-rule:nonzero;"/>
        </g>
        <g transform="matrix(1,0,0,1,28.2354,3.5164)">
            <path d="M0,50.989C-0.784,42.13 -0.948,32.211 -0.948,25.45C-0.948,15.178 -0.588,7.234 -0.585,7.16L-0.509,5.488L0.965,4.676C14.258,-2.641 23.391,-3.23 23.772,-3.251L26.89,-3.433L26.942,-0.307C27.017,4.083 25.777,9.424 25.636,10.017L25.222,11.745L23.513,12.214C20.296,13.099 16.488,14.605 14.462,15.443C14.393,16.016 14.32,16.681 14.269,17.361C16.483,16.608 18.67,15.905 20.618,15.467L24.036,14.696L24.271,18.193C24.286,18.429 24.422,20.552 24.422,22.93C24.422,24.56 24.335,26.191 24.183,27.407L24.004,28.839L22.772,29.593C22.518,29.75 20.241,31.11 14.279,33.77C14.279,33.88 14.281,33.993 14.284,34.11C17.255,33.036 20.662,31.844 21.478,31.559L24.771,30.413L25.443,33.794C25.626,34.704 25.718,35.919 25.718,37.403C25.718,40.009 25.469,42.938 25.418,43.499L25.283,44.985L24.027,45.775C16.137,50.735 4.168,53.531 3.662,53.648L0.305,54.422L0,50.989Z" style="fill:rgb(35,31,32);fill-rule:nonzero;"/>
        </g>
        <g transform="matrix(1,0,0,1,52.918,4.9529)">
            <path d="M0,48.905C-0.002,48.771 -0.229,35.358 -0.93,24.275C-1.56,14.555 -2.201,9.396 -2.207,9.347L-2.384,7.943L-1.423,6.916C-1.04,6.507 8.033,-3.021 19.736,-3.18C21.949,-3.18 24.354,-2.047 26.203,-0.149C28.396,2.102 29.559,5.136 29.474,8.393C29.317,14.066 28.109,17.149 25.628,21.531C24.876,22.863 24.222,23.986 23.224,25.368C25.358,28.376 28.962,33.622 30.544,36.893L31.372,38.609L30.173,40.089C29.756,40.6 26.062,45.084 22.955,47.432L20.192,49.519L18.52,46.49C18.494,46.444 16.915,43.593 14.849,40.337C15.025,42.744 15.174,44.14 15.266,44.504L15.784,46.498L14.104,47.697C13.897,47.845 8.855,51.427 3.224,51.847L0.053,52.085L0,48.905Z" style="fill:rgb(35,31,32);fill-rule:nonzero;"/>
        </g>
        <g transform="matrix(1,0,0,1,96.4507,39.4697)">
            <path d="M0,-21.438C-0.459,-20.694 -1.324,-18.726 -2.109,-13.781L-2.225,-13.076C-2.428,-11.713 -2.54,-10.308 -2.54,-9.063C-2.54,-6.915 -2.292,-4.793 -1.859,-3.246C-1.711,-2.621 -1.557,-2.108 -1.41,-1.695C-0.937,-2.589 -0.367,-3.911 0.152,-5.667C0.609,-7.141 0.9,-12.144 0.822,-17.08C0.822,-19.173 0.371,-20.76 0,-21.438M-2.083,16.115C-6.662,16.115 -10.518,13.044 -12.43,10.415C-16.328,4.938 -17.512,-1.439 -17.821,-5.828C-18.265,-12.675 -17.503,-18.853 -15.559,-24.202C-13.091,-30.915 -8.73,-35.293 -2.944,-36.872C-1.268,-37.313 0.516,-37.553 2.094,-37.553C5.854,-37.553 8.885,-36.295 11.1,-33.815C14.922,-29.398 15.494,-25.401 15.885,-20.234C16.033,-18.614 16.109,-16.879 16.109,-15.112C16.109,5.768 8.029,13.1 1.25,15.574C-0.068,16.053 -1.225,16.115 -2.083,16.115" style="fill:rgb(35,31,32);fill-rule:nonzero;"/>
        </g>
        <g transform="matrix(1,0,0,1,111.328,2.416)">
            <path d="M0,51.398L-0.287,48.766C-0.684,45.128 -0.736,39.572 -0.736,34.616C-0.736,22.35 -0.164,8.064 -0.158,7.923L-0.102,6.513L1.023,5.658C3.016,4.142 9.174,2.102 11.729,1.295L15.982,-0.043L15.621,4.399C14.988,12.215 13.482,45.728 13.469,46.052L13.406,47.433L12.318,48.284C8.48,51.289 3.658,51.441 2.73,51.441L0,51.398Z" style="fill:rgb(35,31,32);fill-rule:nonzero;"/>
        </g>
        <g transform="matrix(1,0,0,1,139.511,1.0047)">
            <path d="M0,55.444C-7.426,55.444 -12.252,48.612 -13.594,42.263C-14.783,36.458 -15.387,31.189 -15.387,26.593C-15.387,19.893 -14.17,14.054 -11.869,9.71L-11.814,9.613C-11.797,9.586 -10.107,6.798 -7.936,4.8C-4.648,1.668 -0.74,0 3.342,0C4.223,0 5.119,0.081 6.004,0.239C8.293,0.656 10.91,2.265 13.008,4.545L14.221,5.864L13.635,7.557C12.566,10.644 10.92,13.474 8.738,15.967L7.008,17.948L4.816,16.49C4.012,15.953 3.633,15.84 3.455,15.84C3.357,15.84 3.182,15.921 2.975,16.058C0.541,18.681 0.336,23.623 0.336,28.466C0.336,34.361 1.312,38.162 1.959,39.29C3.393,39.221 6.301,37.536 7.893,36.312L9.881,34.787L11.736,36.469C15.537,39.924 16.334,43.698 16.414,44.117L16.613,45.191L16.078,46.141C14.949,48.139 13.59,49.564 11.23,51.225C9.84,52.292 7.771,53.361 4.973,54.448C3.146,55.122 1.529,55.444 0,55.444" style="fill:rgb(35,31,32);fill-rule:nonzero;"/>
        </g>
        <g transform="matrix(1,0,0,1,21.9668,56.4913)">
            <path d="M0,49.226C-0.563,40.638 -0.804,26.596 -0.903,17.48C-1.907,17.827 -2.872,18.191 -3.67,18.559L-7.299,20.231L-7.894,16.281C-7.973,15.741 -8.359,12.957 -8.359,10.002C-8.359,8.343 -8.24,6.945 -8.004,5.846L-7.671,4.286L-6.19,3.691C-6.063,3.639 6.782,-1.503 17.937,-2.98L21.018,-3.387L21.316,-0.295C21.356,0.121 21.547,2.272 21.547,4.746C21.547,6.958 21.41,8.606 21.115,9.933L20.699,11.803L18.828,12.213C18.759,12.228 16.946,12.627 14.347,13.237L14.347,15.33C14.347,37.383 15.793,45.594 15.808,45.674L16.193,47.727L14.392,48.799C11.848,50.311 5.456,51.614 3.558,51.977L0.223,52.613L0,49.226Z" style="fill:rgb(35,31,32);fill-rule:nonzero;"/>
        </g>
        <g transform="matrix(1,0,0,1,36,56.1808)">
            <path d="M0,49.598C0.002,49.385 0.251,27.842 4.955,4.464L5.26,2.952L6.666,2.32C7.873,1.777 18.604,-3.006 23.448,-3.473L26.261,-3.746L26.7,-0.956C26.73,-0.767 29.967,19.709 31.911,42.679L32.066,44.513L30.502,45.483C30.304,45.605 25.627,48.484 21.056,50.083L17.314,51.396L17.071,47.437C16.998,46.235 16.932,45.043 16.867,43.848C16.867,43.848 16.774,42.162 16.729,41.369C16.525,41.479 16.337,41.582 16.164,41.679L15.644,48.153L14.062,48.891C13.473,49.165 8.191,51.588 3.626,52.562L-0.038,53.344L0,49.598Z" style="fill:rgb(35,31,32);fill-rule:nonzero;"/>
        </g>
        <g transform="matrix(1,0,0,1,65.6055,56.3027)">
            <path d="M0,49.066C-0.666,42.004 -0.806,33.543 -0.806,27.688C-0.806,15.233 -0.231,3.882 -0.226,3.771L-0.149,2.316L1.039,1.476C5.104,-1.393 11.282,-2.693 11.974,-2.831L15.784,-3.593L15.559,0.284C14.909,11.515 14.569,24.764 14.427,31.496C17.105,30.401 19.779,29.42 19.815,29.408L23.442,28.074L23.829,31.925C23.916,32.795 23.916,33.64 23.916,34.385C23.916,37.721 23.507,41.081 23.461,41.453L23.307,42.649L22.381,43.405C16.952,47.839 5.139,51.292 3.81,51.67L0.337,52.659L0,49.066Z" style="fill:rgb(35,31,32);fill-rule:nonzero;"/>
        </g>
        <g transform="matrix(1,0,0,1,87.2031,55.5164)">
            <path d="M0,50.989C-0.784,42.141 -0.948,32.218 -0.948,25.45C-0.948,15.178 -0.588,7.234 -0.585,7.16L-0.509,5.488L0.965,4.676C14.257,-2.641 23.39,-3.23 23.773,-3.251L26.89,-3.433L26.943,-0.307C27.017,4.083 25.777,9.424 25.636,10.017L25.222,11.745L23.513,12.214C20.296,13.099 16.488,14.605 14.462,15.443C14.392,16.016 14.32,16.681 14.269,17.361C16.464,16.613 18.658,15.908 20.619,15.467L24.037,14.696L24.271,18.193C24.287,18.429 24.421,20.552 24.421,22.93C24.421,24.56 24.335,26.191 24.183,27.407L24.003,28.839L22.773,29.593C22.517,29.75 20.242,31.11 14.279,33.77C14.279,33.88 14.281,33.993 14.285,34.11C17.255,33.036 20.662,31.844 21.478,31.559L24.771,30.413L25.443,33.794C25.626,34.704 25.718,35.919 25.718,37.403C25.718,40.009 25.468,42.938 25.417,43.499L25.283,44.985L24.027,45.775C16.136,50.735 4.168,53.531 3.662,53.648L0.305,54.422L0,50.989Z" style="fill:rgb(35,31,32);fill-rule:nonzero;"/>
        </g>
        <g transform="matrix(1,0,0,1,115.712,54.1187)">
            <path d="M0,52.915C-1.371,50.412 -2.621,47.173 -3.715,43.286L-4.498,40.504L-1.375,39.499C0.682,38.839 2.621,38.216 4.812,36.603C5.562,36.1 6.268,35.487 6.756,34.99C6.072,34.514 5.242,34.014 4.475,33.551C3.48,32.953 2.543,32.389 1.725,31.791C1.422,31.566 0.711,31.05 0.711,31.05C-1.229,29.641 -3.428,28.042 -5.084,26.176C-6.564,24.602 -7.434,22.52 -7.633,20.031C-7.904,16.218 -4.818,12.238 -4.467,11.797C-2.055,8.632 1.045,5.85 4.717,3.563C7.229,1.888 10.045,0.711 12.227,-0.125C13.072,-0.509 13.986,-0.749 14.797,-0.961C15.064,-1.031 15.314,-1.097 15.559,-1.167L18.396,-1.976L19.254,0.845C19.9,2.968 20.971,7.136 20.895,11.206L20.857,13.231L18.295,14.208C16.232,14.994 14.283,15.735 13.098,16.49L12.779,16.697C12.322,16.993 11.248,17.69 10.496,18.295C10.625,18.393 11.037,18.695 11.037,18.695C11.283,18.876 11.523,19.053 11.744,19.223C13.031,20.199 13.768,20.712 14.701,21.361C15.207,21.714 15.76,22.099 16.471,22.606C19.107,24.501 23.084,27.359 23.609,31.669C23.887,33.79 23.682,35.99 23.031,37.848C22.287,40.154 21.248,42.033 19.57,44.084C15.629,49.031 9.227,53.09 3.277,54.404L1.08,54.891L0,52.915Z" style="fill:rgb(35,31,32);fill-rule:nonzero;"/>
        </g>
        <g transform="matrix(1,0,0,1,2.6494,3.6815)">
            <path d="M0,50.527C-0.537,37.186 -0.649,25.716 -0.649,18.445C-0.649,9.675 -0.506,4.214 -0.505,4.161L-0.49,3.614L-0.021,3.331C4.266,0.744 9.672,-0.214 9.9,-0.254L11.143,-0.47L11.069,0.789C10.802,5.41 10.658,11.719 10.527,17.972C11.419,17.634 12.47,17.262 13.6,16.913C13.526,11.079 13.391,5.935 13.25,3.673L13.21,3.038L13.77,2.733C13.936,2.642 17.904,0.496 23.226,-0.816L24.473,-1.123L24.32,23.419C24.284,27.261 24.397,31.045 24.498,34.381C24.596,37.64 24.68,40.454 24.607,42.6L24.587,43.237L24.001,43.487C23.818,43.565 19.48,45.404 14.987,46.491L13.752,46.79L13.752,45.519C13.752,45.434 13.751,37.338 13.688,28.243C12.658,28.539 11.544,28.898 10.424,29.298C10.426,30.409 10.437,31.541 10.495,32.649C10.496,40.686 11.061,46.298 11.066,46.353L11.118,46.865L10.732,47.206C6.958,50.528 1.39,51.438 1.155,51.475L0.045,51.65L0,50.527Z" style="fill:rgb(247,147,29);fill-rule:nonzero;"/>
        </g>
        <g transform="matrix(1,0,0,1,30.2275,3.3466)">
            <path d="M0,50.982C-0.777,42.195 -0.94,32.339 -0.94,25.62C-0.94,15.418 -0.583,7.507 -0.579,7.428L-0.554,6.869L-0.062,6.598C12.806,-0.486 21.527,-1.064 21.893,-1.084L22.933,-1.145L22.95,-0.103C23.022,4.151 21.752,9.499 21.698,9.724L21.561,10.298L20.991,10.455C16.981,11.559 12.193,13.548 10.632,14.214C10.626,14.259 10.619,14.307 10.613,14.356C10.471,15.442 10.205,17.464 10.205,19.211C10.205,19.634 10.221,20.011 10.253,20.341L11.015,20.079C13.786,19.122 16.652,18.13 19.065,17.587L20.205,17.331L20.283,18.497C20.289,18.586 20.43,20.718 20.43,23.1C20.43,24.647 20.349,26.188 20.206,27.329L20.146,27.806L19.735,28.058C19.63,28.123 17.137,29.631 10.309,32.628C10.272,33.473 10.247,35.187 10.498,37.067C13.896,35.796 19.896,33.705 20.181,33.605L21.266,33.227L21.49,34.354C21.685,35.328 21.726,36.642 21.726,37.573C21.726,40.253 21.445,43.365 21.434,43.497L21.389,43.989L20.97,44.253C13.354,49.04 1.712,51.755 1.221,51.869L0.102,52.127L0,50.982Z" style="fill:rgb(247,147,29);fill-rule:nonzero;"/>
        </g>
        <g transform="matrix(1,0,0,1,64.9463,41.052)">
            <path d="M0,-23.446C-0.052,-22.428 -0.107,-19.742 -0.107,-17.486L-0.107,-16.967C2.226,-19.441 3.775,-22.62 3.963,-24.594C4.021,-25.2 3.917,-25.472 3.876,-25.52L3.842,-25.507C3.061,-25.507 1.214,-24.359 0,-23.446M-10.028,12.773C-10.03,12.64 -10.252,-0.728 -10.962,-11.95C-11.601,-21.803 -12.245,-26.958 -12.252,-27.009L-12.311,-27.475L-11.99,-27.818C-11.634,-28.198 -3.15,-37.132 7.735,-37.279L7.739,-37.279C9.404,-37.279 11.284,-36.349 12.742,-34.852C14.556,-32.991 15.517,-30.471 15.446,-27.758C15.301,-22.48 14.223,-19.727 11.859,-15.553C10.927,-13.902 10.176,-12.631 8.716,-10.761C10.202,-8.698 14.915,-2.058 16.715,1.664L16.991,2.237L16.591,2.731C16.435,2.922 12.734,7.459 9.721,9.739L8.8,10.434L8.242,9.424C8.194,9.337 4.098,1.95 0.392,-2.762C0.642,2.073 1.012,7.788 1.301,8.906L1.474,9.571L0.914,9.97C0.72,10.11 -3.907,13.377 -8.954,13.754L-10.011,13.833L-10.028,12.773Z" style="fill:rgb(247,147,29);fill-rule:nonzero;"/>
        </g>
        <g transform="matrix(1,0,0,1,96.355,41.7792)">
            <path d="M0,-26.058C-0.918,-26.058 -2.655,-24.804 -3.989,-16.404C-4.034,-16.126 -4.07,-15.899 -4.099,-15.733C-4.323,-14.235 -4.444,-12.718 -4.444,-11.372C-4.444,-9.048 -4.168,-6.732 -3.689,-5.017C-3.073,-2.406 -2.205,-1.065 -1.613,-0.876C-1.559,-0.859 -1.521,-0.852 -1.484,-0.852C-0.664,-0.852 0.967,-3.359 2.166,-7.409C2.756,-9.311 2.99,-14.888 2.918,-19.421C2.918,-21.917 2.283,-24.958 0.891,-25.776C0.568,-25.961 0.266,-26.058 0,-26.058M-1.988,11.805C-5.814,11.805 -9.082,9.178 -10.716,6.929C-14.333,1.847 -15.439,-4.144 -15.73,-8.278C-16.156,-14.839 -15.433,-20.742 -13.583,-25.828C-11.351,-31.902 -7.458,-35.851 -2.322,-37.251C-0.822,-37.646 0.777,-37.863 2.189,-37.863C5.355,-37.863 7.885,-36.829 9.703,-34.792C13.113,-30.852 13.613,-27.326 13.986,-22.392C14.131,-20.808 14.205,-19.13 14.205,-17.421C14.205,2.302 6.84,9.13 0.66,11.385C-0.357,11.755 -1.25,11.805 -1.988,11.805" style="fill:rgb(247,147,29);fill-rule:nonzero;"/>
        </g>
        <g transform="matrix(1,0,0,1,113.124,5.1873)">
            <path d="M0,46.655L-0.096,45.778C-0.482,42.234 -0.533,36.746 -0.533,31.844C-0.533,19.652 0.037,5.377 0.043,5.234L0.062,4.763L0.437,4.478C2.32,3.046 9.699,0.695 10.533,0.431L11.951,-0.015L11.832,1.467C11.193,9.35 9.688,42.856 9.674,43.194L9.652,43.653L9.291,43.936C5.896,46.593 1.432,46.67 0.934,46.67L0,46.655Z" style="fill:rgb(247,147,29);fill-rule:nonzero;"/>
        </g>
        <g transform="matrix(1,0,0,1,139.511,3.0047)">
            <path d="M0,51.444C-6.312,51.444 -10.457,45.434 -11.637,39.85C-12.797,34.188 -13.387,29.057 -13.387,24.593C-13.387,18.218 -12.25,12.704 -10.102,8.645C-10.004,8.483 -8.463,6.003 -6.582,4.272C-3.652,1.481 -0.217,0 3.342,0C4.107,0 4.883,0.07 5.65,0.208C7.494,0.544 9.75,1.958 11.537,3.899L11.941,4.339L11.746,4.903C10.762,7.745 9.244,10.352 7.232,12.651L6.656,13.311L5.926,12.825C4.891,12.134 4.15,11.84 3.455,11.84C2.881,11.84 2.311,12.061 1.664,12.535C-1.406,15.662 -1.664,21.131 -1.664,26.466C-1.664,32.299 -0.707,37.409 0.662,38.892C0.834,39.063 1.154,39.292 1.871,39.292C4.186,39.292 7.883,36.842 9.111,35.898L9.773,35.389L10.393,35.951C13.771,39.022 14.422,42.344 14.447,42.485L14.514,42.842L14.336,43.16C13.354,44.896 12.201,46.096 10.08,47.59C8.787,48.579 6.869,49.566 4.25,50.584C2.674,51.165 1.289,51.444 0,51.444" style="fill:rgb(247,147,29);fill-rule:nonzero;"/>
        </g>
        <g transform="matrix(1,0,0,1,23.9629,56.4864)">
            <path d="M0,49.1C-0.612,39.778 -0.842,24.101 -0.927,14.742C-3.034,15.398 -4.999,16.053 -6.504,16.747L-7.714,17.305L-7.912,15.988C-7.93,15.868 -8.355,12.999 -8.355,10.007C-8.355,8.489 -8.251,7.231 -8.045,6.27L-7.934,5.749L-7.44,5.551C-7.314,5.5 5.331,0.447 16.204,-0.993L17.23,-1.129L17.33,-0.098C17.339,-0.004 17.551,2.212 17.551,4.75C17.551,6.814 17.429,8.325 17.167,9.504L17.028,10.127L16.404,10.264C16.377,10.27 13.804,10.835 10.351,11.66L10.351,15.335C10.351,37.82 11.83,45.961 11.845,46.04L11.974,46.728L11.373,47.085C8.987,48.502 1.977,49.866 1.186,50.017L0.074,50.229L0,49.1Z" style="fill:rgb(247,147,29);fill-rule:nonzero;"/>
        </g>
        <g transform="matrix(1,0,0,1,52.1191,88.509)">
            <path d="M0,-15.364C-0.448,-12.497 -0.952,-8.779 -1.32,-4.671L1.217,-5.901C1.041,-7.431 0.587,-11.263 0,-15.364M-14.119,17.29C-14.117,17.075 -13.849,-4.386 -9.203,-27.469L-9.102,-27.973L-8.633,-28.184C-8.162,-28.396 2.947,-33.369 7.521,-33.811L8.459,-33.902L8.605,-32.972C8.639,-32.767 11.874,-12.224 13.799,10.52L13.851,11.131L13.329,11.454C13.14,11.572 8.649,14.337 4.276,15.867L3.029,16.305L2.948,14.986C2.875,13.789 2.81,12.602 2.745,11.411C2.646,9.598 2.544,7.737 2.411,5.837C0.966,6.577 -0.95,7.582 -1.864,8.145L-2.376,14.504L-2.903,14.75C-3.128,14.855 -8.458,17.328 -12.91,18.278L-14.132,18.538L-14.119,17.29Z" style="fill:rgb(247,147,29);fill-rule:nonzero;"/>
        </g>
        <g transform="matrix(1,0,0,1,67.5967,56.3751)">
            <path d="M0,48.807C-0.659,41.815 -0.797,33.424 -0.797,27.616C-0.797,15.205 -0.226,3.915 -0.22,3.803L-0.194,3.317L0.202,3.036C4.004,0.354 10.118,-0.891 10.376,-0.943L11.646,-1.197L11.57,0.095C10.801,13.411 10.467,29.393 10.375,34.486C13.409,33.09 18.264,31.303 18.508,31.214L19.719,30.769L19.848,32.053C19.925,32.823 19.925,33.58 19.925,34.313C19.925,37.65 19.502,40.995 19.484,41.136L19.434,41.532L19.125,41.784C13.912,46.041 1.783,49.529 1.27,49.675L0.112,50.004L0,48.807Z" style="fill:rgb(247,147,29);fill-rule:nonzero;"/>
        </g>
        <g transform="matrix(1,0,0,1,89.1953,55.3466)">
            <path d="M0,50.982C-0.777,42.207 -0.94,32.346 -0.94,25.62C-0.94,15.418 -0.583,7.507 -0.579,7.428L-0.554,6.869L-0.062,6.598C12.806,-0.486 21.527,-1.064 21.892,-1.084L22.933,-1.145L22.951,-0.103C23.023,4.151 21.751,9.499 21.699,9.724L21.56,10.298L20.992,10.455C16.982,11.559 12.193,13.548 10.632,14.214C10.626,14.259 10.619,14.307 10.613,14.356C10.47,15.442 10.205,17.464 10.205,19.211C10.205,19.634 10.22,20.011 10.253,20.34L11.019,20.078C13.791,19.12 16.654,18.13 19.066,17.587L20.205,17.331L20.283,18.497C20.289,18.586 20.429,20.718 20.429,23.1C20.429,24.647 20.349,26.188 20.207,27.329L20.146,27.806L19.736,28.058C19.63,28.123 17.136,29.631 10.308,32.628C10.273,33.473 10.248,35.187 10.498,37.067C13.896,35.796 19.896,33.705 20.181,33.605L21.265,33.227L21.49,34.354C21.685,35.328 21.726,36.642 21.726,37.573C21.726,40.253 21.445,43.365 21.433,43.497L21.388,43.989L20.97,44.253C13.353,49.04 1.712,51.755 1.221,51.869L0.102,52.127L0,50.982Z" style="fill:rgb(247,147,29);fill-rule:nonzero;"/>
        </g>
        <g transform="matrix(1,0,0,1,117.466,55.2627)">
            <path d="M0,50.811C-1.297,48.442 -2.49,45.343 -3.543,41.6L-3.805,40.673L-2.516,40.258C-0.398,39.579 1.789,38.875 4.244,37.069C5.572,36.181 7.488,34.431 7.578,33.515C7.588,33.416 7.57,33.381 7.514,33.324C6.695,32.466 5.199,31.565 3.75,30.693C2.797,30.119 1.896,29.577 1.15,29.032C0.824,28.79 0.486,28.544 0.135,28.289C-1.725,26.938 -3.83,25.407 -5.344,23.704C-6.553,22.415 -7.229,20.782 -7.395,18.727C-7.57,16.257 -5.756,13.276 -4.658,11.902C-2.369,8.899 0.555,6.274 4.02,4.118C6.441,2.502 9.156,1.375 11.248,0.576C11.955,0.247 12.773,0.033 13.566,-0.175C13.832,-0.245 14.096,-0.314 14.355,-0.388L15.301,-0.658L15.586,0.283C16.197,2.292 17.213,6.231 17.141,10.025L17.129,10.7L15.828,11.196C13.666,12.019 11.623,12.797 10.27,13.659L9.938,13.874C8.594,14.746 6.346,16.202 6.1,17.285C6.133,17.73 7.398,18.653 8.008,19.096C8.271,19.29 8.529,19.477 8.762,19.658C10.102,20.673 10.854,21.197 11.805,21.859C12.305,22.207 12.852,22.588 13.555,23.09C15.904,24.779 19.451,27.329 19.869,30.767C20.109,32.598 19.939,34.475 19.391,36.043C18.705,38.166 17.797,39.804 16.268,41.674C12.582,46.3 6.621,50.085 1.092,51.307L0.359,51.469L0,50.811Z" style="fill:rgb(247,147,29);fill-rule:nonzero;"/>
        </g>
        <g transform="matrix(0,-50.332,-50.332,0,14.76,54.1685)">
            <path d="M0.931,-0.042C0.886,-0.045 0.777,-0.048 0.652,-0.05C0.642,-0.015 0.629,0.02 0.617,0.052C0.754,0.049 0.89,0.046 0.989,0.041C0.989,0.041 0.97,0.148 0.92,0.231C0.92,0.231 0.813,0.234 0.637,0.234C0.472,0.234 0.249,0.231 -0,0.221C-0,0.221 0.017,0.112 0.08,0.041C0.08,0.041 0.192,0.052 0.353,0.052C0.381,0.053 0.408,0.053 0.435,0.053C0.449,0.015 0.461,-0.022 0.468,-0.051C0.275,-0.052 0.099,-0.052 0.099,-0.052C0.12,-0.141 0.157,-0.228 0.157,-0.228C0.243,-0.231 0.388,-0.221 0.538,-0.223C0.77,-0.224 1,-0.226 1,-0.226C0.974,-0.121 0.931,-0.042 0.931,-0.042Z" style="fill:url(#_Linear1);fill-rule:nonzero;"/>
        </g>
        <g transform="matrix(0,-50.9805,-50.9805,0,41.3022,54.2407)">
            <path d="M0.852,0.209C0.852,0.209 0.698,0.216 0.496,0.216C0.342,0.216 0.16,0.212 -0,0.198C-0,0.198 0.054,-0.035 0.147,-0.184C0.147,-0.184 0.209,-0.189 0.261,-0.189C0.285,-0.189 0.306,-0.188 0.321,-0.185C0.321,-0.185 0.267,-0.031 0.244,0.027C0.309,0.04 0.373,0.034 0.371,0.034C0.434,-0.109 0.465,-0.16 0.465,-0.16C0.487,-0.162 0.517,-0.164 0.545,-0.164C0.592,-0.164 0.634,-0.161 0.634,-0.161C0.621,-0.105 0.596,-0.035 0.573,0.031C0.586,0.035 0.603,0.037 0.621,0.037C0.667,0.037 0.719,0.028 0.733,0.027C0.733,0.027 0.785,-0.092 0.812,-0.189C0.812,-0.189 0.918,-0.215 1,-0.213C1,-0.213 0.99,-0.042 0.852,0.209Z" style="fill:url(#_Linear2);fill-rule:nonzero;"/>
        </g>
        <g transform="matrix(0,-49.0374,-49.0374,0,67.2244,53.8091)">
            <path d="M1,-0.112C0.997,0.104 0.813,0.276 0.813,0.276C0.813,0.276 0.709,0.263 0.505,0.25C0.273,0.235 -0,0.231 -0,0.231C0.007,0.132 0.073,0.04 0.073,0.04C0.113,0.05 0.374,0.062 0.374,0.062C0.288,-0.023 0.078,-0.139 0.078,-0.139C0.123,-0.2 0.217,-0.276 0.217,-0.276C0.305,-0.233 0.48,-0.106 0.48,-0.106C0.526,-0.142 0.554,-0.159 0.587,-0.178C0.665,-0.222 0.72,-0.245 0.827,-0.248C0.938,-0.251 1,-0.162 1,-0.113C1,-0.113 1,-0.112 1,-0.112ZM0.617,0.069C0.668,0.069 0.739,0.068 0.749,0.066C0.749,0.066 0.806,-0.006 0.8,-0.037C0.791,-0.085 0.642,-0.034 0.561,0.068C0.561,0.069 0.584,0.069 0.617,0.069Z" style="fill:url(#_Linear3);fill-rule:nonzero;"/>
        </g>
        <g transform="matrix(0,-47.668,-47.668,0,95.2889,52.5845)">
            <path d="M0.988,0.021C0.956,0.137 0.864,0.205 0.761,0.243C0.645,0.285 0.518,0.294 0.402,0.287C0.295,0.279 0.183,0.249 0.094,0.185C0.044,0.149 -0,0.086 -0,0.019C-0,0.003 0.001,-0.012 0.008,-0.029C0.089,-0.253 0.376,-0.299 0.592,-0.299C0.627,-0.299 0.662,-0.298 0.695,-0.295C0.795,-0.287 0.864,-0.278 0.943,-0.21C0.985,-0.173 1,-0.123 1,-0.068C1,-0.04 0.995,-0.008 0.988,0.021ZM0.225,0.018C0.236,0.051 0.301,0.069 0.326,0.075C0.364,0.086 0.414,0.092 0.465,0.092C0.497,0.092 0.53,0.089 0.56,0.084C0.603,0.077 0.843,0.048 0.786,-0.052C0.76,-0.095 0.675,-0.105 0.634,-0.105C0.541,-0.106 0.42,-0.102 0.376,-0.088C0.338,-0.077 0.224,-0.037 0.224,0.009C0.224,0.012 0.224,0.015 0.225,0.018Z" style="fill:url(#_Linear4);fill-rule:nonzero;"/>
        </g>
        <g transform="matrix(0,-44.2844,-44.2844,0,118.776,50.8571)">
            <path d="M0.912,0.104C0.912,0.104 0.59,0.117 0.312,0.117C0.189,0.117 0.075,0.115 0,0.107C0,0.107 -0.002,0.007 0.057,-0.068C0.057,-0.068 0.82,-0.102 1,-0.117C1,-0.117 0.943,0.063 0.912,0.104Z" style="fill:url(#_Linear5);fill-rule:nonzero;"/>
        </g>
        <g transform="matrix(0,-49.4443,-49.4443,0,140.05,53.4487)">
            <path d="M0.919,0.13C0.885,0.167 0.836,0.197 0.836,0.197C0.762,0.237 0.655,0.261 0.523,0.261C0.434,0.261 0.332,0.25 0.218,0.226C0.115,0.205 -0,0.129 -0,0.011C-0,-0.014 0.006,-0.04 0.016,-0.068C0.036,-0.12 0.055,-0.157 0.074,-0.181C0.102,-0.221 0.124,-0.243 0.157,-0.261C0.157,-0.261 0.22,-0.25 0.278,-0.186C0.278,-0.186 0.205,-0.091 0.205,-0.027C0.205,-0.011 0.21,0.002 0.22,0.012C0.258,0.047 0.371,0.065 0.485,0.065C0.585,0.065 0.711,0.062 0.782,-0.009C0.795,-0.027 0.801,-0.043 0.801,-0.059C0.801,-0.079 0.792,-0.098 0.778,-0.12C0.801,-0.141 0.852,-0.181 0.928,-0.208C0.964,-0.174 0.99,-0.132 0.996,-0.1C0.999,-0.085 1,-0.071 1,-0.057C1,0.015 0.968,0.079 0.919,0.13Z" style="fill:url(#_Linear6);fill-rule:nonzero;"/>
        </g>
        <g transform="matrix(0,-49.0361,-49.0361,0,28.5615,105.521)">
            <path d="M0.868,0.238C0.847,0.242 0.821,0.244 0.796,0.244C0.736,0.244 0.677,0.235 0.677,0.235C0.695,0.197 0.711,0.145 0.727,0.093C0.546,0.091 0.201,0.087 0,0.073C0,0.073 0.029,-0.081 0.057,-0.128C0.057,-0.128 0.22,-0.097 0.687,-0.097L0.778,-0.097C0.797,-0.176 0.811,-0.236 0.811,-0.236C0.837,-0.242 0.871,-0.244 0.903,-0.244C0.954,-0.244 1,-0.239 1,-0.239C0.971,-0.018 0.868,0.238 0.868,0.238Z" style="fill:url(#_Linear7);fill-rule:nonzero;"/>
        </g>
        <g transform="matrix(0,-50.1162,-50.1162,0,51.9611,105.809)">
            <path d="M0.889,0.161C0.425,0.254 0,0.259 0,0.259C0.019,0.171 0.069,0.063 0.069,0.063L0.194,0.053C0.21,0.032 0.26,-0.069 0.26,-0.069C0.187,-0.075 0.118,-0.078 0.047,-0.082C0.078,-0.168 0.134,-0.259 0.134,-0.259C0.592,-0.22 1,-0.155 1,-0.155C0.991,-0.066 0.889,0.161 0.889,0.161ZM0.773,-0.004C0.634,-0.029 0.451,-0.049 0.451,-0.049L0.405,0.046C0.609,0.03 0.773,-0.004 0.773,-0.004Z" style="fill:url(#_Linear8);fill-rule:nonzero;"/>
        </g>
        <g transform="matrix(0,-48.6758,-48.6758,0,77.1604,105.088)">
            <path d="M0.922,0.18C0.922,0.18 0.691,0.192 0.433,0.192C0.284,0.192 0.126,0.188 -0,0.176C-0,0.176 0.072,-0.078 0.158,-0.183C0.158,-0.183 0.228,-0.192 0.296,-0.192C0.311,-0.192 0.325,-0.192 0.34,-0.191C0.34,-0.191 0.287,-0.046 0.259,0.004C0.259,0.004 0.667,-0.001 1,-0.021C1,-0.021 0.975,0.105 0.922,0.18Z" style="fill:url(#_Linear9);fill-rule:nonzero;"/>
        </g>
        <g transform="matrix(0,-50.9805,-50.9805,0,100.27,106.241)">
            <path d="M0.852,0.209C0.852,0.209 0.698,0.216 0.496,0.216C0.342,0.216 0.16,0.212 -0,0.198C-0,0.198 0.054,-0.035 0.147,-0.184C0.147,-0.184 0.209,-0.189 0.261,-0.189C0.285,-0.189 0.306,-0.188 0.321,-0.185C0.321,-0.185 0.267,-0.031 0.244,0.027C0.309,0.04 0.373,0.034 0.371,0.034C0.434,-0.109 0.465,-0.16 0.465,-0.16C0.487,-0.162 0.517,-0.164 0.545,-0.164C0.592,-0.164 0.634,-0.161 0.634,-0.161C0.621,-0.105 0.596,-0.035 0.573,0.031C0.586,0.035 0.603,0.037 0.621,0.037C0.667,0.037 0.719,0.028 0.733,0.027C0.733,0.027 0.785,-0.092 0.812,-0.189C0.812,-0.189 0.918,-0.215 1,-0.213C1,-0.213 0.99,-0.042 0.852,0.209Z" style="fill:url(#_Linear10);fill-rule:nonzero;"/>
        </g>
        <g transform="matrix(0,-49.7568,-49.7568,0,123.735,105.593)">
            <path d="M0.981,-0.107C0.962,-0.058 0.941,-0.009 0.912,0.035C0.871,0.1 0.821,0.158 0.76,0.204C0.731,0.227 0.677,0.257 0.637,0.255C0.601,0.252 0.572,0.24 0.548,0.218C0.509,0.184 0.473,0.13 0.444,0.091C0.417,0.053 0.386,-0.01 0.356,-0.039C0.324,-0.071 0.262,0.011 0.25,0.029C0.21,0.084 0.195,0.133 0.181,0.178C0.135,0.165 0.061,0.142 -0,0.108C0.025,-0.003 0.101,-0.117 0.187,-0.185C0.219,-0.211 0.249,-0.23 0.294,-0.245C0.323,-0.255 0.357,-0.258 0.391,-0.253C0.45,-0.246 0.498,-0.181 0.531,-0.135C0.56,-0.094 0.569,-0.08 0.601,-0.038C0.621,-0.012 0.645,0.03 0.669,0.023C0.7,0.016 0.732,-0.036 0.754,-0.07C0.774,-0.101 0.792,-0.149 0.81,-0.198C0.887,-0.2 0.967,-0.178 1,-0.168C0.994,-0.148 0.99,-0.126 0.981,-0.107Z" style="fill:url(#_Linear11);fill-rule:nonzero;"/>
        </g>
    </g>
    <defs>
        <linearGradient id="_Linear1" x1="0" y1="0" x2="1" y2="0" gradientUnits="userSpaceOnUse" gradientTransform="matrix(1,0,0,-1,0,0.00234423)"><stop offset="0" style="stop-color:rgb(255,243,58);stop-opacity:1"/><stop offset="0.28" style="stop-color:rgb(253,199,9);stop-opacity:1"/><stop offset="0.67" style="stop-color:rgb(244,145,63);stop-opacity:1"/><stop offset="0.89" style="stop-color:rgb(238,104,60);stop-opacity:1"/><stop offset="1" style="stop-color:rgb(234,61,57);stop-opacity:1"/></linearGradient>
        <linearGradient id="_Linear2" x1="0" y1="0" x2="1" y2="0" gradientUnits="userSpaceOnUse" gradientTransform="matrix(1,0,0,-1,0,0.00134009)"><stop offset="0" style="stop-color:rgb(255,243,58);stop-opacity:1"/><stop offset="0.28" style="stop-color:rgb(253,199,9);stop-opacity:1"/><stop offset="0.67" style="stop-color:rgb(244,145,63);stop-opacity:1"/><stop offset="0.89" style="stop-color:rgb(238,104,60);stop-opacity:1"/><stop offset="1" style="stop-color:rgb(234,61,57);stop-opacity:1"/></linearGradient>
        <linearGradient id="_Linear3" x1="0" y1="0" x2="1" y2="0" gradientUnits="userSpaceOnUse" gradientTransform="matrix(1,0,0,-1,0,1.49763e-05)"><stop offset="0" style="stop-color:rgb(255,243,58);stop-opacity:1"/><stop offset="0.28" style="stop-color:rgb(253,199,9);stop-opacity:1"/><stop offset="0.67" style="stop-color:rgb(244,145,63);stop-opacity:1"/><stop offset="0.89" style="stop-color:rgb(238,104,60);stop-opacity:1"/><stop offset="1" style="stop-color:rgb(234,61,57);stop-opacity:1"/></linearGradient>
        <linearGradient id="_Linear4" x1="0" y1="0" x2="1" y2="0" gradientUnits="userSpaceOnUse" gradientTransform="matrix(1,0,0,-1,0,-0.0051431)"><stop offset="0" style="stop-color:rgb(255,243,58);stop-opacity:1"/><stop offset="0.28" style="stop-color:rgb(253,199,9);stop-opacity:1"/><stop offset="0.67" style="stop-color:rgb(244,145,63);stop-opacity:1"/><stop offset="0.89" style="stop-color:rgb(238,104,60);stop-opacity:1"/><stop offset="1" style="stop-color:rgb(234,61,57);stop-opacity:1"/></linearGradient>
        <linearGradient id="_Linear5" x1="0" y1="0" x2="1" y2="0" gradientUnits="userSpaceOnUse" gradientTransform="matrix(1,0,0,-1,0,2.69937e-05)"><stop offset="0" style="stop-color:rgb(255,243,58);stop-opacity:1"/><stop offset="0.28" style="stop-color:rgb(253,199,9);stop-opacity:1"/><stop offset="0.67" style="stop-color:rgb(244,145,63);stop-opacity:1"/><stop offset="0.89" style="stop-color:rgb(238,104,60);stop-opacity:1"/><stop offset="1" style="stop-color:rgb(234,61,57);stop-opacity:1"/></linearGradient>
        <linearGradient id="_Linear6" x1="0" y1="0" x2="1" y2="0" gradientUnits="userSpaceOnUse" gradientTransform="matrix(1,0,0,-1,0,-1.18517e-05)"><stop offset="0" style="stop-color:rgb(255,243,58);stop-opacity:1"/><stop offset="0.28" style="stop-color:rgb(253,199,9);stop-opacity:1"/><stop offset="0.67" style="stop-color:rgb(244,145,63);stop-opacity:1"/><stop offset="0.89" style="stop-color:rgb(238,104,60);stop-opacity:1"/><stop offset="1" style="stop-color:rgb(234,61,57);stop-opacity:1"/></linearGradient>
        <linearGradient id="_Linear7" x1="0" y1="0" x2="1" y2="0" gradientUnits="userSpaceOnUse" gradientTransform="matrix(1,0,0,-1,0,1.84803e-05)"><stop offset="0" style="stop-color:rgb(255,243,58);stop-opacity:1"/><stop offset="0.28" style="stop-color:rgb(253,199,9);stop-opacity:1"/><stop offset="0.67" style="stop-color:rgb(244,145,63);stop-opacity:1"/><stop offset="0.89" style="stop-color:rgb(238,104,60);stop-opacity:1"/><stop offset="1" style="stop-color:rgb(234,61,57);stop-opacity:1"/></linearGradient>
        <linearGradient id="_Linear8" x1="0" y1="0" x2="1" y2="0" gradientUnits="userSpaceOnUse" gradientTransform="matrix(1,0,0,-1,0,2.4942e-06)"><stop offset="0" style="stop-color:rgb(255,243,58);stop-opacity:1"/><stop offset="0.28" style="stop-color:rgb(253,199,9);stop-opacity:1"/><stop offset="0.67" style="stop-color:rgb(244,145,63);stop-opacity:1"/><stop offset="0.89" style="stop-color:rgb(238,104,60);stop-opacity:1"/><stop offset="1" style="stop-color:rgb(234,61,57);stop-opacity:1"/></linearGradient>
        <linearGradient id="_Linear9" x1="0" y1="0" x2="1" y2="0" gradientUnits="userSpaceOnUse" gradientTransform="matrix(1,0,0,-1,0,-5.93724e-06)"><stop offset="0" style="stop-color:rgb(255,243,58);stop-opacity:1"/><stop offset="0.28" style="stop-color:rgb(253,199,9);stop-opacity:1"/><stop offset="0.67" style="stop-color:rgb(244,145,63);stop-opacity:1"/><stop offset="0.89" style="stop-color:rgb(238,104,60);stop-opacity:1"/><stop offset="1" style="stop-color:rgb(234,61,57);stop-opacity:1"/></linearGradient>
        <linearGradient id="_Linear10" x1="0" y1="0" x2="1" y2="0" gradientUnits="userSpaceOnUse" gradientTransform="matrix(1,0,0,-1,0,0.00134897)"><stop offset="0" style="stop-color:rgb(255,243,58);stop-opacity:1"/><stop offset="0.28" style="stop-color:rgb(253,199,9);stop-opacity:1"/><stop offset="0.67" style="stop-color:rgb(244,145,63);stop-opacity:1"/><stop offset="0.89" style="stop-color:rgb(238,104,60);stop-opacity:1"/><stop offset="1" style="stop-color:rgb(234,61,57);stop-opacity:1"/></linearGradient>
        <linearGradient id="_Linear11" x1="0" y1="0" x2="1" y2="0" gradientUnits="userSpaceOnUse" gradientTransform="matrix(1,0,0,-1,0,-0.000316801)"><stop offset="0" style="stop-color:rgb(255,243,58);stop-opacity:1"/><stop offset="0.28" style="stop-color:rgb(253,199,9);stop-opacity:1"/><stop offset="0.67" style="stop-color:rgb(244,145,63);stop-opacity:1"/><stop offset="0.89" style="stop-color:rgb(238,104,60);stop-opacity:1"/><stop offset="1" style="stop-color:rgb(234,61,57);stop-opacity:1"/></linearGradient>
    </defs>
</svg>
